<?xml version="1.0" encoding="UTF-8"?>
<svg width="80px" height="87px" viewBox="0 0 80 87" version="1.1" xmlns="http://www.w3.org/2000/svg" xmlns:xlink="http://www.w3.org/1999/xlink">
    <!-- Generator: Sketch 51.3 (57544) - http://www.bohemiancoding.com/sketch -->
    <title>Group 12</title>
    <desc>Created with Sketch.</desc>
    <defs>
        <polygon id="path-1" points="0.430943396 0.843018868 0.430943396 0.842264151 0.88754717 0.38490566 0.888301887 0.386415094"></polygon>
    </defs>
    <g id="Page-1" stroke="none" stroke-width="1" fill="none" fill-rule="evenodd">
        <g id="1_hotels-Home" transform="translate(-352.000000, -1344.000000)">
            <g id="almatar-features" transform="translate(0.000000, 1184.000000)">
                <g id="Group-13" transform="translate(333.000000, 80.000000)">
                    <g id="Group-15" transform="translate(0.000000, 80.000000)">
                        <g id="Group-12" transform="translate(19.000000, 0.000000)">
                            <path d="M38.1127597,86.0377358 C17.0660966,86.0377358 0,68.9005881 0,47.7566406 C0,28.3473827 14.3816327,12.3102818 33.0241912,9.81132075 L43.0768235,17.5152505 C42.8824529,17.7348998 42.7409296,17.9392457 42.7033095,18.1183859 C42.647775,18.2867237 42.6370264,18.4451593 42.6531493,18.5981937 L36.3123685,25.1129564 C35.8528656,25.5747601 35.0091002,26.6090924 34.1124874,27.8567725 C31.3975691,26.6730067 32.5019882,22.4825658 33.07883,20.0196128 C32.9220795,20.0745251 32.765329,20.0925292 32.6076828,20.0925292 C32.2923904,20.0925292 31.9762023,20.0196128 31.6609099,20.0196128 C32.7608504,17.4792424 31.027638,17.4792424 28.9719674,17.1686727 C27.6839263,16.8914104 27.1464961,15.7967647 27.3426581,14.7813367 C26.178226,15.1711242 25.0433525,15.606822 23.9353505,16.1109352 C24.3043859,16.862604 24.9654251,17.5872667 25.2529503,18.4325565 C24.9313879,18.5945929 24.1440526,18.9078632 23.8314473,18.9078632 C23.0826279,18.4613629 22.6186465,17.7285984 22.449356,16.8427995 C22.1546651,16.9877321 21.869827,17.1398662 21.5858847,17.2983018 C22.2218438,18.0985815 22.8183914,18.9834802 22.8183914,19.8575764 C22.556842,19.7072427 22.3436613,19.6424281 22.1672051,19.6424281 C21.5796147,19.6424281 21.3942013,20.3625898 21.157732,21.0836517 C20.9212627,21.8038134 20.6337375,22.5248753 19.8392365,22.5248753 C19.6538231,22.5248753 19.4406425,22.4852664 19.1934246,22.3979468 C20.1106388,21.1700711 19.5391713,20.2401623 18.7939348,19.0239893 C18.1212513,19.4767909 17.4575249,19.9656007 16.824253,20.4697139 L16.8126087,20.4778157 C15.621305,22.1683953 17.4494635,25.623371 18.7312346,25.623371 C19.1307244,25.623371 19.4773668,25.2884958 19.663676,24.4630105 C21.869827,25.4127237 19.8258008,26.202201 19.1934246,27.1546148 C19.0295083,27.4696856 19.1934246,28.580535 19.0295083,29.0549415 C18.8781322,29.5311484 17.9331507,29.2169779 17.7683388,30.005555 C17.6115883,30.4844625 18.5574655,33.1742664 18.8781322,33.4992394 C19.0187597,33.568555 19.1629702,33.5973614 19.308972,33.5973614 C19.6368045,33.5973614 19.9735941,33.4542293 20.2942608,33.3110972 C20.6149275,33.167965 20.920367,33.0248329 21.1846035,33.0248329 C21.5966333,33.0248329 21.9101343,33.3705105 22.0328475,34.601987 C23.6155795,34.1239797 22.5057861,32.0697184 24.3975405,32.0697184 C24.2389986,31.1209054 23.4516633,30.4844625 22.6661195,30.1711922 C23.1381624,29.5311484 24.0840395,29.2169779 24.7119372,29.0549415 C24.6313226,30.1504875 24.9922966,30.3062225 25.491211,30.3062225 C25.5906356,30.3062225 25.6945388,30.2999211 25.8029205,30.2936196 C25.9104066,30.2873182 26.0205798,30.281917 26.1316487,30.281917 C26.4048424,30.281917 26.6816189,30.3188253 26.9270454,30.4844625 C28.0269859,31.2703389 27.7116935,31.5962121 28.4972374,32.6989597 C29.1331964,33.6486729 30.5546994,33.9736459 29.9214274,35.2375297 C29.7906527,35.4976881 29.4968576,35.5571014 29.1564851,35.5571014 C29.0149618,35.5571014 28.8662728,35.546299 28.7175837,35.5363968 C28.5697904,35.5264946 28.4219971,35.5165924 28.2840567,35.5165924 C27.6731777,35.5165924 27.2387549,35.7137366 27.7116935,36.9776204 C26.9270454,36.9776204 26.130753,37.1423574 25.3452091,37.2998928 C25.9802725,40.7845752 24.5596653,40.6288402 22.3454528,43.1602086 C20.6113446,45.0641361 19.0295083,46.814129 19.0295083,49.3427967 C17.7298229,48.9503086 16.6370481,47.3686535 14.9620573,47.3686535 C14.6109362,47.3686535 14.2338393,47.4388693 13.8236009,47.6036062 C11.9300551,48.2400491 10.8292189,52.0443033 13.5109957,53.1479511 C13.9355656,52.5070072 14.3422211,52.2441482 14.6834893,52.2441482 C15.3552771,52.2441482 15.7726812,53.2622768 15.5657706,54.4226373 C16.0387092,54.4226373 16.6639197,54.5747715 17.1332754,54.5747715 C17.1332754,56.247347 17.998538,57.7623872 19.7263762,57.7623872 C19.8078864,57.7623872 19.8902924,57.7587864 19.9753855,57.752485 C20.1366146,57.752485 21.0842832,56.8009713 21.869827,56.8009713 C21.9907488,56.7838675 22.0982349,56.7757657 22.195868,56.7757657 C22.9894733,56.7757657 23.0817322,57.3113859 23.9237062,57.5904486 C27.5513602,58.3799258 29.9214274,60.6052255 32.7608504,62.5055522 C33.8661652,63.2950294 36.5488378,63.6092 36.7091711,65.3600931 C36.7091711,66.1486702 35.4480015,67.1019842 35.291251,67.7384271 C34.9750629,68.5270042 35.1273348,69.6387538 34.6543962,70.4282311 C34.341791,70.7415014 32.9211838,71.8568518 32.4482452,72.3321585 C31.8122861,72.971302 31.4996808,73.5960423 31.027638,74.2351858 C30.0808651,75.3469354 29.2944255,76.2966487 27.7116935,77.2499627 C27.5235929,78.0952525 27.0712558,79.1025787 26.7210305,80.2080269 C30.29315,81.4737111 34.1339846,82.1560643 38.130674,82.1560643 C44.550278,82.1560643 50.5524778,80.3862669 55.6965807,77.3147773 C54.0278599,72.3231565 56.8018956,67.3279349 54.7005434,62.1832798 C54.0645843,60.4431891 55.4869829,61.0805322 53.4393738,59.9669822 C52.7192173,59.533985 52.4254221,59.4295615 52.1549156,59.4295615 C52.0304109,59.4295615 51.9103848,59.4520666 51.7563215,59.4736714 C51.6013625,59.4961765 51.4114705,59.5186815 51.1472339,59.5186815 C50.9922749,59.5186815 50.81134,59.5105797 50.5972637,59.4907753 C48.2298836,59.3296391 46.4912968,58.0657553 44.9184177,56.3265648 C42.8672257,53.7834938 44.1185424,53.1479511 45.2301272,50.4545464 C45.7030658,49.3427967 46.3399206,48.2400491 46.9606525,47.1282995 C47.1245687,46.6529928 47.4362783,45.0641361 47.7614236,44.7499655 C48.706405,43.7993521 51.8584333,43.1602086 53.4393738,42.8469382 C53.9096253,42.8469382 54.8295266,42.5777778 55.4592157,42.5777778 C55.6670221,42.5777778 55.8434783,42.6074845 55.9608173,42.6849019 C57.5408621,43.7993521 55.8067539,44.2746588 56.7553183,45.5394428 C57.2416926,46.1047697 57.8543631,46.2623051 58.4132905,46.2623051 C59.1155326,46.2623051 59.731786,46.0138493 59.9055551,46.0138493 C60.3820765,46.0138493 61.4909742,46.1758857 62.4368514,46.1758857 C62.7252723,46.1965903 63.0101103,46.2100934 63.2877826,46.2100934 C65.1356468,46.2100934 66.6359728,45.6420658 66.2248387,43.1602086 C64.8033358,43.010775 62.5882276,42.8469382 63.2214995,40.7845752 C63.0826634,40.7395651 62.9178514,40.7206608 62.7458738,40.7206608 C62.3275739,40.7206608 61.8680711,40.8313857 61.640559,40.9457114 C61.7999966,41.8963248 61.4909742,42.5327677 61.1667246,43.010775 C60.3820765,41.1068475 59.1209069,38.5673773 56.7553183,37.9309344 C57.2085511,38.8446396 60.1375458,42.3896356 57.705674,42.3896356 C57.6053537,42.3896356 57.496972,42.3842343 57.3787373,42.3716315 C58.9587822,41.2598819 56.7553183,39.9923973 55.8067539,38.8815479 C55.4869829,39.6818276 53.5889586,39.8312611 52.6466642,40.3065678 C51.8584333,40.7845752 50.276597,42.5327677 49.4910531,42.5327677 C49.4543287,42.5372687 49.4185001,42.5399693 49.3817757,42.5399693 C48.314081,42.5399693 47.3001293,40.4388976 47.7614236,39.5170906 C48.0489487,38.9337596 48.4009655,38.7375155 48.8022467,38.7375155 C49.4919489,38.7375155 50.3267571,39.3190461 51.2215784,39.5170906 C51.3854947,36.9776204 50.9125561,36.8254862 52.6466642,34.9242594 C53.4940126,33.9466399 54.98986,33.1598632 55.4287613,32.0616166 L61.469477,40.0239044 L63.0450433,37.7589958 L60.431341,30.4196479 C60.5343484,30.1621901 60.633773,29.8975307 60.728719,29.6382725 L61.1102945,29.2547864 L61.1093988,29.252986 L62.2129221,28.143937 L60.5710728,26.4938665 C60.7752963,25.9636474 61.0153485,25.4064223 61.0153485,24.9383172 C60.4510467,25.1795714 60.0721584,25.4415302 59.7962776,25.7160918 L59.6063856,25.525249 L59.2463073,25.8871303 L58.9292235,26.2040014 L58.0245493,23.663631 L58.5673538,23.1190087 L58.5664581,23.1172083 L59.8795793,21.797512 L59.2203315,21.1349632 C59.4263465,20.9981325 59.6242999,20.8793058 59.8132962,20.7829842 C58.6219926,19.8080653 57.3644058,18.911464 56.0477018,18.1021823 L55.3141096,16.0461207 L56.933566,14.4581641 C68.4569656,21.0431426 76.2264151,33.488437 76.2264151,47.7566406 C76.2264151,68.9005881 59.1639014,86.0377358 38.1127597,86.0377358 M3.82202457,45.0560342 C3.75753295,45.901324 3.73066144,46.7466138 3.73066144,47.6036062 C3.73066144,61.5360345 11.9300551,73.5402298 23.7472499,78.9972551 C23.7821829,78.4103233 23.8224902,77.8215911 23.7642686,77.2499627 C23.7642686,75.3469354 22.8183914,73.7598791 22.6661195,71.8568518 C22.5057861,70.5920678 23.1381624,70.2697955 22.5057861,69.0023109 C22.5057861,68.8420749 21.2446166,68.0525977 20.9248456,67.5745903 C20.6113446,67.2604198 20.7725737,66.1486702 20.4510113,65.5122273 C19.9753855,64.8847864 18.8781322,64.7236502 18.5574655,63.6092 C17.6115883,61.3947028 19.8258008,59.9669822 18.2457559,58.0657553 C18.0818397,57.9046191 16.3504187,56.8009713 16.0387092,56.6407353 C15.0901448,56.0033922 14.4577686,55.2121146 13.3488709,54.7368079 C11.6174499,53.9473306 10.357176,53.9473306 9.25006978,52.51961 C8.1411721,51.2467242 8.30240116,48.3921833 6.71966917,47.6036062 C6.40885536,48.5542197 6.71966917,49.5048331 7.19529491,50.2934102 C4.67474719,48.86749 6.24852201,48.7153559 5.93322962,46.814129 C5.6483916,45.5106363 5.22292601,45.5187381 3.82202457,45.0560342 M69.8220383,61.0607278 C66.6494086,61.0724304 65.8898406,65.1989569 66.1281013,67.6817144 C67.5890158,65.6373554 68.8358539,63.4111555 69.8220383,61.0607278 M66.2248387,47.6036062 C65.2762744,49.1897624 66.5347568,52.8337806 67.4824254,54.5747715 C68.5528073,56.7253543 69.3965727,57.169154 71.1638224,57.2564736 C71.3841688,56.496703 71.5857052,55.735132 71.7433514,54.9537566 C71.5991409,54.9681598 71.4629919,54.9753614 71.333113,54.9753614 C68.0019413,54.9753614 69.003353,50.3933326 66.2248387,47.6036062 M66.4881795,39.8726704 C67.0972671,39.8726704 67.6750046,39.9176805 68.0682244,40.1463319 C68.3915782,39.3478526 67.9186396,38.6438945 67.1223472,38.1685878 C67.2835763,37.8544173 67.2835763,37.3791105 67.4465968,37.0622394 C66.9942597,36.8011808 66.6538872,36.6760527 66.3995035,36.6760527 C65.8486376,36.6760527 65.7008443,37.2620843 65.7008443,38.329724 C65.6417269,38.3603309 65.5933582,38.3738339 65.5539467,38.3738339 C65.3855519,38.3738339 65.3604718,38.1388811 65.2288014,38.0155534 C64.8991775,37.474532 64.5910509,37.2656851 64.3295015,37.2656851 C63.5932221,37.2656851 63.2277695,38.926558 63.8081942,39.5089888 C64.0679521,39.8330615 64.6465853,39.8915747 65.3138945,39.8915747 C65.5019951,39.8915747 65.6981571,39.8861735 65.8952149,39.8816724 C66.0931683,39.8771714 66.2920175,39.8726704 66.4881795,39.8726704" id="Fill-177" fill="#E7EFF1"></path>
                            <path d="M43.0188679,43.9005231 C43.0188679,45.4963173 41.7086841,46.7924528 40.0895288,46.7924528 L30.5739335,46.7924528 C28.6929227,46.7924528 27.1698113,45.2887925 27.1698113,43.4326978 C27.1698113,41.5810756 28.6929227,40.0765207 30.5739335,40.0765207 C31.0940203,40.0765207 31.5860188,40.1937007 32.0245589,40.398542 C32.7747887,39.250894 34.07863,38.490566 35.5627802,38.490566 C37.3278135,38.490566 38.8346155,39.5594977 39.459807,41.0801536 C39.6609555,41.0354284 39.8711648,41.0121713 40.0895288,41.0121713 C41.7086841,41.0121713 43.0188679,42.3056234 43.0188679,43.9005231" id="Fill-179" fill="#B5C6D3"></path>
                            <path d="M80,37.5320096 C80,40.1426876 77.9417475,42.2641509 75.3959906,42.2641509 L60.4416814,42.2641509 C57.4889254,42.2641509 55.0943396,39.8024443 55.0943396,36.7669218 C55.0943396,33.7359972 57.4889254,31.273371 60.4416814,31.273371 C61.2592576,31.273371 62.0365811,31.4646429 62.7235598,31.8002884 C63.9034099,29.9225129 65.9518229,28.6792453 68.2846879,28.6792453 C71.0576487,28.6792453 73.4253994,30.4291996 74.4084588,32.9166544 C74.7242185,32.8421687 75.0542903,32.8053857 75.3959906,32.8053857 C77.9417475,32.8053857 80,34.9213315 80,37.5320096" id="Fill-180" fill="#B5C6D3"></path>
                            <polyline id="Fill-181" fill="#F1A944" points="57.3584906 27.6489175 59.9004522 30.1886792 62.6415094 27.4462955 60.100421 24.9056604 57.3584906 27.6489175"></polyline>
                            <polyline id="Fill-182" fill="#F1A944" points="55.0943396 21.609855 57.6349748 24.1509434 60.3773585 21.4090129 57.8367234 18.8679245 55.0943396 21.609855"></polyline>
                            <polyline id="Fill-183" fill="#E7A42D" points="55.3677918 15.0943396 63.3962264 36.9874978 61.7791399 39.245283 48.3018868 21.9933272 55.3677918 15.0943396"></polyline>
                            <polyline id="Fill-184" fill="#F1A944" points="44.8056594 11.3207547 42.2641509 8.78011959 45.0065347 6.03773585 47.5471698 8.57837098 44.8056594 11.3207547"></polyline>
                            <polyline id="Fill-185" fill="#E7A42D" points="38.7670502 9.05660377 36.2264151 6.51684202 38.9687988 3.77358491 41.509434 6.31422003 38.7670502 9.05660377"></polyline>
                            <polyline id="Fill-186" fill="#E7A42D" points="51.3207547 10.6458251 29.4287457 3.01886792 27.1698113 4.55578625 44.4245879 17.3584906 51.3207547 10.6458251"></polyline>
                            <polyline id="Fill-187" fill="#E7A42D" points="35.4716981 27.3320261 24.6264669 24.9056604 22.6415094 26.956758 31.6334023 33.2075472 35.4716981 27.3320261"></polyline>
                            <g id="Group-192" transform="translate(30.188679, 0.000000)">
                                <polyline id="Fill-188" fill="#E7A42D" points="8.50867925 30.5789757 10.8978113 41.472345 8.87818868 43.4671698 2.72332075 34.4355179 8.50867925 30.5789757"></polyline>
                                <path d="M10.608,29.5775433 C9.12,31.0461918 1.76603774,36.4499961 0.277132075,34.9831344 C-1.20996226,33.5153793 4.24483019,26.2382441 5.73373585,24.7695957 L27.8544906,2.46382749 C29.3433962,0.995179053 33.3436981,-0.569949942 34.8307925,0.896911821 C36.3206038,2.3664536 34.7329811,6.31054293 33.2449811,7.77919137 L10.608,29.5775433" id="Fill-190" fill="#F8C923"></path>
                                <path d="M35.3506415,3.47687332 L35.333434,3.45900655 C35.3488302,3.2186985 34.797283,2.47722757 34.0147925,1.7044898 C33.2304906,0.931752022 32.4806038,0.389495572 32.2387925,0.407362341 L32.2179623,0.385922218 C33.2748679,0.217081248 34.2475472,0.318921833 34.8335094,0.895125144 C35.4194717,1.47490181 35.5236226,2.43524066 35.3506415,3.47687332" id="Fill-191" fill="#F1A944"></path>
                            </g>
                            <path d="M63.9086059,5.28301887 L62.6778673,5.28301887 C62.8556034,4.57966101 62.7214629,3.87630315 62.2528097,3.40767736 C61.7841565,2.93905156 61.0799191,2.80408063 60.3773585,2.98264466 L60.3773585,1.75197799 C61.5083302,1.32359198 62.6921197,1.45437127 63.4500133,2.21054384 C64.2053917,2.96587808 64.337017,4.15211333 63.9086059,5.28301887" id="Fill-193" fill="#E7A42D"></path>
                            <polyline id="Fill-194" fill="#E7A42D" points="28.1868527 38.490566 27.9245283 38.2282198 38.2273614 27.9245283 38.490566 28.1868745 28.1868527 38.490566"></polyline>
                            <polyline id="Fill-195" fill="#F8C923" points="53.5253549 29.4339623 49.8113208 24.5830154 51.3803055 23.3962264 55.0943396 28.2463225 53.5253549 29.4339623"></polyline>
                            <polyline id="Fill-196" fill="#F8C923" points="57.2989398 34.7169811 53.5849057 29.8653507 55.1530344 28.6792453 58.8679245 33.529174 57.2989398 34.7169811"></polyline>
                            <polyline id="Fill-197" fill="#F8C923" points="36.9811321 12.8899937 41.8310608 16.6037736 43.0188679 15.0345346 38.1672375 11.3207547 36.9811321 12.8899937"></polyline>
                            <polyline id="Fill-198" fill="#F8C923" points="31.6981132 8.35997958 36.5495765 12.0754717 37.7358491 10.5070888 32.8835348 6.79245283 31.6981132 8.35997958"></polyline>
                            <g id="Group-201" transform="translate(57.358491, 22.641509)">
                                <mask id="mask-2" fill="white">
                                    <use xlink:href="#path-1"></use>
                                </mask>
                                <g id="Clip-200"></g>
                                <polygon id="Fill-199" fill="#BBBCB8" mask="url(#mask-2)" points="0.430943396 0.843018868 0.888301887 0.843018868 0.888301887 0.38490566 0.430943396 0.38490566"></polygon>
                            </g>
                            <polyline id="Fill-202" fill="#C78936" points="58.9822435 23.3962264 57.3584906 19.2774037 57.8094154 18.8679245 59.6226415 22.8137278 58.9822435 23.3962264"></polyline>
                            <polyline id="Fill-203" fill="#BF8532" points="57.9026415 23.3962264 57.3584906 21.8867925 57.9026415 23.3954773 57.9026415 23.3962264"></polyline>
                            <path d="M32.2851647,34.7169811 C32.0530125,34.7169811 31.8546603,34.6742613 31.6981132,34.5817017 L31.6998922,34.5790317 C31.8573287,34.6715913 32.0556809,34.7134211 32.2869437,34.7134211 C32.7797111,34.7134211 33.4245783,34.5211819 34.1468296,34.2061232 L34.1477191,34.2079032 C33.4254678,34.5229619 32.7788217,34.7169811 32.2851647,34.7169811 M40.1480971,32.4510502 L39.7682925,30.6915272 C39.8038714,30.6639373 39.8403398,30.6363475 39.8759187,30.6087576 C39.8403398,30.6363475 39.8047609,30.6639373 39.7682925,30.6915272 L40.1480971,32.4510502 M40.9174904,29.7766109 C41.0171112,29.6938412 41.1096163,29.6146315 41.1958951,29.5389818 C41.1487531,29.5808117 41.0989426,29.6235315 41.0482427,29.6680313 C41.0055481,29.7027412 40.9628534,29.739231 40.9174904,29.7766109 M46.2392013,24.6422214 L48.9262961,22.0176219 L48.9262961,22.0185119 L46.2392013,24.6422214 M56.8799546,18.4104664 L56.501929,17.3549306 C56.503708,17.3558206 56.5054869,17.3567106 56.5072659,17.3576006 L56.8835125,18.4069064 L56.8799546,18.4104664 M57.3869537,13.754895 L57.3860642,13.754005 L63.9290201,7.36205055 C64.2616827,7.02919188 64.599682,6.56817373 64.9056604,6.03773585 C64.6005715,6.56995372 64.2625721,7.03186187 63.9290201,7.36561054 L57.3869537,13.754895" id="Fill-204" fill="#D1CBC1"></path>
                            <path d="M56.5341779,18.1132075 C56.532511,18.1122756 56.530844,18.1113436 56.529177,18.1104116 L55.8490566,15.9854984 L57.3576571,14.3396226 L57.3584906,14.3405546 L55.851557,15.9845664 L56.5341779,18.1132075" id="Fill-205" fill="#BBBCB8"></path>
                            <polyline id="Fill-206" fill="#BF8532" points="51.4148622 24.1509434 50.6498483 23.1568812 49.3658504 24.1225154 48.3028152 22.744217 48.3018868 22.745134 48.3018868 22.744217 55.4516106 15.8490566 56.6037736 19.027488 51.4148622 24.1509434"></polyline>
                            <path d="M37.6616625,40.754717 L33.9648928,35.1977791 C33.9640166,35.1986651 33.9640166,35.1986651 33.9631404,35.1986651 L33.9622642,35.1968931 C35.7006835,34.4305106 37.8991179,32.9322992 39.4999708,31.6981132 L40.754717,37.574008 L37.6616625,40.754717" id="Fill-207" fill="#BF8532"></path>
                            <path d="M32.2924587,36.2264151 C32.0583226,36.2264151 31.8575059,36.1841469 31.6981132,36.0906171 L31.8079771,35.9835976 L38.9176099,28.8825334 L39.6812538,29.6433617 C39.9424057,29.3969469 40.1594318,29.189203 40.3179239,29.0327206 L62.6599114,6.9264317 C62.8166025,6.77084861 62.9795973,6.59907768 63.1515973,6.40752162 L63.1524978,6.40482365 C63.1461941,6.58648714 63.1200789,6.77174793 63.0732517,6.95700872 L64.3952202,6.95700872 C64.6878903,6.18538854 64.7374191,5.38948659 64.5257961,4.70420153 C64.9517437,4.11604348 65.3353667,3.52878476 65.6055237,3.0215659 C65.6064243,3.02066657 65.6064243,3.01976725 65.6073248,3.01886792 C66.1008116,3.57914692 66.4159949,4.05578876 66.4042881,4.2392509 L66.4150943,4.25094212 L66.4150943,4.25184144 C66.2539006,5.2635812 65.8306546,6.35446149 65.3164557,7.25018842 C65.0066756,7.78618566 64.6644767,8.25203562 64.3276809,8.58838288 L57.7034302,15.0473295 L56.0734827,16.6355361 L46.41807,26.0496621 L41.8172955,30.5327934 C41.6903217,30.6595981 41.5201228,30.8160805 41.3121019,30.997744 C41.2247511,31.0741866 41.1310966,31.1542264 41.030238,31.2378636 C40.7276621,31.4887751 40.3701543,31.7765588 39.975725,32.0787317 C39.9397041,32.1066108 39.9027826,32.1344899 39.8667617,32.1623689 C38.2215053,33.4151276 35.9620919,34.9358848 34.1754533,35.7138003 C33.4442282,36.0321611 32.7913487,36.2264151 32.2924587,36.2264151" id="Fill-208" fill="#CBA231"></path>
                            <path d="M66.3373585,3.01886792 L66.3283019,3.00843035 C66.3381132,2.84464071 66.0739623,2.41910879 65.6603774,1.91890807 C65.8588679,1.5150542 65.9811321,1.16820554 65.9811321,0.938578884 C65.9811321,0.861501405 65.9683019,0.799678844 65.9433962,0.754716981 L65.9901887,0.804496186 L66.0830189,0.933761542 L66.1041509,0.965877158 L66.1803774,1.11521477 L66.2437736,1.2637495 L66.2603774,1.30389402 L66.2603774,1.31272581 L66.290566,1.39462063 C66.3290566,1.51987154 66.3577358,1.65556002 66.3750943,1.7992774 C66.4090566,2.06021678 66.4128302,2.34443998 66.3864151,2.63749498 C66.3788679,2.76354878 66.3577358,2.88879968 66.3373585,3.01886792" id="Fill-209" fill="#C78936"></path>
                            <path d="M63.9025335,6.03773585 L62.6415094,6.03773585 C62.6861779,5.8515422 62.7110891,5.66534855 62.7171022,5.48277031 L62.7205382,5.4791549 C62.9808177,5.1754604 63.2505462,4.83651565 63.5202748,4.47497458 C63.6937945,4.24810756 63.8630191,4.01400972 64.0219356,3.78081573 C64.0236536,3.77810417 64.0253716,3.77629646 64.0270897,3.77358491 C64.2289566,4.46232064 64.1817111,5.26223026 63.9025335,6.03773585" id="Fill-210" fill="#BF8532"></path>
                            <polyline id="Fill-211" fill="#CBA231" points="50.6779529 25.6603774 49.8113208 24.5548803 50.1956384 24.2716538 50.1947863 24.2708232 51.3733037 23.3962264 52.0754717 24.2965711 52.0729153 24.2990628 51.0213676 25.3248245 50.6779529 25.6603774"></polyline>
                            <path d="M61.1320755,29.7932075 L61.1320755,29.7924528 L61.490566,29.4339623 C61.490566,29.4354717 61.4898113,29.4362264 61.4898113,29.4369811 L61.1320755,29.7932075" id="Fill-212" fill="#D1CBC1"></path>
                            <path d="M61.4906823,29.4339623 C61.4906823,29.4330567 61.4916121,29.4321511 61.4916121,29.4303399 L61.8858626,29.0463706 L61.8867925,29.0481818 L61.4906823,29.4339623 M59.6235713,25.9800499 L59.6226415,25.9791443 L59.9518035,25.6603774 L59.6235713,25.9800499" id="Fill-213" fill="#BBBCB8"></path>
                            <polyline id="Fill-214" fill="#C78936" points="61.0501826 29.4339623 59.6226415 25.5563097 59.9511435 25.2368671 60.2936044 24.9056604 61.8867925 28.6204244 61.4922179 29.0041175 61.0501826 29.4339623"></polyline>
                            <polyline id="Fill-215" fill="#BF8532" points="60.3773585 28.6792453 59.6226415 25.6655511 59.6226415 25.6612396 59.6232429 25.6603774 59.6238442 25.6612396 60.3773585 28.6792453"></polyline>
                            <path d="M47.1241966,8.30188679 L47.1213257,8.30112599 L47.5452559,7.96409008 L47.5471698,7.96485088 L47.1241966,8.30188679 M43.0198249,7.13557517 L43.0188679,7.13481436 L43.4504538,6.79245283 L43.4504538,6.79321363 L43.0198249,7.13557517" id="Fill-216" fill="#D1CBC1"></path>
                            <polyline id="Fill-217" fill="#C78936" points="47.1229707 8.30188679 46.029437 7.99192735 43.0188679 7.13515983 43.44977 6.79245283 47.5471698 7.96451079 47.1229707 8.30188679"></polyline>
                            <polyline id="Fill-218" fill="#BF8532" points="46.0377358 9.05660377 43.0188679 8.30523811 43.0227026 8.30188679 43.0236613 8.30255706 46.0377358 9.05660377"></polyline>
                            <polyline id="Fill-219" fill="#D1CBC1" points="40.7554717 6.38188679 40.754717 6.38188679 41.0988679 6.03773585 41.1003774 6.03849057 40.7554717 6.38188679"></polyline>
                            <polyline id="Fill-220" fill="#BF8532" points="41.0737079 6.79245283 36.9811321 5.63413782 37.425458 5.28301887 41.509434 6.44812973 41.0737079 6.79245283"></polyline>
                        </g>
                    </g>
                </g>
            </g>
        </g>
    </g>
</svg>