<?xml version="1.0" encoding="UTF-8"?>
<svg width="15px" height="30px" viewBox="0 0 15 30" version="1.1" xmlns="http://www.w3.org/2000/svg" xmlns:xlink="http://www.w3.org/1999/xlink">
    <!-- Generator: sketchtool 49.1 (51147) - http://www.bohemiancoding.com/sketch -->
    <title>B9535A0A-7B4A-432F-866A-5CF85E9D19B8</title>
    <desc>Created with sketchtool.</desc>
    <defs></defs>
    <g id="Symbols" stroke="none" stroke-width="1" fill="none" fill-rule="evenodd">
        <g id="flight-info" transform="translate(-218.000000, -20.000000)" fill="#56666F">
            <g id="Group" transform="translate(218.000000, 20.000000)">
                <path d="M12.9891176,23.73 C12.9891176,24.7032353 12.1967647,25.4947059 11.2244118,25.4947059 L3.75441176,25.4947059 C2.78117647,25.4947059 1.98970588,24.7032353 1.98970588,23.73 L1.98970588,11.8508824 C1.98970588,10.8767647 2.78117647,10.0861765 3.75441176,10.0861765 L11.2244118,10.0861765 C12.1967647,10.0861765 12.9891176,10.8767647 12.9891176,11.8508824 L12.9891176,23.73 Z M6.35735294,2.09647059 L8.62147059,2.09647059 C9.69352941,2.09647059 10.5670588,2.96911765 10.5670588,4.04205882 L10.5670588,8.32147059 L4.41264706,8.32147059 L4.41264706,4.04205882 C4.41264706,2.96911765 5.28441176,2.09647059 6.35735294,2.09647059 Z M12.3317647,8.51735294 L12.3317647,4.04205882 C12.3317647,1.99588235 10.6667647,0.331764706 8.62147059,0.331764706 L6.35735294,0.331764706 C4.31205882,0.331764706 2.64794118,1.99588235 2.64794118,4.04205882 L2.64794118,8.51735294 C1.24588235,8.98411765 0.225,10.2935294 0.225,11.8508824 L0.225,23.73 C0.225,25.4064706 1.40294118,26.8076471 2.97264706,27.165 L2.97264706,28.2697059 C2.97264706,28.7567647 3.36794118,29.1520588 3.855,29.1520588 C4.34205882,29.1520588 4.73735294,28.7567647 4.73735294,28.2697059 L4.73735294,27.2594118 L10.2414706,27.2594118 L10.2414706,28.2697059 C10.2414706,28.7567647 10.6358824,29.1520588 11.1238235,29.1520588 C11.6108824,29.1520588 12.0061765,28.7567647 12.0061765,28.2697059 L12.0061765,27.165 C13.5758824,26.8076471 14.7538235,25.4064706 14.7538235,23.73 L14.7538235,11.8508824 C14.7538235,10.2935294 13.7338235,8.98411765 12.3317647,8.51735294 Z" id="Fill-307"></path>
                <path d="M9.77382353,12.4605882 C9.28676471,12.4605882 8.89147059,12.8558824 8.89147059,13.3429412 L8.89147059,23.1882353 C8.89147059,23.6761765 9.28676471,24.0705882 9.77382353,24.0705882 C10.2608824,24.0705882 10.6561765,23.6761765 10.6561765,23.1882353 L10.6561765,13.3429412 C10.6561765,12.8558824 10.2608824,12.4605882 9.77382353,12.4605882" id="Fill-308"></path>
                <path d="M5.20411765,12.5161765 C4.71705882,12.5161765 4.32176471,12.9114706 4.32176471,13.3985294 L4.32176471,23.2438235 C4.32176471,23.7317647 4.71705882,24.1261765 5.20411765,24.1261765 C5.69205882,24.1261765 6.08647059,23.7317647 6.08647059,23.2438235 L6.08647059,13.3985294 C6.08647059,12.9114706 5.69205882,12.5161765 5.20411765,12.5161765" id="Fill-309"></path>
            </g>
        </g>
    </g>
</svg>