<?xml version="1.0" encoding="UTF-8"?>
<svg width="78px" height="76px" viewBox="0 0 78 76" version="1.1" xmlns="http://www.w3.org/2000/svg" xmlns:xlink="http://www.w3.org/1999/xlink">
    <!-- Generator: Sketch 51.3 (57544) - http://www.bohemiancoding.com/sketch -->
    <title>clock</title>
    <desc>Created with Sketch.</desc>
    <defs></defs>
    <g id="Page-1" stroke="none" stroke-width="1" fill="none" fill-rule="evenodd">
        <g id="About-Us" transform="translate(-477.000000, -2655.000000)" fill-rule="nonzero">
            <g id="almatar-features" transform="translate(0.000000, 2488.000000)">
                <g id="Group-13" transform="translate(232.000000, 80.000000)">
                    <g id="Group-5" transform="translate(198.916667, 87.000000)">
                        <g id="Group-16" transform="translate(0.333333, 0.000000)">
                            <g id="clock" transform="translate(47.000000, 0.000000)">
                                <path d="M75.3590786,37.6795393 C75.3590786,58.4891865 58.4891865,75.3590786 37.6795393,75.3590786 C16.8698921,75.3590786 0,58.4891865 0,37.6795393 C0,16.8698921 16.8698921,0 37.6795393,0 C58.4891865,0 75.3590786,16.8698921 75.3590786,37.6795393 Z" id="Shape" fill="#A1B4BE"></path>
                                <path d="M70.1619008,37.6795393 C70.1619008,55.6190653 55.6190653,70.1619008 37.6795393,70.1619008 C19.7400133,70.1619008 5.19717783,55.6190653 5.19717783,37.6795393 C5.19717783,19.7400133 19.7400133,5.19717783 37.6795393,5.19717783 C55.6190653,5.19717783 70.1619008,19.7400133 70.1619008,37.6795393 Z" id="Shape" fill="#F8C923"></path>
                                <path d="M51.5302212,37.6795393 L38.5372767,37.6795393 L38.5372767,20.7887113 C38.5372767,19.3536507 37.3737484,18.1901224 35.9386877,18.1901224 C34.5036271,18.1901224 33.3400988,19.3536507 33.3400988,20.7887113 L33.3400988,37.4714492 L23.3873003,43.2148635 C22.7884067,43.5593543 22.3512906,44.1290645 22.1730183,44.7977443 C21.9953804,45.4657897 22.0905435,46.1769757 22.4388406,46.7746005 C23.1570053,48.0148938 24.7443271,48.4393215 25.9858892,47.7230601 L37.2379822,41.2265878 L37.3026932,41.2265878 C37.3858023,41.1777373 37.4644705,41.1212738 37.5367946,41.0578317 L37.7182389,40.915087 L37.8876294,40.7330081 C37.8876294,40.7330081 38.0043629,40.6029518 38.0563854,40.524918 L38.1731188,40.3301507 L51.5302212,40.3301507 C52.2477516,40.3301507 52.8295157,39.7483865 52.8295157,39.0308562 C52.8295157,38.313326 52.2477516,37.7315617 51.5302212,37.7315617 L51.5302212,37.6795393 Z" id="Shape" fill="#E59730"></path>
                                <path d="M53.2710728,38.9788338 L38.9788338,38.9788338 C38.2613034,38.9788338 37.6795393,38.3970696 37.6795393,37.6795393 C37.6795393,36.962009 38.2613034,36.3802448 38.9788338,36.3802448 L53.2710728,36.3802448 C53.9886031,36.3802448 54.5703673,36.962009 54.5703673,37.6795393 C54.5703673,38.3970696 53.9886031,38.9788338 53.2710728,38.9788338 Z" id="Shape" fill="#B28026"></path>
                                <path d="M42.8767171,64.9647229 C30.4090732,64.9609163 19.0440532,57.8217755 13.6286345,46.5918872 C8.21321577,35.361999 9.70283673,22.0232948 17.4624414,12.2652635 C7.6625384,20.0286747 3.1879661,32.7278825 5.95657988,44.9201875 C8.72582803,57.1124927 18.2465859,66.6332506 30.4388911,69.4024987 C42.6311961,72.1711125 55.3304038,67.6965402 63.0938151,57.8966372 C57.3529382,62.4796954 50.2226793,64.972336 42.8767171,64.9647229 Z" id="Shape" fill="#E7A42D"></path>
                                <path d="M35.0809504,9.09506121 C46.6350279,9.09442683 57.3199485,15.2318167 63.1407622,25.2131643 C68.9622104,35.1938773 69.0427819,47.5156044 63.3539277,57.5718136 C70.8134513,47.9558927 72.2719855,34.9775397 67.1331742,23.9455908 C61.9943633,12.913642 51.1203851,5.67997227 38.959801,5.20415651 C26.799217,4.7277062 15.3923254,11.0890468 9.4071964,21.6851483 C15.5502962,13.7352172 25.0336231,9.08491047 35.0809504,9.09506121 Z" id="Shape" fill="#E59730"></path>
                                <path d="M37.6795393,16.890828 C39.1146,16.890828 40.2781282,18.0543562 40.2781282,19.4894169 L40.2781282,37.6795393 C40.2781282,39.1146 39.1146,40.2781282 37.6795393,40.2781282 C36.2444786,40.2781282 35.0809504,39.1146 35.0809504,37.6795393 L35.0809504,19.4894169 C35.0809504,18.0543562 36.2444786,16.890828 37.6795393,16.890828 Z" id="Shape" fill="#FFFFFF"></path>
                                <path d="M25.2493263,42.0868629 L36.5528074,35.5903906 C37.8013482,34.8728603 39.3956484,35.3036322 40.1131787,36.552173 C40.8307091,37.8007138 40.3999371,39.3943796 39.1513963,40.1119098 L27.8479152,46.6083821 C26.5993744,47.3259124 25.0050742,46.895775 24.2875439,45.6472342 C23.5700135,44.3986934 24.0007855,42.8043932 25.2493263,42.0868629 Z" id="Shape" fill="#FFFFFF"></path>
                                <path d="M37.6795393,11.6936501 C36.962009,11.6936501 36.3802448,11.111886 36.3802448,10.3943557 L36.3802448,5.19717783 C36.3802448,4.4796475 36.962009,3.89788338 37.6795393,3.89788338 C38.3970696,3.89788338 38.9788338,4.4796475 38.9788338,5.19717783 L38.9788338,10.3943557 C38.9788338,11.111886 38.3970696,11.6936501 37.6795393,11.6936501 Z" id="Shape" fill="#4891D3"></path>
                                <path d="M37.6795393,71.4611952 C36.962009,71.4611952 36.3802448,70.8794311 36.3802448,70.1619008 L36.3802448,64.9647229 C36.3802448,64.2471926 36.962009,63.6654285 37.6795393,63.6654285 C38.3970696,63.6654285 38.9788338,64.2471926 38.9788338,64.9647229 L38.9788338,70.1619008 C38.9788338,70.8794311 38.3970696,71.4611952 37.6795393,71.4611952 Z" id="Shape" fill="#4891D3"></path>
                                <path d="M10.3943557,38.9788338 L5.19717783,38.9788338 C4.4796475,38.9788338 3.89788338,38.3970696 3.89788338,37.6795393 C3.89788338,36.962009 4.4796475,36.3802448 5.19717783,36.3802448 L10.3943557,36.3802448 C11.111886,36.3802448 11.6936501,36.962009 11.6936501,37.6795393 C11.6936501,38.3970696 11.111886,38.9788338 10.3943557,38.9788338 Z" id="Shape" fill="#4891D3"></path>
                                <path d="M70.1619008,38.9788338 L64.9647229,38.9788338 C64.2471926,38.9788338 63.6654285,38.3970696 63.6654285,37.6795393 C63.6654285,36.962009 64.2471926,36.3802448 64.9647229,36.3802448 L70.1619008,36.3802448 C70.8794311,36.3802448 71.4611952,36.962009 71.4611952,37.6795393 C71.4611952,38.3970696 70.8794311,38.9788338 70.1619008,38.9788338 Z" id="Shape" fill="#4891D3"></path>
                                <path d="M24.0369475,15.3447437 C23.5706479,15.346647 23.1398759,15.0985883 22.906409,14.6950965 L20.30782,10.1995883 C19.9493721,9.57531796 20.164441,8.77848503 20.7887113,8.41940275 C21.4129817,8.0609547 22.2098146,8.2760235 22.5688971,8.90029388 L25.167486,13.395802 C25.3996841,13.7986595 25.3996841,14.2947767 25.1662171,14.6969998 C24.9327501,15.0998571 24.5019781,15.346647 24.0369475,15.3447437 Z" id="Shape" fill="#4891D3"></path>
                                <path d="M53.92072,67.1084319 C53.4544205,67.1103352 53.0236485,66.8622765 52.7901815,66.4587847 L50.1915926,61.9505881 C49.8331447,61.3263177 50.0482135,60.5288504 50.6724839,60.1704025 C51.2967543,59.8113201 52.0935872,60.0270233 52.4526696,60.6512937 L55.0512585,65.1594902 C55.4039965,65.7805886 55.1889279,66.5698083 54.5703673,66.9269874 C54.3736966,67.0437209 54.149746,67.1065286 53.92072,67.1084319 Z" id="Shape" fill="#4891D3"></path>
                                <path d="M9.54994111,55.2200145 C8.95802625,55.2244555 8.43843531,54.8279423 8.28553986,54.2563288 C8.13264441,53.6847154 8.38514393,53.0820154 8.90029388,52.7901815 L13.395802,50.1915926 C13.6952488,50.0183957 14.0517934,49.9714486 14.385499,50.0615363 C14.7198388,50.1516242 15.0040595,50.3717683 15.1759876,50.6724839 C15.5280914,51.2935822 15.313657,52.0828021 14.6950965,52.4393467 L10.1995883,55.0379356 C10.0029179,55.1546691 9.77833272,55.2174768 9.54994111,55.2200145 Z" id="Shape" fill="#4891D3"></path>
                                <path d="M61.3136293,25.3362419 C60.7217145,25.3406829 60.2021235,24.9441698 60.0492281,24.3725562 C59.8963326,23.8009428 60.1494665,23.1982428 60.6639821,22.906409 L65.1594902,20.30782 C65.5623477,20.0521485 66.0730567,20.0375567 66.4898713,20.2697549 C66.9066859,20.5025874 67.1623577,20.944779 67.1560136,21.4218637 C67.1496693,21.8995828 66.8819436,22.3347956 66.4587847,22.5555741 L61.9632766,25.154163 C61.7666061,25.2708965 61.5426555,25.3337043 61.3136293,25.3362419 Z" id="Shape" fill="#4891D3"></path>
                                <path d="M14.0454493,25.3362419 C13.8164231,25.3337043 13.5924725,25.2708965 13.395802,25.154163 L8.90029388,22.5555741 C8.47713495,22.3347956 8.20940932,21.8995828 8.20306503,21.4218637 C8.1967209,20.944779 8.45239265,20.5025874 8.86920729,20.2697549 C9.28602193,20.0375567 9.79673089,20.0521485 10.1995883,20.30782 L14.6950965,22.906409 C15.2096121,23.1982428 15.462746,23.8009428 15.3098505,24.3725562 C15.1569551,24.9441698 14.6373641,25.3406829 14.0454493,25.3362419 Z" id="Shape" fill="#4891D3"></path>
                                <path d="M65.8091375,55.2200145 C65.5807459,55.2174768 65.3561607,55.1546691 65.1594902,55.0379356 L60.6639821,52.4393467 C60.0454216,52.0828021 59.8309872,51.2935822 60.183091,50.6724839 C60.3550191,50.3717683 60.6392398,50.1516242 60.9735796,50.0615363 C61.3072852,49.9714486 61.6638298,50.0183957 61.9632766,50.1915926 L66.4587847,52.7901815 C66.9739347,53.0820154 67.2264342,53.6847154 67.0735387,54.2563288 C66.9206433,54.8279423 66.4010523,55.2244555 65.8091375,55.2200145 Z" id="Shape" fill="#4891D3"></path>
                                <path d="M21.4383586,67.1084319 C21.2093326,67.1065286 20.985382,67.0437209 20.7887113,66.9269874 C20.1701507,66.5698083 19.9550821,65.7805886 20.30782,65.1594902 L22.906409,60.6512937 C23.2654914,60.0270233 24.0623243,59.8113201 24.6865947,60.1704025 C25.3108651,60.5288504 25.5259339,61.3263177 25.167486,61.9505881 L22.5688971,66.4587847 C22.3354301,66.8622765 21.9046581,67.1103352 21.4383586,67.1084319 Z" id="Shape" fill="#4891D3"></path>
                                <path d="M51.3221311,15.3447437 C50.8571005,15.346647 50.4263285,15.0998571 50.1928615,14.6969998 C49.9593945,14.2947767 49.9593945,13.7986595 50.1915926,13.395802 L52.7901815,8.90029388 C53.1492639,8.2760235 53.9460969,8.0609547 54.5703673,8.41940275 C55.1946376,8.77848503 55.4097064,9.57531796 55.0512585,10.1995883 L52.4526696,14.6950965 C52.2192027,15.0985883 51.7884307,15.346647 51.3221311,15.3447437 Z" id="Shape" fill="#4891D3"></path>
                                <g id="Group" transform="translate(5.197178, 5.197178)" fill="#2D72BC">
                                    <path d="M45.2545275,7.71773291 C46.0209082,8.13391317 46.7619121,8.57547027 47.4889588,9.01702737 L49.8280693,4.96307648 C49.1003883,4.49550815 48.3600189,4.06663931 47.5803154,3.66378202" id="Shape"></path>
                                    <path d="M31.183067,0.0386996479 L31.183067,3.93658302 C32.0534928,3.93658302 32.9239186,4.04062809 33.7816559,4.14467315 L33.7816559,0.0260112254 L32.4823615,0.0260112254 C32.0408044,-2.25514052e-15 31.6119357,0.0260112254 31.183067,0.0386996479 Z" id="Shape"></path>
                                    <path d="M33.7816559,64.8866891 L33.7816559,59.6895113 C33.789269,59.607671 33.789269,59.5245618 33.7816559,59.4427215 C32.989264,59.3386764 32.1962375,59.2219429 31.4171684,59.0658754 C31.3042415,59.2549328 31.2420681,59.4693671 31.2350895,59.6895113 L31.2350895,64.8866891 L32.5343839,64.8866891 L33.7816559,64.8866891 Z" id="Shape"></path>
                                    <path d="M5.82081384,33.599577 C5.66474616,32.8205079 5.53532425,32.0274816 5.44396761,31.2217667 C5.36212733,31.214788 5.27901812,31.214788 5.19717783,31.2217667 L0,31.2217667 L0,32.5210611 L0,33.8203556 L5.19717783,33.8203556 C5.42049407,33.8019574 5.63556287,33.7258269 5.82081384,33.599577 Z" id="Shape"></path>
                                    <path d="M62.2494005,33.7816559 L64.9647229,33.7816559 C64.9647229,33.3400988 64.9647229,32.9112301 64.9647229,32.4823615 C64.9647229,32.0534928 64.9647229,31.6119357 64.9647229,31.183067 L61.9505881,31.183067 C62.08001,32.0274816 62.1840551,32.8979073 62.2494005,33.7816559 Z" id="Shape"></path>
                                    <path d="M15.994391,4.49550815 L15.8643347,4.57354183 L15.1366536,5.0284219 L16.2284923,6.91201817 C17.0075614,6.54849474 17.8132764,6.1976599 18.6316795,5.89884751 L17.3323851,3.72912744 C16.890828,3.97591721 16.4492709,4.22270699 15.994391,4.49550815 Z" id="Shape"></path>
                                    <path d="M48.3206847,60.8327382 L48.5674745,60.6899935 C48.9963434,60.455892 49.4118891,60.1964138 49.866769,59.936301 L48.6715197,57.857303 C47.8397936,58.1567498 46.9953791,58.429551 46.0729308,58.6503295 L47.554304,61.2489185 L48.3206847,60.8327382 Z" id="Shape"></path>
                                    <path d="M9.97880979,45.475306 C9.80688163,45.1745905 9.52266096,44.9544463 9.18832115,44.8643585 C8.85461556,44.7742707 8.49807097,44.8212178 8.1986242,44.9944148 L3.72912744,47.5930037 C4.13198473,48.3600189 4.56085341,49.1130768 5.0284219,49.8407577 L9.49791866,47.2421688 C10.1164791,46.8856242 10.3309136,46.0964044 9.97880979,45.475306 Z" id="Shape"></path>
                                    <path d="M57.6238361,19.411383 L61.2355955,17.3196966 C60.8327382,16.5533159 60.4045039,15.7996236 59.936301,15.0719426 L56.1684741,17.2543512 C56.6753766,18.0080435 57.1689562,18.7230362 57.6238361,19.411383 Z" id="Shape"></path>
                                    <path d="M4.21001857,16.4752821 L4.13198473,16.6307154 C3.98860564,16.8781395 3.85918373,17.1249293 3.72912744,17.3844075 L6.32771635,18.8657809 C6.56118333,18.0080435 6.82129591,17.1509405 7.1201083,16.267192 L5.19717783,15.2406987 C4.88567702,15.643556 4.5475306,16.0591018 4.21001857,16.4752821 Z" id="Shape"></path>
                                    <path d="M59.9236128,49.8147465 C60.3911811,49.0870655 60.8200498,48.3466961 61.2229072,47.5669924 L60.5079146,47.1641352 C60.222425,47.9958611 59.8976014,48.801576 59.5334437,49.593968 L59.9236128,49.8147465 Z" id="Shape"></path>
                                    <path d="M19.4894169,54.9859131 C19.1912389,54.8114473 18.8365976,54.7625969 18.5022576,54.8507813 C18.1685522,54.9383315 17.8830626,55.1553034 17.7092311,55.4541158 L15.1106422,59.936301 C15.8383233,60.3911811 16.5793271,60.8327382 17.3583963,61.2355955 L19.9569852,56.7534103 C20.312261,56.1354842 20.1035365,55.3475331 19.4894169,54.9859131 Z" id="Shape"></path>
                                    <path d="M47.5803154,3.71580447 L45.2545275,7.7570671" id="Shape"></path>
                                </g>
                                <path d="M37.6795393,-1.1120865e-15 C26.4008007,-0.0139572647 15.7120736,5.03730371 8.56214747,13.7593253 C15.2977965,8.21067825 23.7558989,5.18322049 32.4823615,5.19717783 C33.3921213,5.19717783 34.2752355,5.19717783 35.1716726,5.3012229 C36.068744,5.40526796 36.8351247,5.19717783 37.6795393,5.19717783 C55.6190653,5.19717783 70.1619008,19.7400133 70.1619008,37.6795393 C70.1619008,38.5239538 70.1619008,39.3556798 70.0578557,40.187406 C69.9538106,41.0184977 70.1619008,41.9669573 70.1619008,42.8767171 C70.1783956,51.5993731 67.1503036,60.0549378 61.5997533,66.7836083 C73.8865872,56.680452 78.505173,39.9501325 73.1411423,24.9739874 C67.7777461,9.99847689 53.5870144,0.00444095598 37.6795393,-1.1120865e-15 Z" id="Shape" fill="#C6D7E0"></path>
                                <path d="M38.9788338,37.6795393 C38.9788338,38.3970696 38.3970696,38.9788338 37.6795393,38.9788338 C36.962009,38.9788338 36.3802448,38.3970696 36.3802448,37.6795393 C36.3802448,36.962009 36.962009,36.3802448 37.6795393,36.3802448 C38.3970696,36.3802448 38.9788338,36.962009 38.9788338,37.6795393 Z" id="Shape" fill="#7AB92D"></path>
                            </g>
                        </g>
                    </g>
                </g>
            </g>
        </g>
    </g>
</svg>