<?xml version="1.0" encoding="UTF-8"?>
<svg width="75px" height="75px" viewBox="0 0 75 75" version="1.1" xmlns="http://www.w3.org/2000/svg" xmlns:xlink="http://www.w3.org/1999/xlink">
    <!-- Generator: Sketch 51.3 (57544) - http://www.bohemiancoding.com/sketch -->
    <title>debit-card</title>
    <desc>Created with Sketch.</desc>
    <defs></defs>
    <g id="Page-1" stroke="none" stroke-width="1" fill="none" fill-rule="evenodd">
        <g id="1_hotels-Home" transform="translate(-1001.000000, -1350.000000)" fill-rule="nonzero">
            <g id="almatar-features" transform="translate(0.000000, 1184.000000)">
                <g id="Group-13" transform="translate(333.000000, 80.000000)">
                    <g id="Group-14" transform="translate(638.000000, 86.000000)">
                        <g id="debit-card" transform="translate(30.000000, 0.000000)">
                            <path d="M70.4296202,21.5712695 L56.9196429,8.03571429 L56.9196429,62.2767857 L75,62.2767857 L75,32.5614327 C75,28.4354261 73.3546238,24.4799361 70.4296202,21.5712695 Z" id="Shape" fill="#E7A42D"></path>
                            <path d="M10.490711,52.2601684 L0.344253026,25.6678506 C-0.674124473,22.9984071 0.643284911,19.9998065 3.28890595,18.9711908 L51.1801486,0.347546417 C53.8242967,-0.6805736 56.7944827,0.649438889 57.8128603,3.32036961 L67.9593183,29.9126872 C68.977696,32.5821309 67.6602866,35.5807315 65.0146654,36.609347 L17.1248959,55.2329916 C14.4792747,56.2611114 11.5105616,54.9296119 10.490711,52.2601684 Z" id="Shape" fill="#DE4C3C"></path>
                            <polygon id="Shape" fill="#7A4930" points="61.77656 12.7232143 4.01785714 34.9531012 7.86382766 44.8660714 65.625 22.6464827"></polygon>
                            <path d="M0,33.6606483 L0,5.1786375 C0,2.31879291 2.32379768,0 5.18981486,0 L57.0869708,0 C59.952988,0 62.2767857,2.31879291 62.2767857,5.1786375 L62.2767857,33.6606483 C62.2767857,36.5204928 59.952988,38.8392857 57.0869708,38.8392857 L5.18981486,38.8392857 C2.32379768,38.8392857 0,36.5204928 0,33.6606483 Z" id="Shape" fill="#4398D1"></path>
                            <path d="M57.0946481,0 L51.5887507,0 L12.7232143,38.8392857 L57.0946481,38.8392857 C59.9564256,38.8392857 62.2767857,36.5204928 62.2767857,33.6606483 L62.2767857,5.1786375 C62.2767857,2.31879291 59.9564256,0 57.0946481,0 Z" id="Shape" fill="#3E8CC7"></path>
                            <polygon id="Shape" fill="#5EB3D1" points="5.35714286 20.7589286 10.7142857 20.7589286 10.7142857 23.4375 5.35714286 23.4375"></polygon>
                            <polygon id="Shape" fill="#5EB3D1" points="5.35714286 28.125 10.7142857 28.125 10.7142857 30.8035714 5.35714286 30.8035714"></polygon>
                            <polygon id="Shape" fill="#5EB3D1" points="28.125 28.125 33.4821429 28.125 33.4821429 30.8035714 28.125 30.8035714"></polygon>
                            <polygon id="Shape" fill="#5EB3D1" points="12.7232143 20.7589286 18.0803571 20.7589286 18.0803571 23.4375 12.7232143 23.4375"></polygon>
                            <polygon id="Shape" fill="#5EB3D1" points="20.7589286 20.7589286 26.1160714 20.7589286 26.1160714 23.4375 20.7589286 23.4375"></polygon>
                            <polygon id="Shape" fill="#5EB3D1" points="28.125 20.7589286 33.4821429 20.7589286 33.4821429 23.4375 28.125 23.4375"></polygon>
                            <polygon id="Shape" fill="#5EB3D1" points="52.9017857 5.35714286 55.5803571 5.35714286 55.5803571 9.375 52.9017857 9.375"></polygon>
                            <polygon id="Shape" fill="#5EB3D1" points="47.5446429 5.35714286 50.2232143 5.35714286 50.2232143 9.375 47.5446429 9.375"></polygon>
                            <polygon id="Shape" fill="#5EB3D1" points="42.8571429 5.35714286 45.5357143 5.35714286 45.5357143 9.375 42.8571429 9.375"></polygon>
                            <polygon id="Shape" fill="#5EB3D1" points="37.5 5.35714286 40.1785714 5.35714286 40.1785714 9.375 37.5 9.375"></polygon>
                            <polygon id="Shape" fill="#C6D7E0" points="51.5625 62.2767857 75 62.2767857 75 75 51.5625 75"></polygon>
                            <path d="M47.7213664,23.7263615 C45.5305186,21.5499252 41.9852207,21.5563322 39.802282,23.7406542 C37.6915147,25.8525268 37.6183546,29.2458159 39.6356944,31.4468948 L50.220673,42.9599275 C47.0391982,48.5114173 47.1751375,55.3571376 50.5731267,60.7790072 L51.512344,62.2767857 L68.3035714,62.2767857 L68.3035714,44.247751 L47.7213664,23.7263615 Z" id="Shape" fill="#F8C923"></path>
                            <polygon id="Shape" fill="#6B962A" points="55.5803571 65.625 58.2589286 65.625 58.2589286 68.3035714 55.5803571 68.3035714"></polygon>
                            <path d="M5.35714286,13.3927611 L5.35714286,7.36616762 C5.35714286,6.25618263 6.25622564,5.35714286 7.36626361,5.35714286 L13.3931455,5.35714286 C14.5031836,5.35714286 15.4017857,6.25618263 15.4017857,7.36616762 L15.4017857,13.3927611 C15.4017857,14.5027459 14.5031836,15.4017857 13.3931455,15.4017857 L7.36626361,15.4017857 C6.25622564,15.4017857 5.35714286,14.5027459 5.35714286,13.3927611 Z" id="Shape" fill="#FDB62F"></path>
                            <polygon id="Shape" fill="#FD7B2F" points="5.35714286 9.375 9.375 9.375 9.375 12.0535714 5.35714286 12.0535714"></polygon>
                            <polygon id="Shape" fill="#FD7B2F" points="11.3839286 9.375 15.4017857 9.375 15.4017857 12.0535714 11.3839286 12.0535714"></polygon>
                            <path d="M67.6314707,44.1964286 C67.2760353,44.1964286 66.9339542,44.0551875 66.6827866,43.8030081 L61.3142715,38.4348228 C60.7990954,37.9022159 60.8139908,37.0527154 61.3481714,36.5370573 C61.8689976,36.0352666 62.6928684,36.0352666 63.2121536,36.5370573 L68.5806686,41.9052426 C69.1040629,42.4301456 69.1040629,43.279646 68.5806686,43.8030081 C68.3279602,44.0551875 67.98742,44.1964286 67.6314707,44.1964286 Z" id="Shape" fill="#F8C923"></path>
                        </g>
                    </g>
                </g>
            </g>
        </g>
    </g>
</svg>