<svg xmlns="http://www.w3.org/2000/svg" xmlns:xlink="http://www.w3.org/1999/xlink" width="396" height="239" viewBox="0 0 396 239">
    <defs>
        <path id="a" d="M4 0h368a4 4 0 0 1 4 4v211a4 4 0 0 1-4 4H4a4 4 0 0 1-4-4V4a4 4 0 0 1 4-4z"/>
        <filter id="b" width="108.5%" height="114.6%" x="-4.3%" y="-6.4%" filterUnits="objectBoundingBox">
            <feOffset dy="2" in="SourceAlpha" result="shadowOffsetOuter1"/>
            <feGaussianBlur in="shadowOffsetOuter1" result="shadowBlurOuter1" stdDeviation="5"/>
            <feColorMatrix in="shadowBlurOuter1" values="0 0 0 0 0 0 0 0 0 0 0 0 0 0 0 0 0 0 0.0700294384 0"/>
        </filter>
    </defs>
    <g fill="none" fill-rule="evenodd" transform="translate(10 8)">
        <mask id="c" fill="#fff">
            <use xlink:href="#a"/>
        </mask>
        <use fill="#000" filter="url(#b)" xlink:href="#a"/>
        <use fill="#3491E7" xlink:href="#a"/>
        <g mask="url(#c)" opacity=".3" style="mix-blend-mode:luminosity">
            <g fill-rule="nonzero">
                <path fill="#707487" d="M136 127l-5.065-2.688c-1.186-.629-1.935-1.915-1.935-3.322v-13.98c0-1.407.749-2.693 1.935-3.322L136 101v26z"/>
                <path fill="#E6AF78" d="M220 170.2V145h-65v25.2l32.5 28.8z"/>
                <path fill="#B4E1FA" d="M269.911 184.12l-44.5-10.368a7.183 7.183 0 0 1-1.868-.745l-36.043 20.82L152.864 172a7.187 7.187 0 0 1-3.274 1.752l-44.5 10.369C98.592 185.635 94 191.377 94 197.987v27.89c0 3.935 3.22 7.123 7.192 7.123h172.616c3.972 0 7.192-3.189 7.192-7.122v-27.891c0-6.61-4.591-12.353-11.089-13.867z"/>
                <path fill="#D29B6E" d="M155 145v27.422c40.941 15.167 65-22.791 65-22.791V145h-65z"/>
                <path fill="#F0C087" d="M141 62l3.117 68.469a21.419 21.419 0 0 0 8.562 16.17l14.79 11.075A21.486 21.486 0 0 0 180.346 162h14.308c4.644 0 9.162-1.504 12.877-4.286l14.79-11.075a21.419 21.419 0 0 0 8.562-16.17L234 62h-93z"/>
                <path fill="#E6AF78" d="M176.943 76.286c14.377 0 35.942-3.571 41.057-14.286h-77l3.132 68.469a21.389 21.389 0 0 0 8.604 16.17l14.861 11.075a21.659 21.659 0 0 0 12.94 4.286h7.188c-7.188 0-21.565-14.286-21.565-32.143V87c0-3.571 3.594-10.714 10.783-10.714z"/>
                <g fill="#A0D2F0">
                    <path d="M120.546 208.626l-23.253-21.487a15.008 15.008 0 0 0-3.09 9.15V225.2c0 4.078 3.213 7.383 7.176 7.383h25.12v-10.227c-.001-5.238-2.165-10.23-5.953-13.73zM254.456 208.626l23.253-21.487a15.008 15.008 0 0 1 3.09 9.15V225.2c0 4.078-3.213 7.383-7.176 7.383h-25.12v-10.227c0-5.238 2.165-10.23 5.953-13.73z"/>
                </g>
                <path fill="#5B5D6E" d="M197 233h-19l2.375-32h14.25z"/>
                <path fill="#515262" d="M197 193h-19v6.9c0 2.265 1.902 4.1 4.248 4.1h10.503c2.347 0 4.249-1.835 4.249-4.1V193z"/>
                <g fill="#A0D2F0">
                    <path d="M154.151 162.94l32.35 29.823s-9.06 4.685-20.24 14.128a4.488 4.488 0 0 1-7.031-1.629l-15.199-34.25 4.808-7.388c1.197-1.84 3.708-2.163 5.312-.685z"/>
                    <path d="M218.85 162.94l-32.35 29.823s9.06 4.685 20.24 14.128a4.488 4.488 0 0 0 7.032-1.629l15.199-34.25-4.808-7.388c-1.197-1.84-3.709-2.163-5.312-.685z"/>
                </g>
                <path fill="#785550" d="M209 38.21l3.318 23.56c15.147 3.043 17.33 26.926 17.644 33.748a7.036 7.036 0 0 0 1.119 3.475L236.86 108s-1.978-14.892 7.078-24.894c0 0 3.11-59.122-34.938-44.897z"/>
                <path fill="#694B4B" d="M143.331 33.267l5.233 3.62c-23.658 17.69-19.237 48.033-19.237 48.033 7.076 7.165 7.076 25.08 7.076 25.08l7.075-7.166s-2.73-20.7 10.613-28.663c12.382-7.39 23.216-3.582 34.272-3.582 29.628 0 37.92-11.31 36.482-25.08-.744-7.127-11.501-21.97-38.914-21.498-11.063.19-31.84 3.583-42.6 9.256z"/>
                <path fill="#5A4146" d="M141.247 66.1s-3.753-14.774 7.284-30.1c-23.619 17.421-19.204 47.302-19.204 47.302C136.39 90.358 136.39 108 136.39 108l7.064-7.057s-2.726-20.384 10.595-28.226c12.362-7.277 23.178-3.528 34.215-3.528 4.81 0 9.002-.322 12.736-.874-22.779.763-36.207-16.475-59.753-2.214z"/>
                <path fill="#5B5D6E" d="M142.167 127h-5.5c-2.025 0-3.667-1.592-3.667-3.556V98.556c0-1.964 1.642-3.556 3.667-3.556h5.5c1.012 0 1.833.796 1.833 1.778v28.444c0 .982-.821 1.778-1.833 1.778z"/>
                <path fill="#464655" d="M201 148v-5.333c24.296 0 29.615-13.475 29.615-18.667H236c0 6.676-6.288 24-35 24z"/>
                <path fill="#5B5D6E" d="M201.333 149h-3.666c-2.025 0-3.667-1.567-3.667-3.5s1.642-3.5 3.667-3.5h3.666c2.025 0 3.667 1.567 3.667 3.5s-1.642 3.5-3.667 3.5z"/>
                <path fill="#707487" d="M238 127l5.065-2.688c1.186-.629 1.935-1.915 1.935-3.322v-13.98c0-1.407-.749-2.693-1.935-3.322L238 101v26z"/>
                <path fill="#5B5D6E" d="M232.833 127h5.5c2.025 0 3.667-1.592 3.667-3.556V98.556c0-1.964-1.642-3.556-3.667-3.556h-5.5c-1.012 0-1.833.796-1.833 1.778v28.444c0 .982.821 1.778 1.833 1.778z"/>
                <path fill="#A0D2F0" d="M234.444 225h-24.888c-1.964 0-3.556 1.567-3.556 3.5v3.5h32v-3.5c0-1.933-1.592-3.5-3.556-3.5z"/>
            </g>
        </g>
    </g>
</svg>
