<?xml version="1.0" encoding="UTF-8"?>
<svg width="83px" height="82px" viewBox="0 0 83 82" version="1.1" xmlns="http://www.w3.org/2000/svg" xmlns:xlink="http://www.w3.org/1999/xlink">
    <!-- Generator: Sketch 51.3 (57544) - http://www.bohemiancoding.com/sketch -->
    <title>Group 11</title>
    <desc>Created with Sketch.</desc>
    <defs></defs>
    <g id="Page-1" stroke="none" stroke-width="1" fill="none" fill-rule="evenodd">
        <g id="1_hotels-Home" transform="translate(-560.000000, -1346.000000)">
            <g id="almatar-features" transform="translate(0.000000, 1184.000000)">
                <g id="Group-13" transform="translate(333.000000, 80.000000)">
                    <g id="Group-5" transform="translate(190.000000, 82.000000)">
                        <g id="Group-16" transform="translate(0.333333, 0.000000)">
                            <g id="Group-11" transform="translate(37.000000, 0.000000)">
                                <path d="M29.8375233,27.2243681 L29.8375233,22.5246752 C29.8375233,18.1715995 26.3076155,14.6428571 21.9531021,14.6428571 L21.794142,14.6428571 C17.4396286,14.6428571 13.9107143,18.1715995 13.9107143,22.5246752 L13.9107143,81.2678571 L68.0892857,81.2678571 L68.0892857,22.5246752 C68.0892857,18.1715995 64.5593779,14.6428571 60.2048645,14.6428571 L60.0459044,14.6428571 C55.691391,14.6428571 52.1614832,18.1715995 52.1614832,22.5246752 L52.1614832,27.2243681 L29.8375233,27.2243681" id="Fill-34" fill="#CADAE3"></path>
                                <path d="M25.6239639,21.9642857 L25.625,21.9459821 C25.625,20.3389286 24.1496631,19.0357143 22.3313932,19.0357143 C20.5110512,19.0357143 19.0357143,20.3389286 19.0357143,21.9459821 L19.0367503,21.9642857 L25.6239639,21.9642857" id="Fill-35" fill="#FFFFFE"></path>
                                <path d="M19.0357143,21.9642857 C19.2667473,20.7178023 20.3285159,19.7678571 21.599689,19.7678571 C22.8679126,19.7678571 23.9277151,20.7147346 24.1607143,21.9642857 L19.0357143,21.9642857" id="Fill-36" fill="#B5C6D3"></path>
                                <polygon id="Fill-37" fill="#FFFFFE" points="19.0357143 29.2857143 25.625 29.2857143 25.625 22.6964286 19.0357143 22.6964286"></polygon>
                                <polygon id="Fill-38" fill="#B5C6D3" points="19.0357143 28.5535714 24.1607143 28.5535714 24.1607143 22.6964286 19.0357143 22.6964286"></polygon>
                                <polygon id="Fill-39" fill="#FFFFFE" points="21.9642857 28.5535714 22.4101607 28.5535714 22.4101607 19.7678571 21.9642857 19.7678571"></polygon>
                                <polygon id="Fill-40" fill="#FFFFFE" points="19.0357143 25.2647857 24.8928571 25.2647857 24.8928571 24.8928571 19.0357143 24.8928571"></polygon>
                                <path d="M56.3760359,21.9642857 L56.375,21.9459821 C56.375,20.3389286 57.850105,19.0357143 59.6691249,19.0357143 C61.4891807,19.0357143 62.9642857,20.3389286 62.9642857,21.9459821 L62.9632498,21.9642857 L56.3760359,21.9642857" id="Fill-41" fill="#FFFFFE"></path>
                                <path d="M62.2321429,21.9642857 C62.002093,20.7178023 60.9403243,19.7678571 59.6691513,19.7678571 C58.4009276,19.7678571 57.3411252,20.7147346 57.1071429,21.9642857 L62.2321429,21.9642857" id="Fill-42" fill="#B5C6D3"></path>
                                <polygon id="Fill-43" fill="#FFFFFE" points="56.375 29.2857143 62.9642857 29.2857143 62.9642857 22.6964286 56.375 22.6964286"></polygon>
                                <polygon id="Fill-44" fill="#B5C6D3" points="57.1071429 28.5535714 62.2321429 28.5535714 62.2321429 22.6964286 57.1071429 22.6964286"></polygon>
                                <polygon id="Fill-45" fill="#FFFFFE" points="59.3035714 28.5535714 59.7494464 28.5535714 59.7494464 19.7678571 59.3035714 19.7678571"></polygon>
                                <polygon id="Fill-46" fill="#FFFFFE" points="57.1071429 25.2647857 62.9642857 25.2647857 62.9642857 24.8928571 57.1071429 24.8928571"></polygon>
                                <path d="M14.5001184,21.9642857 C14.7496684,18.2256589 17.7986453,15.2597545 21.5205333,15.2597545 L21.6758952,15.2597545 C25.3977833,15.2597545 28.4477311,18.2256589 28.6972812,21.9642857 L30.0178571,21.9642857 C29.7663651,17.481703 26.1260421,13.9107143 21.6758952,13.9107143 L21.5205333,13.9107143 C17.0694155,13.9107143 13.4300635,17.481703 13.1785714,21.9642857 L14.5001184,21.9642857" id="Fill-47" fill="#B5C6D3"></path>
                                <path d="M66.7687097,21.9642857 C66.5191597,18.2256589 63.4692118,15.2597545 59.7473238,15.2597545 L59.5919619,15.2597545 C55.8691029,15.2597545 52.821097,18.2256589 52.571547,21.9642857 L51.25,21.9642857 C51.501492,17.481703 55.1418151,13.9107143 59.5919619,13.9107143 L59.7473238,13.9107143 C64.1984416,13.9107143 67.8377937,17.481703 68.0892857,21.9642857 L66.7687097,21.9642857" id="Fill-48" fill="#B5C6D3"></path>
                                <polygon id="Fill-49" fill="#B5C6D3" points="13.9107143 69.5535714 68.8214286 69.5535714 68.8214286 68.0892857 13.9107143 68.0892857"></polygon>
                                <polygon id="Fill-50" fill="#B5C6D3" points="13.9107143 34.4107143 68.8214286 34.4107143 68.8214286 32.9464286 13.9107143 32.9464286"></polygon>
                                <polygon id="Fill-51" fill="#B5C6D3" points="13.9107143 81.2678571 68.8214286 81.2678571 68.8214286 79.0714286 13.9107143 79.0714286"></polygon>
                                <polygon id="Fill-52" fill="#FFFFFE" points="33.6785714 80.5357143 41 80.5357143 41 71.0178571 33.6785714 71.0178571"></polygon>
                                <polygon id="Fill-53" fill="#B5C6D3" points="34.4107143 79.8035714 40.2678571 79.8035714 40.2678571 71.0178571 34.4107143 71.0178571"></polygon>
                                <polygon id="Fill-54" fill="#FFFFFE" points="37.3392857 79.8035714 37.5486786 79.8035714 37.5486786 71.0178571 37.3392857 71.0178571"></polygon>
                                <polygon id="Fill-55" fill="#FFFFFE" points="40.2678571 80.5357143 47.5892857 80.5357143 47.5892857 71.0178571 40.2678571 71.0178571"></polygon>
                                <polygon id="Fill-56" fill="#B5C6D3" points="40.2678571 79.8035714 46.125 79.8035714 46.125 71.0178571 40.2678571 71.0178571"></polygon>
                                <polygon id="Fill-57" fill="#FFFFFE" points="43.1964286 79.8035714 43.4058214 79.8035714 43.4058214 71.0178571 43.1964286 71.0178571"></polygon>
                                <polygon id="Fill-58" fill="#B5C6D3" points="16.8392857 43.9285714 21.9642857 43.9285714 21.9642857 36.6071429 16.8392857 36.6071429"></polygon>
                                <polygon id="Fill-59" fill="#FFFFFE" points="16.8392857 43.1964286 20.5 43.1964286 20.5 36.6071429 16.8392857 36.6071429"></polygon>
                                <polygon id="Fill-60" fill="#B5C6D3" points="16.8392857 39.2106429 21.2321429 39.2106429 21.2321429 38.8035714 16.8392857 38.8035714"></polygon>
                                <polygon id="Fill-61" fill="#B5C6D3" points="16.1071429 43.6035 21.9642857 43.6035 21.9642857 43.1964286 16.1071429 43.1964286"></polygon>
                                <polygon id="Fill-62" fill="#B5C6D3" points="24.8928571 43.9285714 30.0178571 43.9285714 30.0178571 36.6071429 24.8928571 36.6071429"></polygon>
                                <polygon id="Fill-63" fill="#FFFFFE" points="25.625 43.1964286 29.2857143 43.1964286 29.2857143 36.6071429 25.625 36.6071429"></polygon>
                                <polygon id="Fill-64" fill="#B5C6D3" points="24.8928571 39.2106429 29.2857143 39.2106429 29.2857143 38.8035714 24.8928571 38.8035714"></polygon>
                                <polygon id="Fill-65" fill="#B5C6D3" points="24.8928571 43.6035 30.75 43.6035 30.75 43.1964286 24.8928571 43.1964286"></polygon>
                                <polygon id="Fill-66" fill="#B5C6D3" points="33.6785714 43.9285714 38.8035714 43.9285714 38.8035714 36.6071429 33.6785714 36.6071429"></polygon>
                                <polygon id="Fill-67" fill="#FFFFFE" points="34.4107143 43.1964286 38.0714286 43.1964286 38.0714286 36.6071429 34.4107143 36.6071429"></polygon>
                                <polygon id="Fill-68" fill="#B5C6D3" points="33.6785714 39.2106429 38.0714286 39.2106429 38.0714286 38.8035714 33.6785714 38.8035714"></polygon>
                                <polygon id="Fill-69" fill="#B5C6D3" points="33.6785714 43.6035 39.5357143 43.6035 39.5357143 43.1964286 33.6785714 43.1964286"></polygon>
                                <polygon id="Fill-70" fill="#B5C6D3" points="41.7321429 43.9285714 46.8571429 43.9285714 46.8571429 36.6071429 41.7321429 36.6071429"></polygon>
                                <polygon id="Fill-71" fill="#FFFFFE" points="42.4642857 43.1964286 46.125 43.1964286 46.125 36.6071429 42.4642857 36.6071429"></polygon>
                                <polygon id="Fill-72" fill="#B5C6D3" points="41.7321429 39.2106429 46.125 39.2106429 46.125 38.8035714 41.7321429 38.8035714"></polygon>
                                <polygon id="Fill-73" fill="#B5C6D3" points="41.7321429 43.6035 47.5892857 43.6035 47.5892857 43.1964286 41.7321429 43.1964286"></polygon>
                                <polygon id="Fill-74" fill="#B5C6D3" points="49.0535714 43.9285714 54.1785714 43.9285714 54.1785714 36.6071429 49.0535714 36.6071429"></polygon>
                                <polygon id="Fill-75" fill="#FFFFFE" points="50.5178571 43.1964286 54.1785714 43.1964286 54.1785714 36.6071429 50.5178571 36.6071429"></polygon>
                                <polygon id="Fill-76" fill="#B5C6D3" points="50.5178571 39.2106429 54.9107143 39.2106429 54.9107143 38.8035714 50.5178571 38.8035714"></polygon>
                                <polygon id="Fill-77" fill="#B5C6D3" points="49.0535714 43.6035 54.9107143 43.6035 54.9107143 43.1964286 49.0535714 43.1964286"></polygon>
                                <polygon id="Fill-78" fill="#B5C6D3" points="58.5714286 43.9285714 63.6964286 43.9285714 63.6964286 36.6071429 58.5714286 36.6071429"></polygon>
                                <polygon id="Fill-79" fill="#FFFFFE" points="59.3035714 43.1964286 62.9642857 43.1964286 62.9642857 36.6071429 59.3035714 36.6071429"></polygon>
                                <polygon id="Fill-80" fill="#B5C6D3" points="58.5714286 39.2106429 62.9642857 39.2106429 62.9642857 38.8035714 58.5714286 38.8035714"></polygon>
                                <polygon id="Fill-81" fill="#B5C6D3" points="58.5714286 43.6035 64.4285714 43.6035 64.4285714 43.1964286 58.5714286 43.1964286"></polygon>
                                <polygon id="Fill-82" fill="#FFFFFE" points="16.8392857 78.3392857 30.75 78.3392857 30.75 71.0178571 16.8392857 71.0178571"></polygon>
                                <polygon id="Fill-83" fill="#E5EDF2" points="16.8392857 77.6071429 29.2857143 77.6071429 29.2857143 71.0178571 16.8392857 71.0178571"></polygon>
                                <polygon id="Fill-84" fill="#EEEEEA" points="16.1071429 78.7463571 30.75 78.7463571 30.75 78.3392857 16.1071429 78.3392857"></polygon>
                                <polygon id="Fill-85" fill="#FFFFFE" points="51.25 78.3392857 65.1607143 78.3392857 65.1607143 71.0178571 51.25 71.0178571"></polygon>
                                <polygon id="Fill-86" fill="#E5EDF2" points="51.25 77.6071429 63.6964286 77.6071429 63.6964286 71.0178571 51.25 71.0178571"></polygon>
                                <polygon id="Fill-87" fill="#EEEEEA" points="50.5178571 78.7463571 65.1607143 78.7463571 65.1607143 78.3392857 50.5178571 78.3392857"></polygon>
                                <path d="M31.2488333,66.1403821 L49.2878571,66.1403821 L49.2878571,61.3416219 C46.5369524,59.8450916 43.4219286,59.0550981 40.2678571,59.0550981 C37.1137857,59.0550981 33.9997381,59.8450916 31.2488333,61.3416219 L31.2488333,66.1403821 M49.7857143,66.625 L30.75,66.625 L30.75,61.0599556 L30.8759286,60.9907245 C33.7322619,59.4078923 36.9790714,58.5714286 40.2678571,58.5714286 C43.5566429,58.5714286 46.8034524,59.4078923 49.6588095,60.9907245 L49.7857143,61.0599556 L49.7857143,66.625" id="Fill-88" fill="#B5C6D3"></path>
                                <path d="M33.8737025,65.8886779 C33.563694,65.8897227 33.2555199,65.8907675 32.9464286,65.8928571 C32.9464286,64.3099867 32.9464286,62.7281612 32.9464286,61.1452908 C33.2426793,61.0011085 33.5407644,60.8652846 33.841601,60.7378192 C33.846187,61.4733576 33.8507729,62.2099409 33.8553588,62.9444345 C34.2020547,62.8618954 34.5496678,62.7845803 34.8981981,62.7145788 C34.8908606,61.9226212 34.8835231,61.1296188 34.8752684,60.3376612 C35.1861941,60.2290021 35.4989542,60.1276566 35.8135486,60.0357143 C35.8337267,61.9842643 35.8548219,63.9317695 35.875,65.8803196 C35.5594884,65.8813644 35.244894,65.8824092 34.9293824,65.883454 C34.9220449,65.0914964 34.9137902,64.2995388 34.9055355,63.5065364 C34.5560881,63.5598211 34.2075578,63.6183299 33.8599447,63.6810178 C33.8654479,64.4165562 33.8691166,65.1520947 33.8737025,65.8886779" id="Fill-89" fill="#FFFFFE"></path>
                                <path d="M37.5934207,63.8026574 C37.5971739,64.2036403 37.7895246,64.3511717 38.091656,64.3454974 C38.3956639,64.3398231 38.5842614,64.1799974 38.5805082,63.767666 C38.5730018,62.728326 38.5645572,61.6899318 38.5570508,60.6515375 C38.5532976,60.2392061 38.3600086,60.1020775 38.0541241,60.1417975 C37.7473013,60.1815175 37.5577655,60.3649861 37.5615187,60.7659689 C37.5727782,61.7778832 37.5821612,62.7897974 37.5934207,63.8026574 M36.6072716,60.9674061 C36.5978886,60.1077518 37.1017536,59.4769604 38.0466177,59.3265918 C38.9914819,59.1856804 39.5159894,59.7001489 39.5197426,60.6373518 C39.5244341,61.6530489 39.5300638,62.6696917 39.5356936,63.6863346 C39.5394468,64.6263745 39.0318286,65.1635402 38.0991623,65.1607031 C37.1674343,65.1550288 36.6513715,64.6566374 36.6401119,63.7932003 C36.6297907,62.8512689 36.6185311,61.9093375 36.6072716,60.9674061" id="Fill-90" fill="#FFFFFE"></path>
                                <path d="M39.5357143,59.3345554 C40.5119048,59.2793267 41.4899285,59.2980483 42.4642857,59.3897841 C42.4624525,59.6649915 42.4606193,59.9392628 42.458786,60.2144701 C42.1297228,60.1882599 41.8015761,60.1686022 41.4725129,60.1564332 C41.4670132,61.8245269 41.4624301,63.4926206 41.4578471,65.1607143 C41.1480326,65.1607143 40.8382182,65.1607143 40.5284038,65.1607143 C40.5284038,63.4879402 40.5274871,61.81423 40.5265705,60.1405199 C40.1975073,60.142392 39.868444,60.1517528 39.5393807,60.1676662 C39.5384641,59.8905866 39.5375475,59.612571 39.5357143,59.3345554" id="Fill-91" fill="#FFFFFE"></path>
                                <path d="M44.2798965,61.8491574 C44.7631625,61.8912332 45.2443589,61.9428717 45.7234856,62.0031166 C45.7193463,62.2622653 45.7162418,62.5223703 45.7141721,62.7824752 C45.2340106,62.7365743 44.7528142,62.6983236 44.2716179,62.6658105 C44.2654089,63.2242711 44.2591999,63.7817755 44.2529909,64.3402362 C44.8573322,64.3545802 45.4606386,64.3727493 46.0649798,64.3937872 C46.0618753,64.6491108 46.0567012,64.9053907 46.0546315,65.1607143 C45.1025871,65.1588017 44.1495078,65.1568892 43.1964286,65.1559329 C43.2129859,63.2051458 43.2285083,61.2543586 43.2440308,59.3035714 C44.2115977,59.4049359 45.1739904,59.5665452 46.125,59.7855306 C46.1208607,60.0418105 46.1177562,60.2980904 46.1146517,60.553414 C45.5123801,60.4338805 44.9059692,60.3353848 44.2964538,60.2560146 C44.2912797,60.7876997 44.2861055,61.3184286 44.2798965,61.8491574" id="Fill-92" fill="#FFFFFE"></path>
                                <path d="M46.1950144,60.0357143 C46.5614961,60.1238339 46.9257898,60.2203905 47.2878956,60.3244467 C47.2714859,61.7043625 47.2561703,63.0842784 47.2397607,64.4641943 C47.8458229,64.4904427 48.4507911,64.5195034 49.0535714,64.5523139 C49.0535714,64.7548015 49.0535714,64.9582266 49.0535714,65.1607143 C48.0788396,65.1569645 47.1008258,65.1532147 46.125,65.1504024 C46.1479735,63.4451939 46.1720409,61.7409228 46.1950144,60.0357143" id="Fill-93" fill="#FFFFFE"></path>
                                <polyline id="Fill-94" fill="#E7A42D" points="40.6334351 42.4642857 42.7839457 46.8014251 47.5892857 47.4975698 44.1123473 50.875052 44.9324824 55.6428571 40.6334351 53.3921857 36.3363617 55.6428571 37.1564967 50.875052 33.6785714 47.4975698 38.4839115 46.8014251 40.6334351 42.4642857"></polyline>
                                <polyline id="Fill-95" fill="#E7A42D" points="58.5710119 43.1964286 60.405718 47.5860755 65.1607143 48.6049975 61.4368744 51.6588743 61.9108896 56.375 57.7763684 53.872959 53.3133022 55.7682695 54.482012 51.1677115 51.25 47.623635 56.1059348 47.2827103 58.5710119 43.1964286"></polyline>
                                <polyline id="Fill-96" fill="#F8C923" points="58.7260726 48.3214286 59.4983263 50.272155 61.5 50.7248426 59.9322961 52.0819128 60.1323668 54.1785714 58.3906884 53.066707 56.5117633 53.90954 57.0037247 51.8645036 55.6428571 50.2890315 57.6880245 50.1371429 58.7260726 48.3214286"></polyline>
                                <polyline id="Fill-97" fill="#E7A42D" points="76.0185939 46.125 77.3292566 50.8434634 82 52.4517592 77.8679952 55.1421983 77.7674843 60.0357143 73.9048488 56.979256 69.1697783 58.3965854 70.9146483 53.8163738 68.0892857 49.7991154 73.0293985 50.0238989 76.0185939 46.125"></polyline>
                                <polyline id="Fill-98" fill="#F8C923" points="75.8203687 50.5178571 76.3723348 52.5044375 78.3392857 53.1813836 76.6000335 54.3149917 76.55734 56.375 74.9299041 55.0885007 72.9365238 55.6839718 73.671462 53.7557316 72.4821429 52.0648751 74.5619267 52.1594263 75.8203687 50.5178571"></polyline>
                                <polyline id="Fill-99" fill="#E7A42D" points="23.4285193 43.1964286 21.5949332 47.5860755 16.8392857 48.6049975 20.5628608 51.6588743 20.0888792 56.375 24.2231063 53.872959 28.685855 55.7682695 27.5172284 51.1677115 30.75 47.623635 25.8934211 47.2827103 23.4285193 43.1964286"></polyline>
                                <polyline id="Fill-100" fill="#F8C923" points="23.2740677 48.3214286 22.5020488 50.2720975 20.5 50.7250965 22.0670382 52.0820389 21.8670333 54.1785714 23.6080758 53.0661046 25.4871216 53.9094428 24.9961097 51.8642707 26.3571429 50.2895601 24.311093 50.1385604 23.2740677 48.3214286"></polyline>
                                <polyline id="Fill-101" fill="#E7A42D" points="5.98183833 46.125 4.67108095 50.8434634 0 52.4517592 4.13029301 55.1421983 4.2318164 60.0357143 8.09473099 56.979256 12.8301436 58.3965854 11.0861527 53.8163738 13.9107143 49.7991154 8.96923936 50.0238989 5.98183833 46.125"></polyline>
                                <polyline id="Fill-102" fill="#F8C923" points="7.32923139 50.5178571 6.84598537 52.5047842 5.125 53.1810513 6.6460215 54.3147932 6.68490336 56.375 8.10779444 55.0884176 9.85192377 55.684077 9.20944725 53.7568205 10.25 52.065106 8.42995845 52.1593227 7.32923139 50.5178571"></polyline>
                                <polyline id="Fill-103" fill="#F8C923" points="40.2678571 47.5892857 41.173035 49.517213 43.1964286 49.8263074 41.7321429 51.3267845 42.0772826 53.4464286 40.2678571 52.4457844 38.4575014 53.4464286 38.8035714 51.3267845 37.3392857 49.8263074 39.3626793 49.517213 40.2678571 47.5892857"></polyline>
                                <polygon id="Fill-104" fill="#B5C6D3" points="28.5535714 29.2857143 51.9821429 29.2857143 51.9821429 22.6964286 28.5535714 22.6964286"></polygon>
                                <polygon id="Fill-105" fill="#CADAE3" points="30.75 27.8214286 51.9821429 27.8214286 51.9821429 22.6964286 30.75 22.6964286"></polygon>
                                <path d="M67.9806138,65.8928571 L67.9806138,34.3680226 L68.3573305,34.3680226 L68.3573305,32.577209 L67.9806138,32.577209 L67.9806138,22.4779682 C67.9806138,22.3131028 67.975657,22.1492246 67.9657434,21.9873208 L68.6299545,21.9873208 C68.3731923,17.5260824 64.6575756,13.9720973 60.113182,13.9720973 L59.9545644,13.9720973 C55.4111622,13.9720973 51.6945541,17.5260824 51.4377919,21.9873208 L52.102003,21.9873208 C52.102003,21.9892952 52.102003,21.9912697 52.102003,21.9932441 L51.4377919,21.9932441 L51.4377919,21.9873208 L30.4606173,21.9873208 L30.4606173,21.9932441 L29.7964062,21.9932441 C29.7964062,21.9912697 29.7964062,21.9892952 29.7964062,21.9873208 L30.4606173,21.9873208 C30.2038551,17.5260824 26.487247,13.9720973 21.9438448,13.9720973 L21.7852272,13.9720973 C17.2408337,13.9720973 13.5252169,17.5260824 13.2684547,21.9873208 L13.9336572,21.9873208 C13.9237436,22.1492246 13.9187868,22.3131028 13.9187868,22.4779682 L13.9187868,32.577209 L13.54207,32.577209 L13.54207,34.3680226 L13.9187868,34.3680226 L13.9187868,49.698532 L9.30400666,49.9097966 L6.35768517,46.0399018 L5.06495192,50.7232643 L5.01240984,50.7420215 C3.66118636,46.8336251 2.92857143,42.64091 2.92857143,38.2764189 C2.92857143,17.1371184 20.1375872,0 41.3655757,0 C62.5935643,0 79.8035714,17.1371184 79.8035714,38.2764189 C79.8035714,42.6784243 79.0560861,46.9086537 77.6830527,50.8446921 L77.3331027,50.7232643 L76.0403694,46.0399018 L73.0920652,49.9097966 L68.2195315,49.6866853 L71.0062441,53.6740591 L69.2852434,58.2201983 L73.9555396,56.8134126 L74.6762583,57.3879735 C72.8531475,60.532263 70.592847,63.3951954 67.9806138,65.8928571 M13.9187868,65.0724789 C11.6069356,62.7248744 9.59645782,60.0811044 7.9498091,57.2053381 L8.44152359,56.8134126 L13.1118199,58.2201983 L11.3918105,53.6740591 L13.9187868,50.0578793 L13.9187868,65.0724789" id="Fill-106" fill="#F3F6F7"></path>
                                <path d="M47.8496903,76.875 L47.8496903,71.1977467 L34.1334202,71.1977467 L34.1334202,76.722816 C32.9034664,76.4886108 31.6943761,76.1961013 30.5091298,75.8492404 L30.5091298,71.1977467 L20.3863516,71.1977467 C19.9392763,70.9072136 19.4991555,70.6087749 19.0649957,70.3004541 L63.7685513,70.3004541 C63.3343916,70.6087749 62.8952643,70.9072136 62.448189,71.1977467 L51.6428758,71.1977467 L51.6428758,76.0419409 C50.4019935,76.3808961 49.1372671,76.6595707 47.8496903,76.875 Z M66.1002974,68.5078453 L16.7332497,68.5078453 C15.749684,67.6896093 14.8078454,66.8249275 13.9107143,65.9147882 L13.9107143,50.885137 L14.170018,50.5135709 L13.9107143,50.5254294 L13.9107143,35.1795518 L68.0892857,35.1795518 L68.0892857,66.7359888 C67.4464908,67.3496658 66.7838258,67.9396258 66.1002974,68.5078453 Z M40.9915552,58.7216242 C37.6444515,58.7216242 34.3400683,59.5932234 31.4330854,61.2425421 L31.3049238,61.3146813 L31.3049238,67.1134842 L50.6781867,67.1134842 L50.6781867,61.3146813 L50.5490316,61.2425421 C47.6430422,59.5932234 44.338659,58.7216242 40.9915552,58.7216242 Z M58.3847713,55.2964963 L62.535617,57.8638599 L62.0597302,53.0246067 L65.7982732,49.8910001 L61.0245025,48.8454763 L59.421986,44.9262445 L64.0447445,44.9262445 L64.0447445,44.376801 L59.1974548,44.376801 L63.5569357,44.376801 L63.5569357,36.9771016 L58.741438,36.9771016 L58.741438,44.376801 L59.1616888,44.376801 L58.3102587,44.376801 L58.3102587,44.9262445 L58.8368141,44.9262445 L56.7077422,48.5341909 L51.8326344,48.8840164 L55.0774076,52.5206208 L53.9040833,57.2412891 L58.3847713,55.2964963 Z M23.316185,44.3412255 L21.4752283,48.8454763 L16.7004641,49.8910001 L20.4390071,53.0246067 L19.9631203,57.8638599 L24.1139661,55.2964963 L28.594654,57.2412891 L27.4213297,52.5206208 L30.6670964,48.8840164 L25.7909952,48.5341909 L23.316185,44.3412255 Z M41.2488719,54.4258853 L45.5765608,56.6878928 L44.7509617,51.8960735 L48.2510646,48.50158 L43.4137099,47.801929 L41.9860494,44.9262445 L47.3002844,44.9262445 L47.3002844,44.376801 L41.7128367,44.376801 L41.2488719,43.4429447 L39.0850275,47.801929 L34.2476728,48.50158 L37.7487691,51.8960735 L36.92317,56.6878928 L41.2488719,54.4258853 Z M49.7989386,44.9262445 L55.5324309,44.9262445 L55.5324309,44.376801 L49.7989386,44.376801 L49.7989386,44.9262445 Z M33.4886383,44.9262445 L39.2221306,44.9262445 L39.2221306,44.376801 L33.4886383,44.376801 L33.4886383,44.9262445 Z M24.774644,44.9262445 L30.5091298,44.9262445 L30.5091298,44.376801 L24.774644,44.376801 L24.774644,44.9262445 Z M16.424271,44.9262445 L22.1577633,44.9262445 L22.1577633,44.376801 L16.424271,44.376801 L16.424271,44.9262445 Z M50.2281309,44.376801 L55.0456156,44.376801 L55.0456156,36.9771016 L50.2281309,36.9771016 L50.2281309,44.376801 Z M41.9969779,44.376801 L46.8134691,44.376801 L46.8134691,36.9771016 L41.9969779,36.9771016 L41.9969779,44.376801 Z M33.9178306,44.376801 L38.7353152,44.376801 L38.7353152,36.9771016 L33.9178306,36.9771016 L33.9178306,44.376801 Z M25.2048298,44.376801 L30.021321,44.376801 L30.021321,36.9771016 L25.2048298,36.9771016 L25.2048298,44.376801 Z M16.8544567,44.376801 L21.6709479,44.376801 L21.6709479,36.9771016 L16.8544567,36.9771016 L16.8544567,44.376801 Z M68.0892857,33.386943 L13.9107143,33.386943 L13.9107143,23.2775781 C13.9107143,23.1125474 13.9156818,22.9485049 13.9256168,22.7864388 L14.6111323,22.7864388 C14.8664619,19.0618839 17.986054,16.1071429 21.794142,16.1071429 L21.9531021,16.1071429 C25.7611901,16.1071429 28.8817757,19.0618839 29.1371054,22.7864388 L29.8226208,22.7864388 C29.8226208,22.7884152 29.8226208,22.7903916 29.8226208,22.7923681 L29.1371054,22.7923681 L29.1371054,29.4271947 L52.8628946,29.4271947 L52.8628946,22.7923681 L52.1763857,22.7923681 C52.1763857,22.7903916 52.1763857,22.7884152 52.1763857,22.7864388 L52.8628946,22.7864388 C53.1182243,19.0618839 56.2368229,16.1071429 60.0459044,16.1071429 L60.2048645,16.1071429 C64.0129525,16.1071429 67.1335381,19.0618839 67.3888677,22.7864388 L68.0743832,22.7864388 C68.0843182,22.9485049 68.0892857,23.1125474 68.0892857,23.2775781 L68.0892857,33.386943 Z M56.9849289,22.8101558 L56.9849289,29.4271947 L63.303593,29.4271947 L63.303593,22.8101558 L60.4472786,22.8101558 L63.303593,22.8101558 L63.3045865,22.7903916 C63.3045865,21.0550989 61.8898416,19.6478911 60.1442609,19.6478911 C58.3996738,19.6478911 56.9849289,21.0550989 56.9849289,22.7903916 L56.9859224,22.8101558 L59.8422367,22.8101558 L56.9849289,22.8101558 Z M18.696407,22.8101558 L18.696407,29.4271947 L25.0140776,29.4271947 L25.0140776,22.8101558 L22.1567698,22.8101558 L25.0130841,22.8101558 L25.0140776,22.7903916 C25.0140776,21.0550989 23.5993327,19.6478911 21.8557391,19.6478911 C20.1101584,19.6478911 18.6954135,21.0550989 18.6954135,22.7903916 L18.696407,22.8101558 L21.5517279,22.8101558 L18.696407,22.8101558 Z" id="Fill-107" fill="#C6D7E0"></path>
                                <path d="M25.6239639,21.9642857 L22.6453167,21.9642857 L22.6453167,21.4829018 L25.0303066,21.4829018 C24.8044474,20.4533259 23.8398838,19.6534598 22.6453167,19.5335714 L22.6453167,19.2736607 L22.0143615,19.2736607 L22.0143615,19.5335714 C20.8187584,19.6552902 19.8531587,20.4569866 19.6293716,21.4829018 L22.0143615,21.4829018 L22.0143615,21.9642857 L19.0367503,21.9642857 L19.0357143,21.9459821 C19.0357143,20.3389286 20.5110512,19.0357143 22.3313932,19.0357143 C24.1496631,19.0357143 25.625,20.3389286 25.625,21.9459821 L25.6239639,21.9642857" id="Fill-108" fill="#F3F6F6"></path>
                                <path d="M24.1607143,21.9642857 L21.8975741,21.9642857 L21.8975741,19.7678571 C23.0311104,19.9029427 23.9463943,20.8042002 24.1607143,21.9642857 M21.2988545,21.9642857 L19.0357143,21.9642857 C19.248068,20.8083249 20.164335,19.905005 21.2988545,19.7678571 L21.2988545,21.9642857" id="Fill-109" fill="#B5C6D3"></path>
                                <polyline id="Fill-110" fill="#F3F6F6" points="25.625 29.2857143 19.0357143 29.2857143 19.0357143 22.6964286 22.0137937 22.6964286 19.6284288 22.6964286 19.6284288 25.3681596 19.4709242 25.3681596 19.4709242 25.8680636 19.6284288 25.8680636 19.6284288 28.6883881 22.0137937 28.6883881 22.0137937 28.8674875 22.6448481 28.8674875 22.6448481 28.6883881 25.0322855 28.6883881 25.0322855 25.8680636 25.3732 25.8680636 25.3732 25.3681596 25.0322855 25.3681596 25.0322855 22.6964286 22.6448481 22.6964286 25.625 22.6964286 25.625 29.2857143"></polyline>
                                <path d="M21.8964765,28.5535714 L24.1607143,28.5535714 L24.1607143,25.7967031 L21.8964765,25.7967031 L21.8964765,28.5535714 Z M19.0357143,28.5535714 L21.2979866,28.5535714 L21.2979866,25.7967031 L19.0357143,25.7967031 L19.0357143,28.5535714 Z M21.8964765,25.3070848 L24.1607143,25.3070848 L24.1607143,22.6964286 L21.8964765,22.6964286 L21.8964765,25.3070848 Z M19.0357143,25.3070848 L21.2979866,25.3070848 L21.2979866,22.6964286 L19.0357143,22.6964286 L19.0357143,25.3070848 Z" id="Fill-111" fill="#B5C6D3"></path>
                                <path d="M21.9642857,28.5535714 L22.4101607,28.5535714 L22.4101607,25.6469404 L21.9642857,25.6469404 L21.9642857,28.5535714 Z M21.9642857,25.162343 L22.4101607,25.162343 L22.4101607,19.7678571 L21.9642857,19.7678571 L21.9642857,25.162343 Z" id="Fill-112" fill="#F3F6F6"></path>
                                <polygon id="Fill-113" fill="#F3F6F6" points="19.0357143 25.2647857 24.8928571 25.2647857 24.8928571 24.8928571 19.0357143 24.8928571"></polygon>
                                <path d="M62.9632498,21.9642857 L59.9850709,21.9642857 L59.9850709,21.4829018 L62.3696858,21.4829018 C62.1469698,20.4569866 61.1815219,19.6552902 59.9850709,19.5335714 L59.9850709,19.2736607 L59.3542149,19.2736607 L59.3542149,19.5335714 C58.1608715,19.654375 57.1964595,20.4533259 56.9695999,21.4829018 L59.3542149,21.4829018 L59.3542149,21.9642857 L56.3760359,21.9642857 L56.375,21.9459821 C56.375,20.3389286 57.850105,19.0357143 59.6691249,19.0357143 C61.4891807,19.0357143 62.9642857,20.3389286 62.9642857,21.9459821 L62.9632498,21.9642857" id="Fill-114" fill="#F3F6F6"></path>
                                <path d="M62.2321429,21.9642857 L59.9690026,21.9642857 L59.9690026,19.7678571 C61.1045052,19.905005 62.0207722,20.8083249 62.2321429,21.9642857 M59.3702831,21.9642857 L57.1071429,21.9642857 C57.3224459,20.8042002 58.2377299,19.9039738 59.3702831,19.7678571 L59.3702831,21.9642857" id="Fill-115" fill="#B5C6D3"></path>
                                <polyline id="Fill-116" fill="#F3F6F6" points="62.9642857 29.2857143 56.375 29.2857143 56.375 22.6964286 59.3546833 22.6964286 56.9676213 22.6964286 56.9676213 25.3681596 56.6267604 25.3681596 56.6267604 25.8680636 56.9676213 25.8680636 56.9676213 28.6883881 59.3546833 28.6883881 59.3546833 28.8674875 59.9856385 28.8674875 59.9856385 28.6883881 62.3706284 28.6883881 62.3706284 25.8680636 62.5291442 25.8680636 62.5291442 25.3681596 62.3706284 25.3681596 62.3706284 22.6964286 59.9856385 22.6964286 62.9642857 22.6964286 62.9642857 29.2857143"></polyline>
                                <path d="M59.9698706,28.5535714 L62.2321429,28.5535714 L62.2321429,25.7967031 L59.9698706,25.7967031 L59.9698706,28.5535714 Z M57.1071429,28.5535714 L59.3713806,28.5535714 L59.3713806,25.7967031 L57.1071429,25.7967031 L57.1071429,28.5535714 Z M59.9698706,25.3070848 L62.2321429,25.3070848 L62.2321429,22.6964286 L59.9698706,22.6964286 L59.9698706,25.3070848 Z M57.1071429,25.3070848 L59.3713806,25.3070848 L59.3713806,22.6964286 L57.1071429,22.6964286 L57.1071429,25.3070848 Z" id="Fill-117" fill="#B5C6D3"></path>
                                <path d="M59.3035714,28.5535714 L59.7494464,28.5535714 L59.7494464,25.6469404 L59.3035714,25.6469404 L59.3035714,28.5535714 Z M59.3035714,25.162343 L59.7494464,25.162343 L59.7494464,19.7678571 L59.3035714,19.7678571 L59.3035714,25.162343 Z" id="Fill-118" fill="#F3F6F6"></path>
                                <polygon id="Fill-119" fill="#F3F6F6" points="57.1071429 25.2647857 62.9642857 25.2647857 62.9642857 24.8928571 57.1071429 24.8928571"></polygon>
                                <path d="M30.0178571,21.9642857 L28.6972812,21.9642857 C28.4477311,18.2256589 25.3977833,15.2597545 21.6758952,15.2597545 L21.5205333,15.2597545 C17.7986453,15.2597545 14.7496684,18.2256589 14.5001184,21.9642857 L13.1785714,21.9642857 C13.4300635,17.481703 17.0694155,13.9107143 21.5205333,13.9107143 L21.6758952,13.9107143 C26.1260421,13.9107143 29.7663651,17.481703 30.0178571,21.9642857" id="Fill-120" fill="#B5C6D3"></path>
                                <path d="M68.0892857,21.9642857 L66.7687097,21.9642857 C66.5191597,18.2256589 63.4692118,15.2597545 59.7473238,15.2597545 L59.5919619,15.2597545 C55.8691029,15.2597545 52.821097,18.2256589 52.571547,21.9642857 L51.25,21.9642857 C51.501492,17.481703 55.1418151,13.9107143 59.5919619,13.9107143 L59.7473238,13.9107143 C64.1984416,13.9107143 67.8377937,17.481703 68.0892857,21.9642857" id="Fill-121" fill="#B5C6D3"></path>
                                <path d="M63.5759175,69.5535714 L19.1562254,69.5535714 C18.3615358,69.0894235 17.5885645,68.6010592 16.8392857,68.0892857 L65.8928571,68.0892857 C65.1445656,68.6010592 64.3715942,69.0894235 63.5759175,69.5535714" id="Fill-122" fill="#B5C6D3"></path>
                                <polygon id="Fill-123" fill="#B5C6D3" points="13.9107143 34.4107143 68.8214286 34.4107143 68.8214286 32.9464286 13.9107143 32.9464286"></polygon>
                                <path d="M40.4704691,76.875 L40.4704691,71.4993428 L37.4864912,71.4993428 L37.4864912,71.358443 L37.1941247,71.358443 L37.1941247,71.4993428 L34.2101468,71.4993428 L34.2101468,76.324464 C34.0312512,76.2955376 33.8554225,76.265678 33.6785714,76.2348853 L33.6785714,71.0178571 L41,71.0178571 L40.4704691,71.0178571 L40.4704691,76.875" id="Fill-124" fill="#F3F6F6"></path>
                                <path d="M40.2678571,76.875 C39.3286484,76.8577163 38.3961346,76.8028151 37.4760544,76.7123298 L37.4760544,71.0178571 L40.2678571,71.0178571 L40.2678571,76.875 M37.202517,76.6848792 C36.260439,76.5852438 35.3298381,76.4479908 34.4107143,76.2751537 L34.4107143,71.0178571 L37.202517,71.0178571 L37.202517,76.6848792" id="Fill-125" fill="#B5C6D3"></path>
                                <path d="M37.5486786,76.875 C37.4783929,76.8668538 37.4088393,76.8576893 37.3392857,76.8475065 L37.3392857,71.0178571 L37.5486786,71.0178571 L37.5486786,76.875" id="Fill-126" fill="#F3F6F6"></path>
                                <path d="M40.797388,76.875 C40.620537,76.8740678 40.4447082,76.8722033 40.2678571,76.8694067 L40.2678571,71.0178571 L47.5892857,71.0178571 L47.5892857,76.3734652 C47.4114124,76.4004996 47.2355836,76.4266018 47.0577103,76.4517718 L47.0577103,71.498883 L44.0737324,71.498883 L44.0737324,71.3581177 L43.7813659,71.3581177 L43.7813659,71.498883 L40.797388,71.498883 L40.797388,76.875" id="Fill-127" fill="#F3F6F6"></path>
                                <path d="M40.4294929,76.875 C40.3759331,76.875 40.3214169,76.875 40.2678571,76.875 L40.2678571,71.0178571 L43.0596599,71.0178571 L43.0596599,76.7774994 C42.1912266,76.8424998 41.313229,76.875 40.4294929,76.875 M43.3331973,76.7561712 L43.3331973,71.0178571 L46.125,71.0178571 L46.125,76.4139036 C45.2058762,76.564217 44.2733624,76.6789833 43.3331973,76.7561712" id="Fill-128" fill="#B5C6D3"></path>
                                <path d="M43.1964286,76.875 L43.1964286,71.0178571 L43.4058214,71.0178571 L43.4058214,76.8538732 C43.3355357,76.8609155 43.2667143,76.8679577 43.1964286,76.875" id="Fill-129" fill="#F3F6F6"></path>
                                <path d="M16.8392857,43.9285714 L21.9642857,43.9285714 L21.9642857,36.6071429 L16.8392857,36.6071429 L16.8392857,43.9285714 Z M17.3879398,39.4015663 L17.3879398,43.4211166 L21.4156316,43.4211166 L21.4156316,39.4015663 L21.812058,39.4015663 L21.812058,38.8579346 L21.4156316,38.8579346 L21.4156316,37.1145976 L17.3879398,37.1145976 L17.3879398,38.8579346 L17.0528274,38.8579346 L17.0528274,39.4015663 L17.3879398,39.4015663 Z" id="Fill-130" fill="#B5C6D3"></path>
                                <path d="M16.8392857,43.1964286 L20.5,43.1964286 L20.5,38.9966528 L16.8392857,38.9966528 L16.8392857,43.1964286 Z M16.8392857,38.4286462 L20.5,38.4286462 L20.5,36.6071429 L16.8392857,36.6071429 L16.8392857,38.4286462 Z" id="Fill-131" fill="#F3F6F6"></path>
                                <polygon id="Fill-132" fill="#B5C6D3" points="16.8392857 39.2106429 21.2321429 39.2106429 21.2321429 38.8035714 16.8392857 38.8035714"></polygon>
                                <polygon id="Fill-133" fill="#B5C6D3" points="16.1071429 43.6035 21.9642857 43.6035 21.9642857 43.1964286 16.1071429 43.1964286"></polygon>
                                <path d="M24.8928571,43.9285714 L30.0178571,43.9285714 L30.0178571,36.6071429 L24.8928571,36.6071429 L24.8928571,43.9285714 Z M25.4415112,39.4015663 L25.4415112,43.4211166 L29.4681459,43.4211166 L29.4681459,39.4015663 L29.8656294,39.4015663 L29.8656294,38.8579346 L29.4681459,38.8579346 L29.4681459,37.1145976 L25.4415112,37.1145976 L25.4415112,38.8579346 L25.1063988,38.8579346 L25.1063988,39.4015663 L25.4415112,39.4015663 Z" id="Fill-134" fill="#B5C6D3"></path>
                                <path d="M25.625,43.1964286 L29.2857143,43.1964286 L29.2857143,38.9966528 L25.625,38.9966528 L25.625,43.1964286 Z M25.625,38.4286462 L29.2857143,38.4286462 L29.2857143,36.6071429 L25.625,36.6071429 L25.625,38.4286462 Z" id="Fill-135" fill="#F3F6F6"></path>
                                <polygon id="Fill-136" fill="#B5C6D3" points="24.8928571 39.2106429 29.2857143 39.2106429 29.2857143 38.8035714 24.8928571 38.8035714"></polygon>
                                <polygon id="Fill-137" fill="#B5C6D3" points="24.8928571 43.6035 30.75 43.6035 30.75 43.1964286 24.8928571 43.1964286"></polygon>
                                <path d="M33.6785714,43.9285714 L38.8035714,43.9285714 L38.8035714,36.6071429 L33.6785714,36.6071429 L33.6785714,43.9285714 Z M34.2281693,39.4015663 L34.2281693,43.4211166 L38.2539736,43.4211166 L38.2539736,39.4015663 L38.6503182,39.4015663 L38.6503182,38.8579346 L38.2539736,38.8579346 L38.2539736,37.1145976 L34.2281693,37.1145976 L34.2281693,38.8579346 L33.893126,38.8579346 L33.893126,39.4015663 L34.2281693,39.4015663 Z" id="Fill-138" fill="#B5C6D3"></path>
                                <path d="M34.4107143,43.1964286 L38.0714286,43.1964286 L38.0714286,38.9966528 L34.4107143,38.9966528 L34.4107143,43.1964286 Z M34.4107143,38.4286462 L38.0714286,38.4286462 L38.0714286,36.6071429 L34.4107143,36.6071429 L34.4107143,38.4286462 Z" id="Fill-139" fill="#F3F6F6"></path>
                                <polygon id="Fill-140" fill="#B5C6D3" points="33.6785714 39.2106429 38.0714286 39.2106429 38.0714286 38.8035714 33.6785714 38.8035714"></polygon>
                                <polygon id="Fill-141" fill="#B5C6D3" points="33.6785714 43.6035 39.5357143 43.6035 39.5357143 43.1964286 33.6785714 43.1964286"></polygon>
                                <path d="M41.7321429,43.9285714 L46.8571429,43.9285714 L46.8571429,36.6071429 L41.7321429,36.6071429 L41.7321429,43.9285714 Z M42.2818541,39.4015663 L42.2818541,43.4211166 L46.3074316,43.4211166 L46.3074316,39.4015663 L46.703858,39.4015663 L46.703858,38.8579346 L46.3074316,38.8579346 L46.3074316,37.1145976 L42.2818541,37.1145976 L42.2818541,38.8579346 L41.9456845,38.8579346 L41.9456845,39.4015663 L42.2818541,39.4015663 Z" id="Fill-142" fill="#B5C6D3"></path>
                                <path d="M42.4642857,43.1964286 L46.125,43.1964286 L46.125,38.9966528 L42.4642857,38.9966528 L42.4642857,43.1964286 Z M42.4642857,38.4286462 L46.125,38.4286462 L46.125,36.6071429 L42.4642857,36.6071429 L42.4642857,38.4286462 Z" id="Fill-143" fill="#F3F6F6"></path>
                                <polygon id="Fill-144" fill="#B5C6D3" points="41.7321429 39.2106429 46.125 39.2106429 46.125 38.8035714 41.7321429 38.8035714"></polygon>
                                <polyline id="Fill-145" fill="#B5C6D3" points="47.5892857 43.6035 42.018543 43.6035 41.7321429 43.1964286 47.5892857 43.1964286 47.5892857 43.6035"></polyline>
                                <path d="M49.0535714,43.9285714 L54.1785714,43.9285714 L54.1785714,36.6071429 L49.0535714,36.6071429 L49.0535714,43.9285714 Z M49.6031693,39.4015663 L49.6031693,43.4211166 L53.6289736,43.4211166 L53.6289736,39.4015663 L54.0253182,39.4015663 L54.0253182,38.8579346 L53.6289736,38.8579346 L53.6289736,37.1145976 L49.6031693,37.1145976 L49.6031693,38.8579346 L49.2670691,38.8579346 L49.2670691,39.4015663 L49.6031693,39.4015663 Z" id="Fill-146" fill="#B5C6D3"></path>
                                <path d="M50.5178571,43.1964286 L54.1785714,43.1964286 L54.1785714,38.9966528 L50.5178571,38.9966528 L50.5178571,43.1964286 Z M50.5178571,38.4286462 L54.1785714,38.4286462 L54.1785714,36.6071429 L50.5178571,36.6071429 L50.5178571,38.4286462 Z" id="Fill-147" fill="#F3F6F6"></path>
                                <polygon id="Fill-148" fill="#B5C6D3" points="50.5178571 39.2106429 54.9107143 39.2106429 54.9107143 38.8035714 50.5178571 38.8035714"></polygon>
                                <polygon id="Fill-149" fill="#B5C6D3" points="49.0535714 43.6035 54.9107143 43.6035 54.9107143 43.1964286 49.0535714 43.1964286"></polygon>
                                <path d="M49.7857143,65.8928571 L31.4821429,65.8928571 L31.4821429,60.9341597 C34.2733905,59.3877517 37.4331065,58.5714286 40.6334333,58.5714286 C43.8337601,58.5714286 46.9944667,59.3877517 49.7857143,60.9341597 L49.7857143,65.8928571 M37.8421857,59.4828097 C37.7441256,59.4828097 37.6391319,59.4906496 37.5301761,59.5063292 C36.532736,59.662146 36.000834,60.3157925 36.010739,61.2065941 C36.0226251,62.1826539 36.0345112,63.1587137 36.0454068,64.1347735 C36.0572928,65.029495 36.6020715,65.5459443 37.5856445,65.5518242 C37.588616,65.5518242 37.5915876,65.5518242 37.5945591,65.5518242 C38.5741701,65.5518242 39.1060721,64.9951957 39.1021101,64.0240358 C39.0961671,62.9705576 39.090224,61.9170794 39.0852715,60.8645811 C39.0823,60.000239 38.6435056,59.4828097 37.8421857,59.4828097 M46.4278969,60.1433161 C46.4070963,61.9258992 46.3853051,63.7075023 46.3645045,65.4900855 C47.2480364,65.4930254 48.1335493,65.4969453 49.0160907,65.5008653 C49.0160907,65.2891896 49.0160907,65.076534 49.0160907,64.8648584 C48.4703215,64.8305591 47.9225714,64.8001797 47.3738307,64.7727403 C47.3886883,63.3302101 47.4025554,61.88768 47.417413,60.4451498 C47.0895553,60.3363721 46.7597166,60.2354342 46.4278969,60.1433161 M33.2175104,60.6656453 C32.8926243,60.7852028 32.5707096,60.9126001 32.250776,61.0478374 C32.250776,62.5325066 32.250776,64.016196 32.250776,65.5008653 C32.5845767,65.4989053 32.9173869,65.4979253 33.2521781,65.4969453 C33.2472256,64.8060596 33.2432636,64.1161539 33.2373205,63.4262482 C33.6127225,63.3674494 33.9891151,63.3125705 34.3664981,63.2625915 C34.3754126,64.0063962 34.3843272,64.7492208 34.3922512,65.4920454 C34.7329855,65.4910655 35.0727293,65.4900855 35.4134635,65.4891055 C35.3916724,63.6614433 35.3688907,61.8347611 35.3470996,60.0070989 C35.0073558,60.0933371 34.6695931,60.1883951 34.3338114,60.290313 C34.3427259,61.0331377 34.35065,61.7769423 34.358574,62.5197669 C33.9821815,62.5854256 33.6067795,62.6579441 33.232368,62.7353624 C33.2274155,62.0464367 33.222463,61.355551 33.2175104,60.6656453 M43.0522504,59.4857497 C43.0373928,61.4849083 43.0225352,63.484067 43.0066871,65.4832256 C43.9189437,65.4842056 44.8312003,65.4861656 45.7424664,65.4881255 C45.7444474,65.2264709 45.7493999,64.9638364 45.7523714,64.7021818 C45.1739156,64.6806222 44.5964502,64.6620026 44.0179944,64.6473029 C44.0239374,64.0749947 44.0298804,63.5036666 44.0358235,62.9313584 C44.4964091,62.9646777 44.9569946,63.0038769 45.4165897,63.0509159 C45.4185707,62.7843614 45.4215422,62.5178069 45.4255042,62.2522324 C44.9668997,62.1904937 44.5063141,62.1375748 44.0437475,62.0944557 C44.0496906,61.550567 44.0546431,61.0066782 44.0595956,60.4618095 C44.643004,60.5431478 45.2234409,60.6440857 45.7999157,60.7665832 C45.8028873,60.5049286 45.8058588,60.242294 45.8098208,59.9796594 C44.8995452,59.7552441 43.9783741,59.5896275 43.0522504,59.4857497 M40.5125915,60.2256344 C40.513582,61.9778381 40.5145725,63.7300419 40.5145725,65.4812657 C40.8493638,65.4812657 41.184155,65.4812657 41.5189462,65.4812657 C41.5238987,63.7349418 41.5288513,61.9886179 41.5347943,60.242294 C41.8903862,60.2550337 42.2449876,60.2756133 42.6005794,60.3030528 C42.6025604,60.0149387 42.6045414,59.7278047 42.6065225,59.4396906 C41.9498166,59.3799118 41.2911297,59.3495325 40.6324428,59.3495325 C40.2352497,59.3495325 39.8380565,59.3603123 39.4418539,59.3818718 C39.4438349,59.6729258 39.4448254,59.9639798 39.4458159,60.2540538 C39.8014078,60.2373941 40.1569996,60.2275943 40.5125915,60.2256344 M37.5598913,64.7070817 C37.2508533,64.7070817 37.0557235,64.5522449 37.0517615,64.1445733 C37.0398754,63.095015 37.0299703,62.0464367 37.0180842,60.9978584 C37.0141222,60.582347 37.2142045,60.3922309 37.5381002,60.3510718 C37.5727679,60.3461719 37.6064452,60.3442119 37.6391319,60.3442119 C37.9026066,60.3442119 38.0650497,60.4990487 38.0690117,60.8792808 C38.0769358,61.9552986 38.0858503,63.0313163 38.0937744,64.1083141 C38.0977364,64.5355852 37.8986446,64.7012018 37.5777205,64.7070817 C37.5717774,64.7070817 37.5658344,64.7070817 37.5598913,64.7070817" id="Fill-150" fill="#C6D7E0"></path>
                                <path d="M63.6964286,43.9285714 L59.0567545,43.9285714 L59.0408942,43.8933723 L59.0186898,43.9285714 L58.5714286,43.9285714 L58.5714286,36.6071429 L63.6964286,36.6071429 L63.6964286,43.9285714 M59.1201959,39.4015663 L59.1201959,43.4211166 L63.1476613,43.4211166 L63.1476613,39.4015663 L63.5441694,39.4015663 L63.5441694,38.8579346 L63.1476613,38.8579346 L63.1476613,37.1145976 L59.1201959,37.1145976 L59.1201959,38.8579346 L58.7839569,38.8579346 L58.7839569,39.4015663 L59.1201959,39.4015663" id="Fill-151" fill="#B5C6D3"></path>
                                <path d="M59.3035714,43.1964286 L62.9642857,43.1964286 L62.9642857,38.9966528 L59.3035714,38.9966528 L59.3035714,43.1964286 Z M59.3035714,38.4286462 L62.9642857,38.4286462 L62.9642857,36.6071429 L59.3035714,36.6071429 L59.3035714,38.4286462 Z" id="Fill-152" fill="#F3F6F6"></path>
                                <polygon id="Fill-153" fill="#B5C6D3" points="58.5714286 39.2106429 62.9642857 39.2106429 62.9642857 38.8035714 58.5714286 38.8035714"></polygon>
                                <path d="M64.4285714,43.6035 L59.706935,43.6035 L59.4776012,43.1964286 L64.4285714,43.1964286 L64.4285714,43.6035 M59.1092466,43.6035 L58.5714286,43.6035 L58.5714286,43.1964286 L59.4410702,43.1964286 L59.1092466,43.6035" id="Fill-154" fill="#B5C6D3"></path>
                                <path d="M30.0178571,75.4107143 C29.8438214,75.363118 29.6677737,75.3136552 29.494744,75.2632591 L29.494744,71.5022193 L20.5907544,71.5022193 C20.314108,71.3444983 20.0394736,71.182111 19.7678571,71.0178571 L30.0178571,71.0178571 L30.0178571,75.4107143" id="Fill-155" fill="#F3F6F6"></path>
                                <path d="M29.2857143,74.6785714 C26.1678826,73.7938231 23.2217748,72.5575372 20.5,71.0178571 L29.2857143,71.0178571 L29.2857143,74.6785714" id="Fill-156" fill="#DAE5EB"></path>
                                <path d="M51.25,76.1428571 L51.25,71.0178571 L62.2321429,71.0178571 C61.9595078,71.2018637 61.6828338,71.3837792 61.4061597,71.5604673 L51.7750749,71.5604673 L51.7750749,75.9891699 C51.6013963,76.0414445 51.4246884,76.0926735 51.25,76.1428571" id="Fill-157" fill="#F3F6F6"></path>
                                <path d="M51.25,75.4107143 L51.25,71.0178571 L60.7678571,71.0178571 C57.8320702,72.9031769 54.6368324,74.3913142 51.25,75.4107143" id="Fill-158" fill="#DAE5EB"></path>
                                <path d="M49.7857143,66.625 L30.75,66.625 L30.75,61.0599556 L30.8759286,60.9907245 C33.7322619,59.4078923 36.9790714,58.5714286 40.2678571,58.5714286 C43.5566429,58.5714286 46.8034524,59.4078923 49.6588095,60.9907245 L49.7857143,61.0599556 L49.7857143,66.625 M40.2678571,59.0550981 C37.1137857,59.0550981 33.9997381,59.8450916 31.2488333,61.3416219 L31.2488333,66.1403821 L49.2878571,66.1403821 L49.2878571,61.3416219 C46.5369524,59.8450916 43.4219286,59.0550981 40.2678571,59.0550981" id="Fill-159" fill="#B5C6D3"></path>
                                <path d="M32.9464286,65.8928571 C32.9464286,64.3099867 32.9464286,62.7281612 32.9464286,61.1452908 C33.2426793,61.0011085 33.5407644,60.8652846 33.841601,60.7378192 C33.846187,61.4733576 33.8507729,62.2099409 33.8553588,62.9444345 C34.2020547,62.8618954 34.5496678,62.7845803 34.8981981,62.7145788 C34.8908606,61.9226212 34.8835231,61.1296188 34.8752684,60.3376612 C35.1861941,60.2290021 35.4989542,60.1276566 35.8135486,60.0357143 C35.8337267,61.9842643 35.8548219,63.9317695 35.875,65.8803196 C35.5594884,65.8813644 35.244894,65.8824092 34.9293824,65.883454 C34.9220449,65.0914964 34.9137902,64.2995388 34.9055355,63.5065364 C34.5560881,63.5598211 34.2075578,63.6183299 33.8599447,63.6810178 C33.8654479,64.4165562 33.8691166,65.1520947 33.8737025,65.8886779 C33.563694,65.8897227 33.2555199,65.8907675 32.9464286,65.8928571" id="Fill-160" fill="#F3F6F6"></path>
                                <path d="M38.1076069,65.1607143 C38.104792,65.1607143 38.1019771,65.1607143 38.0991622,65.1607143 C37.1674343,65.1550397 36.6513715,64.6566198 36.6401119,63.7931334 C36.6297907,62.8511482 36.6185311,61.909163 36.6072716,60.9671778 C36.5978886,60.1074745 37.1017536,59.476647 38.0466177,59.3262699 C38.1498302,59.3111376 38.2492896,59.3035714 38.3421809,59.3035714 C39.1012624,59.3035714 39.5169275,59.8029371 39.5197424,60.6371047 C39.5244339,61.6528598 39.5300637,62.6695607 39.5356935,63.6862616 C39.5394467,64.6235179 39.0355817,65.1607143 38.1076069,65.1607143 M38.1498302,60.1349017 C38.1188665,60.1349017 38.0869644,60.1367933 38.054124,60.1415221 C37.7473012,60.1812444 37.5577654,60.3647234 37.5615186,60.7657292 C37.5727782,61.7777012 37.5821611,62.7896732 37.5934207,63.8025911 C37.5971739,64.1960307 37.7820182,64.345462 38.0747666,64.345462 C38.0803963,64.345462 38.0860261,64.345462 38.0916559,64.345462 C38.3956638,64.3397874 38.5842613,64.1799526 38.5805081,63.7675976 C38.5730017,62.7281983 38.5645571,61.6897448 38.5570507,60.6512912 C38.5532975,60.2843331 38.399417,60.1349017 38.1498302,60.1349017" id="Fill-161" fill="#F3F6F6"></path>
                                <path d="M41.4578471,65.1607143 C41.1480326,65.1607143 40.8382182,65.1607143 40.5284038,65.1607143 C40.5284038,63.4879135 40.5274871,61.8141767 40.5265705,60.1404399 C40.1975073,60.142312 39.868444,60.151673 39.5393807,60.1675866 C39.5384641,59.8905026 39.5375475,59.6124826 39.5357143,59.3344625 C39.9023586,59.3138685 40.2699195,59.3035714 40.6374804,59.3035714 C41.2470266,59.3035714 41.8565728,59.3325904 42.4642857,59.3896921 C42.4624525,59.6649039 42.4606193,59.9391795 42.458786,60.2143913 C42.1297228,60.1881807 41.8015761,60.1685227 41.4725129,60.1563535 C41.4670132,61.8244737 41.4624301,63.492594 41.4578471,65.1607143" id="Fill-162" fill="#F3F6F6"></path>
                                <path d="M46.0546315,65.1607143 C45.1025871,65.1588017 44.1495078,65.1568892 43.1964286,65.1559329 C43.2129859,63.2051458 43.2285083,61.2543586 43.2440308,59.3035714 C44.2115977,59.4049359 45.1739904,59.5665452 46.125,59.7855306 C46.1208607,60.0418105 46.1177562,60.2980904 46.1146517,60.553414 C45.5123801,60.4338805 44.9059692,60.3353848 44.2964538,60.2560146 C44.2912797,60.7876997 44.2861055,61.3184286 44.2798965,61.8491574 C44.7631625,61.8912332 45.2443589,61.9428717 45.7234856,62.0031166 C45.7193463,62.2622653 45.7162418,62.5223703 45.7141721,62.7824752 C45.2340106,62.7365743 44.7528142,62.6983236 44.2716179,62.6658105 C44.2654089,63.2242711 44.2591999,63.7817755 44.2529909,64.3402362 C44.8573322,64.3545802 45.4606386,64.3727493 46.0649798,64.3937872 C46.0618753,64.6491108 46.0567012,64.9053907 46.0546315,65.1607143" id="Fill-163" fill="#F3F6F6"></path>
                                <path d="M49.0535714,65.1607143 C48.0788396,65.1569645 47.1008258,65.1532147 46.125,65.1504024 C46.1479735,63.4451939 46.1720409,61.7409228 46.1950144,60.0357143 C46.5614961,60.1238339 46.9257898,60.2203905 47.2878956,60.3244467 C47.2714859,61.7043625 47.2561703,63.0842784 47.2397607,64.4641943 C47.8458229,64.4904427 48.4507911,64.5195034 49.0535714,64.5523139 C49.0535714,64.7548015 49.0535714,64.9582266 49.0535714,65.1607143" id="Fill-164" fill="#F3F6F6"></path>
                                <path d="M44.9324824,55.6428571 L40.6334351,53.3921857 L36.3363617,55.6428571 L37.1564967,50.875052 L33.6785714,47.4975698 L38.4839115,46.8014251 L40.6334351,42.4642857 L41.0943293,43.393462 L41.3657338,43.940152 L42.7839457,46.8014251 L47.5892857,47.4975698 L44.1123473,50.875052 L44.9324824,55.6428571 M40.6620559,51.3175169 L42.581626,52.3233871 L42.2154766,50.1926727 L43.7688973,48.684359 L41.6223344,48.3736504 L40.6620559,46.4356541 L39.7017775,48.3736504 L37.5552146,48.684359 L39.1086353,50.1926727 L38.741499,52.3233871 L40.6620559,51.3175169" id="Fill-165" fill="#DDAB37"></path>
                                <path d="M61.9108896,56.375 L57.7763684,53.872959 L53.3133022,55.7682695 L54.482012,51.1677115 L51.25,47.623635 L56.1059348,47.2827103 L58.2266334,43.7665626 L58.5502304,43.2310989 L58.5710119,43.1964286 L58.5858558,43.2310989 L60.405718,47.5860755 L65.1607143,48.6049975 L61.4368744,51.6588743 L61.9108896,56.375 M58.0198084,51.8245213 L59.8030557,52.9031533 L59.5982098,50.8691616 L61.2033303,49.5526527 L59.1538824,49.1134954 L58.3631973,47.2210741 L57.300374,48.9825187 L55.2063944,49.1298675 L56.5997419,50.6582505 L56.0960388,52.6421629 L58.0198084,51.8245213" id="Fill-166" fill="#DDAB37"></path>
                                <polyline id="Fill-167" fill="#EAC93B" points="60.1323668 54.1785714 58.3906884 53.066707 56.5117633 53.90954 57.0037247 51.8645036 55.6428571 50.2890315 57.6880245 50.1371429 58.7260726 48.3214286 59.4983263 50.272155 61.5 50.7248426 59.9322961 52.0819128 60.1323668 54.1785714"></polyline>
                                <path d="M69.1611165,58.5714286 L70.8919985,53.925959 L68.0892857,49.8514635 L72.9897957,50.0794497 L75.9550279,46.125 L77.2551835,50.9106911 L77.6071429,51.0347721 C77.4147118,51.5966671 77.2103162,52.149483 76.9929589,52.6992726 L75.8962018,52.3129067 L75.3548027,50.32055 L74.1204525,51.9668924 L72.0804843,51.8720663 L73.247035,53.5678392 L72.5261665,55.5016861 L74.4813852,54.9044835 L75.6040657,55.8113841 C75.2810208,56.4580173 74.9400291,57.0955715 74.5830845,57.7210201 L73.8582278,57.1339054 L69.1611165,58.5714286 M76.1065798,54.7672883 L76.1195415,54.1287254 L76.5093887,53.8684581 C76.378775,54.1700857 76.244173,54.4696958 76.1065798,54.7672883" id="Fill-168" fill="#DDAB37"></path>
                                <path d="M76.1581627,55.6428571 L74.9869125,54.79638 L72.9471063,55.3537932 L73.6991613,53.5487914 L72.4821429,51.9660015 L74.6103649,52.0545097 L75.8981161,50.5178571 L76.4629375,52.3774704 L77.6071429,52.7380941 C77.4459139,53.1043673 77.2763635,53.469699 77.1026523,53.8293811 L76.6959393,54.0723078 L76.6824169,54.6683256 C76.5118262,54.9969358 76.3381151,55.3198965 76.1581627,55.6428571" id="Fill-169" fill="#EAC93B"></path>
                                <path d="M20.0888792,56.375 L20.5628608,51.6588743 L16.8392857,48.6049975 L21.5949332,47.5860755 L23.4285193,43.1964286 L25.8934211,47.2827103 L30.75,47.623635 L27.5172284,51.1677115 L28.685855,55.7682695 L24.2231063,53.872959 L20.0888792,56.375 M23.8114647,47.4830276 L23.047553,49.3118867 L21.066528,49.736598 L22.6171105,51.0088059 L22.4192059,52.9744201 L24.1419654,51.9314215 L26.0012791,52.7220972 L25.5154233,50.8046363 L26.8621641,49.3282588 L24.8376001,49.1866883 L23.8114647,47.4830276" id="Fill-170" fill="#DDAB37"></path>
                                <polyline id="Fill-171" fill="#EAC93B" points="21.8670333 54.1785714 22.0670382 52.0820389 20.5 50.7250965 22.5020488 50.2720975 23.2740677 48.3214286 24.311093 50.1385604 26.3571429 50.2895601 24.9961097 51.8642707 25.4871216 53.9094428 23.6080758 53.0661046 21.8670333 54.1785714"></polyline>
                                <path d="M12.8891196,58.5714286 L8.41215908,57.1339054 L7.94080005,57.5343943 C7.63764776,56.9704817 7.34779997,56.3964813 7.07125666,55.8154193 L8.20023758,54.8570705 L9.99064166,55.431071 L9.33111914,53.5738919 L10.3992795,51.9436902 L8.53094916,52.0344812 L7.40101792,50.4527013 L6.90495055,52.3673813 L5.77691996,52.7840108 C5.54599204,52.1736939 5.32836862,51.554298 5.125,50.9298581 L5.17536699,50.9106911 L6.4145851,46.125 L9.23893804,50.0794497 L13.6626806,49.863569 L13.9107143,49.8514635 L13.6626806,50.2307679 L11.2403133,53.925959 L12.8891196,58.5714286 M6.71868771,55.0558018 C6.52102102,54.6169789 6.33000657,54.1731121 6.14754501,53.7252102 L6.69968129,54.111576 L6.71868771,55.0558018" id="Fill-172" fill="#DDAB37"></path>
                                <path d="M7.29222715,55.6428571 C7.15841239,55.4018395 7.02881227,55.1608218 6.90131946,54.9169119 L6.88024627,54.0145417 L6.26807008,53.6453026 C6.1268797,53.3474047 5.98990396,53.0475787 5.85714286,52.7458246 L7.10783673,52.3476634 L7.65784701,50.5178571 L8.9106482,52.02952 L10.9821429,51.9427537 L9.79782953,53.500692 L10.5290693,55.2755462 L8.54397468,54.7269899 L7.29222715,55.6428571" id="Fill-173" fill="#EAC93B"></path>
                                <polyline id="Fill-174" fill="#EAC93B" points="42.0772826 53.4464286 40.2678571 52.4457844 38.4575014 53.4464286 38.8035714 51.3267845 37.3392857 49.8263074 39.3626793 49.517213 40.2678571 47.5892857 41.173035 49.517213 43.1964286 49.8263074 41.7321429 51.3267845 42.0772826 53.4464286"></polyline>
                                <polyline id="Fill-175" fill="#B5C6D3" points="51.9821429 29.2857143 28.5535714 29.2857143 28.5535714 22.6964286 29.8878061 22.6964286 29.8878061 28.0726733 50.6469272 28.0726733 50.6469272 22.6964286 51.9821429 22.6964286 51.9821429 29.2857143"></polyline>
                                <polygon id="Fill-176" fill="#C6D7E0" points="30.75 27.8214286 51.9821429 27.8214286 51.9821429 22.6964286 30.75 22.6964286"></polygon>
                            </g>
                        </g>
                    </g>
                </g>
            </g>
        </g>
    </g>
</svg>