<?xml version="1.0" encoding="UTF-8"?>
<svg width="56px" height="97px" viewBox="0 0 56 97" version="1.1" xmlns="http://www.w3.org/2000/svg" xmlns:xlink="http://www.w3.org/1999/xlink">
    <!-- Generator: Sketch 51.3 (57544) - http://www.bohemiancoding.com/sketch -->
    <title>Group 9</title>
    <desc>Created with Sketch.</desc>
    <defs></defs>
    <g id="Page-1" stroke="none" stroke-width="1" fill="none" fill-rule="evenodd">
        <g id="About-Us" transform="translate(-1096.000000, -2640.000000)" fill-rule="nonzero">
            <g id="almatar-features" transform="translate(0.000000, 2488.000000)">
                <g id="Group-13" transform="translate(232.000000, 80.000000)">
                    <g id="Group-7-Copy" transform="translate(808.666667, 72.000000)">
                        <g id="Group-9" transform="translate(56.000000, 0.000000)">
                            <g id="Group" fill="#F8C923">
                                <path d="M30.0552073,0.954172788 L31.6473215,4.13746332 C31.8999386,4.64267572 32.3882093,4.99285578 32.9531974,5.07384057 L36.5130657,5.5841805 C37.9356987,5.78822598 38.5037433,7.51348862 37.4743249,8.50370492 L34.8984865,10.9815078 C34.4896839,11.3746686 34.3032393,11.9412606 34.3996709,12.4965418 L35.0077552,15.9953261 C35.2507444,17.3934826 33.7636199,18.459707 32.4910595,17.799613 L29.3071368,16.1476439 C28.8019026,15.8853859 28.1980974,15.8853859 27.6928632,16.1476439 L24.5089405,17.799613 C23.2365329,18.459707 21.7492556,17.3934826 21.9922448,15.9953261 L22.6003291,12.4965418 C22.6967607,11.9414114 22.5103161,11.3746686 22.1015135,10.9815078 L19.5256751,8.50370492 C18.4962567,7.51348862 19.0643013,5.78822598 20.4869343,5.5841805 L24.0468026,5.07384057 C24.6117907,4.99285578 25.1000614,4.64267572 25.3526785,4.13746332 L26.9447927,0.954172788 C27.5808437,-0.318057596 29.4190035,-0.318057596 30.0552073,0.954172788 Z" id="Shape"></path>
                                <path d="M8.7279206,6.74205679 L9.98483247,9.21795423 C10.1842163,9.61083838 10.5698545,9.88320046 11.0157964,9.94628159 L13.8261005,10.3433217 C14.9492756,10.5019893 15.3976602,11.8437621 14.5850108,12.6139457 L12.5514792,14.5411115 C12.22874,14.8470179 12.0815685,15.2875468 12.1575969,15.7194671 L12.6375837,18.440713 C12.8294868,19.5282318 11.6554734,20.357489 10.6507683,19.8440827 L8.13709721,18.5593055 C7.73817693,18.3553679 7.26170153,18.3553679 6.86262858,18.5593055 L4.34880484,19.8440827 C3.34425241,20.3576374 2.17023902,19.5282318 2.36198945,18.440713 L2.8419762,15.7194671 C2.9181573,15.2875468 2.77083313,14.8468694 2.44809394,14.5411115 L0.415020293,12.6139457 C-0.397781698,11.8437621 0.0509082063,10.5019893 1.17393064,10.3433217 L3.98423475,9.94628159 C4.4303293,9.88334888 4.81581485,9.6109868 5.01519866,9.21795423 L6.27211052,6.74205679 C6.77438674,5.75264774 8.22579705,5.75264774 8.7279206,6.74205679 Z" id="Shape"></path>
                                <path d="M48.7280483,6.74205679 L49.9849346,9.21795423 C50.1843143,9.61083838 50.5699447,9.88320046 51.0158775,9.94628159 L53.8261244,10.3433217 C54.9492766,10.5019893 55.3976521,11.8437621 54.5850193,12.6139457 L52.551529,14.5411115 C52.2287964,14.8470179 52.0816279,15.2875468 52.1576548,15.7194671 L52.6376318,18.440713 C52.829531,19.5282318 51.6555415,20.357489 50.6508568,19.8440827 L48.1372369,18.5593055 C47.7383247,18.3553679 47.261859,18.3553679 46.8627942,18.5593055 L44.3491743,19.8440827 C43.3446423,20.3576374 42.1706528,19.5282318 42.3623994,18.440713 L42.8423763,15.7194671 C42.9185559,15.2875468 42.7712347,14.8468694 42.4485021,14.5411115 L40.4150118,12.6139457 C39.6022264,11.8437621 40.0509072,10.5019893 41.1739067,10.3433217 L43.9841536,9.94628159 C44.4302391,9.88334888 44.8157168,9.6109868 45.0150966,9.21795423 L46.2719829,6.74205679 C46.7745542,5.75264774 48.2259349,5.75264774 48.7280483,6.74205679 Z" id="Shape"></path>
                            </g>
                            <g id="support-(1)" transform="translate(3.000000, 24.000000)">
                                <path d="M48,59.6411786 L48,65.0357906 C41.3136257,70.0364464 33.0052179,73 24.0007817,73 C14.9963455,73 6.68793767,70.0364464 0,65.0342322 L0,59.6411786 C0,58.1072743 0.86425077,56.7052082 2.23645211,56.010019 L13.4249663,50.3515749 L23.9992183,49 L25.4645986,49.1873162 L25.466162,49.1873162 L34.5751901,50.3515749 L45.7637042,56.010019 C47.1359056,56.7052082 48,58.1072743 48,59.6411786 Z" id="Shape" fill="#C6D7E0"></path>
                                <path d="M26,49.1869815 L16.7012076,50.34916 L5.27745136,55.9974938 C3.87639904,56.6915964 2.99397712,58.0910018 2.99397712,59.6221654 L2.99397712,67 C1.96485735,66.3774544 0.965747579,65.7125968 0,65.0055828 L0,59.6221654 C0,58.0910018 0.882421921,56.6914408 2.28347424,55.9974938 L13.7072305,50.34916 L24.5038096,49 L26,49.1869815 Z" id="Shape" fill="#A1B4BE"></path>
                                <rect id="Rectangle-path" fill="#FECD9C" x="16" y="43" width="15" height="9"></rect>
                                <g id="Group" transform="translate(3.000000, 21.000000)">
                                    <ellipse id="Oval" fill="#E7A42D" cx="4.58563258" cy="4.4876087" rx="4.55674621" ry="4.46493478"></ellipse>
                                    <ellipse id="Oval" fill="#E7A42D" cx="36.4143674" cy="4.4876087" rx="4.55674621" ry="4.46493478"></ellipse>
                                    <path d="M17.2577386,20.1266739 L13.3706591,20.1265217 L13.3706591,20.1266739 L13.3705038,20.1266739 L13.3705038,24.0544348 C13.3705038,24.0544348 13.3706591,24.0544348 13.3706591,24.054587 L13.3706591,27.9408043 L17.2577386,27.9408043 C17.2577386,26.6249565 18.3759205,25.5670435 19.717428,25.6288261 C19.9767841,25.6406957 20.2375379,25.6467826 20.4996894,25.6467826 C23.2474659,25.6467826 25.8380758,24.9846739 28.114197,23.8153696 L28.114197,20.1265217 L17.2577386,20.1265217 L17.2577386,20.1266739 Z" id="Shape" fill="#EAB689"></path>
                                </g>
                                <path d="M41,13.7614582 L8,12 L8,30.4562559 C8,39.5930473 15.3871766,47 24.4999219,47 C33.6125112,47 40.9998439,39.5932038 40.9998439,30.4562559 L40.9998439,13.7614582 L41,13.7614582 Z" id="Shape" fill="#F8C923"></path>
                                <path d="M26.4848821,5 L16.4378007,5.84593808 C14.9051898,5.84593808 13.4922148,6.34338891 12.3587003,7.18012052 L11.6789019,7.18012052 L11.6789019,7.75454341 C10.4470099,8.94459189 9.68388542,10.5931524 9.68388542,12.4152774 L7.10636193,21.3411692 C7.10636193,22.5031455 6.61385338,23.4681639 7.74845405,23.6679894 L7.74845405,30.0488226 C7.74845405,38.8583508 15.0907728,46 24.1481819,46 C24.7593953,46 25.3625398,45.9663436 25.9565293,45.9029548 C17.7502258,45.0272844 11.3649937,38.2637039 11.3649937,30.0486717 L11.3649937,20.6363466 C11.3649937,19.164369 12.5428867,17.9184781 14.0550152,17.8605226 C14.1026523,17.8585606 14.1502894,17.857806 14.1985471,17.857806 C15.7417096,17.857806 17.2435969,18.3617466 18.4461618,19.3026169 C20.0065481,20.5236051 22.0057542,21.509904 24.1481819,21.254387 C28.4156583,20.7451639 28.2898157,18.0032983 29.850202,16.782461 C31.0526118,15.8415907 32.5544991,15.3376501 34.0978167,15.3376501 L34.1643845,15.3376501 C36.1369014,15.3376501 37.6769605,14.6212062 37.6797535,16.5397726 C37.6817707,17.8315449 38.7279247,23.7254921 40.0560219,23.7544698 C40.7490097,23.7695624 41.3791537,23.502424 41.8313182,23.0620231 C42.2712242,22.6341489 41.7116824,22.0431242 41.7116824,21.3896163 L41.1131929,19.2085902" id="Shape" fill="#E7A42D"></path>
                                <path d="M42,13.2130219 L42,21.5468428 C42,22.2246183 41.7265871,22.8375903 41.284164,23.2813533 C40.8292562,23.7384213 40.1953503,24.0151666 39.4987094,23.999357 C38.1616082,23.9691467 37.1088438,22.8385295 37.1088438,21.4973793 L37.1088438,20.2376248 C37.1088438,19.2394321 36.7057471,18.3370359 36.0534265,17.6828964 C35.4011059,17.0286005 34.501434,16.6242831 33.506411,16.6242831 C31.9544185,16.6242831 30.4442495,17.1467807 29.2341791,18.1230592 C27.6654885,19.3886053 25.6710728,20.1469938 23.4993758,20.1469938 C21.328459,20.1469938 19.3341994,19.3887619 17.7653527,18.1230592 C17.5579522,17.9552589 17.3413443,17.8018593 17.1174017,17.6617649 C17.1149048,17.6592604 17.1114715,17.6575385 17.1091306,17.6558167 C16.6827814,17.3890894 16.2294341,17.1726082 15.7578282,17.0074689 C15.0337211,16.7549858 14.2685709,16.6241266 13.4917163,16.6241266 C11.5030748,16.6241266 9.89100012,18.2437439 9.89100012,20.2390336 L9.89100012,21.547469 C9.89100012,22.2243053 9.61758727,22.8382165 9.17438378,23.2819794 C8.73196059,23.7257423 8.12083917,23.9999831 7.44510992,23.9999831 C6.09458775,23.9999831 5,22.9020808 5,21.5466863 L5,13.2128653 C5,5.91574344 10.8971032,0 18.1721948,0 L28.8273371,0 C36.1021165,0.000156530136 42,5.91589997 42,13.2130219 Z" id="Shape" fill="#474F70"></path>
                                <path d="M14.0376668,13.2127884 C14.0376668,5.91570901 19.8408164,0 27,0 L17.9623332,0 C10.8031496,0 5,5.91570901 5,13.2127884 L5,21.5467175 C5,22.902104 6.0771486,24 7.40615402,24 C8.07096387,24 8.67250237,23.7257608 9.10787681,23.2820004 C9.5440191,22.8382401 9.81307589,22.2243325 9.81307589,21.5475001 L9.81307589,20.2390723 C9.81307589,18.2436377 11.3996203,16.6241864 13.3564249,16.6241864 C13.5849389,16.6241864 13.8117636,16.6395262 14.0376668,16.6628491 L14.0376668,13.212945 L14.0376668,13.2127884 Z" id="Shape" fill="#323B5B"></path>
                                <path d="M20.9886466,25.6863823 C20.8970475,26.4438857 20.2284832,27 19.4653651,27 L15.4998567,27 C15.085717,27 14.7107673,26.8325126 14.4390805,26.5608315 C14.1282035,26.249028 13.9524702,25.8008398 14.0112553,25.3136177 C14.1026989,24.5561143 14.7714187,24 15.5345368,24 L19.5000452,24 C19.9141849,24 20.2891345,24.1674874 20.5608214,24.4391685 C20.8718539,24.751283 21.0477427,25.1993157 20.9886466,25.6863823 Z" id="Shape" fill="#E7A42D"></path>
                                <path d="M20.988646,26.6863823 C20.8970449,27.4438857 20.2284658,28 19.4653307,28 L15.4998899,28 C15.085741,28 14.7107831,27.8325126 14.4390902,27.5608315 C14.1282064,27.249028 13.9524691,26.8008398 14.0112556,26.3136177 C14.1027011,25.5561143 14.7714358,25 15.5345708,25 L19.5001671,25 C19.914316,25 20.289274,25.1674874 20.5609668,25.4391685 C20.8718507,25.7511275 21.0477434,26.1991602 20.988646,26.6863823 Z" id="Shape" fill="#FFFFFF"></path>
                                <path d="M34.5000555,24 L30.4999444,24 C29.6714289,24 29,24.6717648 29,25.5 C29,26.3285462 29.6717399,27 30.4999444,27 L34.5000555,27 C35.3285711,27 36,26.3282352 36,25.5 C36.0001555,24.6714538 35.3285711,24 34.5000555,24 Z" id="Shape" fill="#E7A42D"></path>
                                <path d="M34.5000555,25 L30.4999444,25 C29.6714289,25 29,25.6717648 29,26.5 C29,27.3285462 29.6717399,28 30.4999444,28 L34.5000555,28 C35.3285711,28 36,27.3282352 36,26.5 C36.0001555,25.6716093 35.3285711,25 34.5000555,25 Z" id="Shape" fill="#FFFFFF"></path>
                                <path d="M36.0816878,21 L28.9183122,21 C28.4111795,21 28,21.4477557 28,22 C28,22.5522443 28.4111795,23 28.9183122,23 L36.0816878,23 C36.5888205,23 37,22.5522443 37,22 C37,21.4475717 36.5888205,21 36.0816878,21 Z" id="Shape" fill="#E7A42D"></path>
                                <g id="Group" transform="translate(15.000000, 25.000000)" fill="#474F70">
                                    <path d="M4.05374194,1.0269 C4.05374194,2.08935 3.1736129,2.9511 2.08816129,2.9511 C1.0028629,2.9511 0.122580645,2.0895 0.122580645,1.0269 C0.122580645,0.67335 0.220185484,0.34215 0.391032258,0.05745 L3.78529032,0.05745 C3.95598387,0.34215 4.05374194,0.67335 4.05374194,1.0269 Z" id="Shape"></path>
                                    <path d="M18.9967823,1.0269 C18.9967823,2.08935 18.1166532,2.9511 17.0312016,2.9511 C15.9459032,2.9511 15.065621,2.0895 15.065621,1.0269 C15.065621,0.67335 15.1632258,0.34215 15.3340726,0.05745 L18.7283306,0.05745 C18.8991774,0.34215 18.9967823,0.67335 18.9967823,1.0269 Z" id="Shape"></path>
                                </g>
                                <g id="Group" transform="translate(13.000000, 21.000000)" fill="#E7A42D">
                                    <path d="M0.9909,0.0537173913 C0.5418,0.0537173913 0.15675,0.410108696 0.14865,0.865413043 C0.1404,1.3293913 0.5085,1.70815217 0.96405,1.70815217 L5.4327,1.70815217 C7.20705,1.70815217 8.6454,3.16734783 8.6454,4.96741304 L8.6454,13.0423696 L9.45495,13.0423696 C10.4949,13.0423696 11.3379,12.187 11.3379,11.1321304 L11.3379,2.54282609 C11.3379,1.16823913 10.23945,0.0538695652 8.8845,0.0538695652 L0.9909,0.0537173913 Z" id="Shape"></path>
                                    <path d="M13.66965,15.7454348 C11.9037,16.3358696 9.9963,16.3358696 8.23035,15.7454348 C7.7586,15.5893043 7.2192,15.7763261 7.00935,16.2243261 C6.79965,16.6708043 7.08945,17.2533261 7.67685,17.4491739 C9.80205,18.1596739 12.0975,18.1596739 14.2227,17.4491739 C14.81025,17.2534783 15.09975,16.6706522 14.8902,16.2243261 C14.68095,15.7761739 14.1414,15.5894565 13.66965,15.7454348 Z" id="Shape"></path>
                                    <path d="M11.90745,19.1786304 L9.9924,19.1786304 C9.50415,19.1786304 9.1083,19.5802174 9.1083,20.0755435 C9.1083,20.5708696 9.50415,20.9724565 9.9924,20.9724565 L11.90745,20.9724565 C12.3957,20.9724565 12.79155,20.5708696 12.79155,20.0755435 C12.7917,19.5800652 12.3957,19.1786304 11.90745,19.1786304 Z" id="Shape"></path>
                                </g>
                                <g id="Group" transform="translate(13.000000, 47.000000)" fill="#A1B4BE">
                                    <path d="M3.02133333,0.226515152 L10.1788194,3.26878788 C10.9164306,3.58242424 11.2190833,4.45984848 10.8291944,5.15560606 L8.51125,9.29348485 C8.061625,10.0963636 6.95031944,10.224697 6.32652778,9.54621212 L0.427777778,3.13 C-0.116111111,2.53848485 -0.0207777778,1.60954545 0.631888889,1.13863636 L1.69109722,0.37469697 C2.07716667,0.0965151515 2.58270833,0.0403030303 3.02133333,0.226515152 Z" id="Shape"></path>
                                    <path d="M18.9786667,0.226515152 L11.8211806,3.26878788 C11.0835694,3.58242424 10.7809167,4.45984848 11.1708056,5.15560606 L13.48875,9.29348485 C13.938375,10.0963636 15.0496806,10.224697 15.6734722,9.54621212 L21.5722222,3.13 C22.1161111,2.53848485 22.0207778,1.60954545 21.3681111,1.13863636 L20.3089028,0.37469697 C19.9228333,0.0965151515 19.4174444,0.0403030303 18.9786667,0.226515152 Z" id="Shape"></path>
                                </g>
                                <g id="Group" transform="translate(22.000000, 58.000000)" fill="#FFFFFF">
                                    <ellipse id="Oval" cx="1.5" cy="1.82615385" rx="1.49604545" ry="1.68784615"></ellipse>
                                    <ellipse id="Oval" cx="1.5" cy="8.25630769" rx="1.49604545" ry="1.68784615"></ellipse>
                                </g>
                            </g>
                        </g>
                    </g>
                </g>
            </g>
        </g>
    </g>
</svg>