<svg xmlns="http://www.w3.org/2000/svg" width="25" height="23" viewBox="0 0 25 23">
    <g fill="#383838" fill-rule="nonzero">
        <path d="M18.575 18.685c-4.18.147-8.088-2.342-9.723-6.193-1.634-3.85-.71-8.39 2.3-11.295a.478.478 0 0 0-.35-.822 11.081 11.081 0 0 0-3.953.88 11.054 11.054 0 0 0-5.97 6.074 11.054 11.054 0 0 0 .075 8.516 11.054 11.054 0 0 0 6.074 5.97 11.054 11.054 0 0 0 8.516-.075 11.08 11.08 0 0 0 3.38-2.233.478.478 0 0 0-.35-.822zM15.17 20.86c-5.163 2.191-11.146-.226-13.337-5.389C-.357 10.31 2.06 4.326 7.222 2.135a10.166 10.166 0 0 1 2.398-.688 11.117 11.117 0 0 0-2.292 4.768 11.057 11.057 0 0 0 .644 6.65 11.057 11.057 0 0 0 4.337 5.084 11.117 11.117 0 0 0 5.022 1.664c-.662.5-1.386.918-2.16 1.247z"/>
        <path d="M17.29 4.532a.478.478 0 0 0-.482-.149l-1.58.416-1.239-1.067a.478.478 0 0 0-.789.335L13.107 5.7l-1.397.848a.478.478 0 0 0 .075.854l1.523.593.375 1.59a.478.478 0 0 0 .835.193l1.035-1.265 1.628.135a.477.477 0 0 0 .442-.735l-.884-1.375.632-1.507a.478.478 0 0 0-.08-.498zM15.76 6.4a.478.478 0 0 0 .039.443l.496.771-.914-.075a.478.478 0 0 0-.41.173l-.58.71-.21-.892a.478.478 0 0 0-.292-.336l-.854-.332.783-.476a.478.478 0 0 0 .23-.382l.052-.915.694.598c.12.103.282.14.434.1l.886-.233-.354.846zM24.01 8.799a.478.478 0 0 0-.482-.149l-1.58.415L20.708 8a.478.478 0 0 0-.79.335l-.092 1.632-1.397.848a.478.478 0 0 0 .075.854l1.522.593.375 1.59a.478.478 0 0 0 .836.193l1.034-1.265 1.629.135a.477.477 0 0 0 .441-.735l-.883-1.375.631-1.507a.478.478 0 0 0-.08-.498zm-1.53 1.868a.478.478 0 0 0 .039.443l.495.771-.913-.076a.478.478 0 0 0-.41.174l-.58.71-.21-.892a.478.478 0 0 0-.292-.336l-.855-.333.784-.475a.478.478 0 0 0 .23-.382l.051-.915.695.598c.12.103.281.14.433.1l.887-.233-.354.846zM12.283 18.723a11.176 11.176 0 0 1-2.354-1.84.478.478 0 1 0-.683.67 12.13 12.13 0 0 0 2.556 1.997.478.478 0 1 0 .481-.827zM14.24 19.605a9.958 9.958 0 0 1-.776-.29.478.478 0 1 0-.372.88c.28.118.567.225.852.319a.476.476 0 0 0 .603-.306.478.478 0 0 0-.306-.603z"/>
    </g>
</svg>
