<?xml version="1.0" encoding="UTF-8"?>
<svg width="74px" height="82px" viewBox="0 0 74 82" version="1.1" xmlns="http://www.w3.org/2000/svg" xmlns:xlink="http://www.w3.org/1999/xlink">
    <!-- Generator: Sketch 51.3 (57544) - http://www.bohemiancoding.com/sketch -->
    <title>point-of-service</title>
    <desc>Created with Sketch.</desc>
    <defs></defs>
    <g id="Page-1" stroke="none" stroke-width="1" fill="none" fill-rule="evenodd">
        <g id="4_hotel_Add_Rooms" transform="translate(-788.000000, -1346.000000)" fill-rule="nonzero">
            <g id="almatar-features" transform="translate(0.000000, 1184.000000)">
                <g id="Group-13" transform="translate(333.000000, 80.000000)">
                    <g id="Group-7" transform="translate(418.666667, 82.000000)">
                        <g id="point-of-service" transform="translate(37.000000, 0.000000)">
                            <path d="M46.5347024,81.5048544 L6.62063746,81.5048544 C2.96410961,81.5048544 0,78.5271167 0,74.8537772 L0,6.65107717 C0,2.9777377 2.96410961,0 6.62063746,0 L46.5347024,0 C50.1912302,0 53.1553398,2.9777377 53.1553398,6.65107717 L53.1553398,74.8537772 C53.1553398,78.5271167 50.1912302,81.5048544 46.5347024,81.5048544 Z" id="Shape" fill="#C6D7E0"></path>
                            <path d="M69.877301,56.6990291 L53.1553398,56.6990291 L53.1553398,11.3398058 L69.877301,11.3398058 C71.6009515,11.3398058 73,12.7388544 73,14.4625049 L73,53.5749126 C73,55.2999806 71.6009515,56.6990291 69.877301,56.6990291 Z" id="Shape" fill="#556080"></path>
                            <rect id="Rectangle-path" fill="#3C494E" x="58.8252427" y="11.3398058" width="4.96116505" height="45.3592233"></rect>
                            <circle id="Oval" fill="#A4E869" cx="69.4563107" cy="18.4271845" r="1.41747573"></circle>
                            <circle id="Oval" fill="#ED7161" cx="69.4563107" cy="25.5145631" r="1.41747573"></circle>
                            <rect id="Rectangle-path" fill="#B1D194" x="7.08737864" y="12.0485437" width="38.9805825" height="15.592233"></rect>
                            <path d="M14.1747573,7.7961165 L5.66990291,7.7961165 C4.88745631,7.7961165 4.25242718,7.16250485 4.25242718,6.37864078 C4.25242718,5.5947767 4.88745631,4.96116505 5.66990291,4.96116505 L14.1747573,4.96116505 C14.9572039,4.96116505 15.592233,5.5947767 15.592233,6.37864078 C15.592233,7.16250485 14.9572039,7.7961165 14.1747573,7.7961165 Z" id="Shape" fill="#FEFEFE"></path>
                            <rect id="Rectangle-path" fill="#E7EFF1" x="8.50485437" y="34.0194175" width="8.50485437" height="7.08737864"></rect>
                            <rect id="Rectangle-path" fill="#E7EFF1" x="21.9708738" y="34.0194175" width="8.50485437" height="7.08737864"></rect>
                            <rect id="Rectangle-path" fill="#F65246" x="36.1456311" y="34.0194175" width="8.50485437" height="7.08737864"></rect>
                            <rect id="Rectangle-path" fill="#E7EFF1" x="8.50485437" y="45.3592233" width="8.50485437" height="7.08737864"></rect>
                            <rect id="Rectangle-path" fill="#E7EFF1" x="21.9708738" y="45.3592233" width="8.50485437" height="7.08737864"></rect>
                            <rect id="Rectangle-path" fill="#F5D758" x="36.1456311" y="45.3592233" width="8.50485437" height="7.08737864"></rect>
                            <rect id="Rectangle-path" fill="#E7EFF1" x="8.50485437" y="55.9902913" width="8.50485437" height="7.08737864"></rect>
                            <rect id="Rectangle-path" fill="#E7EFF1" x="21.9708738" y="55.9902913" width="8.50485437" height="7.08737864"></rect>
                            <rect id="Rectangle-path" fill="#E7EFF1" x="8.50485437" y="67.3300971" width="8.50485437" height="7.08737864"></rect>
                            <rect id="Rectangle-path" fill="#E7EFF1" x="21.9708738" y="67.3300971" width="8.50485437" height="7.08737864"></rect>
                            <rect id="Rectangle-path" fill="#1FD483" x="36.1456311" y="55.9902913" width="8.50485437" height="19.8446602"></rect>
                            <g id="Group" transform="translate(19.135922, 15.592233)" fill="#70845A">
                                <path d="M3.70924071,0.104947722 C3.36933981,-0.0327109783 2.98486173,-0.0327109783 2.64496083,0.104947722 C2.47361734,0.174458551 2.32038333,0.273954444 2.19083093,0.400709485 L0.799187479,1.76230396 C0.254510211,2.29522031 0.254510211,3.15660941 0.799187479,3.68952577 C1.07082959,3.95530246 1.42744694,4.08887229 1.78406428,4.08887229 L1.78406428,8.17774459 C1.78406428,8.93146004 2.40814463,9.54070202 3.17710077,9.54070202 C3.94605691,9.54070202 4.57013726,8.93146004 4.57013726,8.17774459 L4.57013726,1.36295743 C4.57013726,1.18577296 4.53252528,1.0085885 4.46287345,0.842307692 C4.32217677,0.508383122 4.05053465,0.242606423 3.70924071,0.104947722 Z" id="Shape"></path>
                                <path d="M16.2465691,0.104947722 C15.9066682,-0.0327109783 15.5221902,-0.0327109783 15.1822893,0.104947722 C15.0109458,0.174458551 14.8577118,0.273954444 14.7281594,0.400709485 L13.3365159,1.76230396 C12.7918386,2.29522031 12.7918386,3.15660941 13.3365159,3.68952577 C13.608158,3.95530246 13.9647754,4.08887229 14.3213927,4.08887229 L14.3213927,8.17774459 C14.3213927,8.93146004 14.945473,9.54070202 15.7144292,9.54070202 C16.4833853,9.54070202 17.1074657,8.93146004 17.1074657,8.17774459 L17.1074657,1.36295743 C17.1074657,1.18577296 17.0698537,1.0085885 17.0002019,0.842307692 C16.8595052,0.508383122 16.5878631,0.242606423 16.2465691,0.104947722 Z" id="Shape"></path>
                                <path d="M9.15740643,5.85117625 L7.76436994,7.21413368 C7.21969267,7.74705004 7.21969267,8.60843913 7.76436994,9.14135549 C8.03601205,9.40713219 8.39262939,9.54070202 8.74924674,9.54070202 C9.10586408,9.54070202 9.46248142,9.40713219 9.73412354,9.14135549 L11.12716,7.77839806 C11.6718373,7.2454817 11.6718373,6.38409261 11.12716,5.85117625 C10.5824828,5.3182599 9.7020837,5.3182599 9.15740643,5.85117625 Z" id="Shape"></path>
                                <path d="M22.5723478,0.842307692 C22.4316512,0.508383122 22.160009,0.242606423 21.8187151,0.104947722 C21.4788142,-0.0327109783 21.0943361,-0.0327109783 20.7544352,0.104947722 C20.5830917,0.174458551 20.4298577,0.273954444 20.3003053,0.400709485 L18.9086619,1.76230396 C18.3639846,2.29522031 18.3639846,3.15660941 18.9086619,3.68952577 C19.180304,3.95530246 19.5369213,4.08887229 19.8935387,4.08887229 L19.8935387,8.17774459 C19.8935387,8.93146004 20.517619,9.54070202 21.2865752,9.54070202 C22.0555313,9.54070202 22.6796117,8.93146004 22.6796117,8.17774459 L22.6796117,1.36295743 C22.6796117,1.18577296 22.6419997,1.0085885 22.5723478,0.842307692 Z" id="Shape"></path>
                            </g>
                        </g>
                    </g>
                </g>
            </g>
        </g>
    </g>
</svg>