<?xml version="1.0" encoding="UTF-8"?>
<svg width="75px" height="74px" viewBox="0 0 75 74" version="1.1" xmlns="http://www.w3.org/2000/svg" xmlns:xlink="http://www.w3.org/1999/xlink">
    <!-- Generator: Sketch 51.3 (57544) - http://www.bohemiancoding.com/sketch -->
    <title>reliability</title>
    <desc>Created with Sketch.</desc>
    <defs></defs>
    <g id="Page-1" stroke="none" stroke-width="1" fill="none" fill-rule="evenodd">
        <g id="About-Us" transform="translate(-674.000000, -2659.000000)" fill-rule="nonzero">
            <g id="almatar-features" transform="translate(0.000000, 2488.000000)">
                <g id="Group-13" transform="translate(232.000000, 80.000000)">
                    <g id="Group-7" transform="translate(404.833333, 91.000000)">
                        <g id="reliability" transform="translate(38.000000, 0.000000)">
                            <polygon id="Shape" fill="#5D9AA4" points="74 69 64 69 65.25 46 74 46"></polygon>
                            <polygon id="Shape" fill="#3B869E" points="74 70 64 70 65.25 67 74 67"></polygon>
                            <path d="M25.5,68 C9.87191158,60.1364976 0.000622558594,44.0630528 0,26.4804319 L0,7.69811321 L25.5,0 L51,7.69811321 L51,26.4804319 C51,44.0630528 41.1280884,60.1364976 25.5,68 Z" id="Shape" fill="#A1B4BE"></path>
                            <path d="M10,54.7513808 C14.2999639,60.3220304 19.8099837,64.8519191 26.1180719,68 C41.9802311,60.1017968 52,43.9574215 52,26.2972103 L52,7.43200723 L43.8613468,5 C37.4925979,24.4227084 25.7572666,41.6651052 10,54.7513808 Z" id="Shape" fill="#A1B4BE"></path>
                            <path d="M29.2387696,53.8994932 L26,56 L22.7612304,53.8994932 C13.5609653,47.931799 8,37.653505 8,26.6176098 L8,14.4864865 L26,8 L44,13.1891892 L44,26.6176098 C44,37.653505 38.4390347,47.931799 29.2387696,53.8994932 Z" id="Shape" fill="#F2F6FB"></path>
                            <path d="M17,48.2335278 C18.7243803,50.0141128 20.6504829,51.5899177 22.7399743,52.9297267 L25.9819853,55 L29.2239963,52.9297267 C38.4334692,47.0479281 44,36.917574 44,26.0405233 L44,12.8053837 L41.1683464,12 C35.6709414,25.5822661 27.4480856,37.9102564 17,48.2335278 Z" id="Shape" fill="#C8D7DF"></path>
                            <path d="M59.3448276,43.333307 L56.7931034,36.9444291 L56.7931034,32.4722145 C56.7931034,30.0021395 54.7939622,28 52.3275862,28 C49.8612102,28 47.862069,30.0021395 47.862069,32.4722145 L47.862069,35.960517 C47.862069,36.6106351 47.9860419,37.2545142 48.2271349,37.857839 L50.4137931,43.333307 L33.8275862,43.333307 C31.7138167,43.333307 30,45.0496941 30,47.1666338 C30,49.2835735 31.7138167,50.9999605 33.8275862,50.9999605 L35.1034483,50.9999605 C32.9896788,50.9999605 31.2758621,52.7163476 31.2758621,54.8332873 C31.2758621,56.950227 32.9896788,58.666614 35.1034483,58.666614 L36.3793103,58.666614 C34.2655409,58.666614 32.5517241,60.3830011 32.5517241,62.4999408 C32.5517241,64.6168805 34.2655409,66.3332676 36.3793103,66.3332676 L37.3362069,66.3332676 L37.3362069,66.3650872 C35.2866043,66.5241851 33.7310243,68.2798788 33.8169956,70.3369228 C33.9029667,72.3933428 35.5999629,74.0130232 37.6551724,73.9999211 L59.3448276,73.9999211 L67,68.8888187 L67,45.8888582 L59.3448276,43.333307 Z" id="Shape" fill="#F6BB92"></path>
                            <path d="M56.7843312,37.0588235 L56.7843312,32.5294118 C56.7843312,30.0277458 54.7834718,28 52.3149761,28 C49.8464805,28 47.8456211,30.0277458 47.8456211,32.5294118 L47.8456211,36.0623277 C47.8456211,36.7207605 47.9697006,37.3728745 48.2110007,37.9839154 L50.3995382,43.5294118 L33.7990765,43.5294118 C31.812558,43.5338351 30.1608668,45.0800782 30,47.0869716 C30,47.3460478 30.0118468,47.6190257 30.0180819,47.9115924 C30.2593822,49.8420267 31.8786505,51.2909582 33.7990765,51.2941176 L35.0760351,51.2941176 C32.9604489,51.2941176 31.2451593,53.0324564 31.2451593,55.1764706 C31.2451593,57.3204848 32.9604489,59.0588235 35.0760351,59.0588235 L36.3529937,59.0588235 C34.2374075,59.0588235 32.5221179,60.7971623 32.5221179,62.9411765 C32.5221179,65.0851907 34.2374075,66.8235294 36.3529937,66.8235294 L37.3107126,66.8235294 L37.3107126,66.855756 C36.1247871,66.9391659 35.0467298,67.584329 34.4020155,68.5966223 C33.7573009,69.6089154 33.6207511,70.8701746 34.0341416,72 L59.3382484,72 L67,66.8235294 L67,46.1176471 L59.3382484,43.5294118 L56.7843312,37.0588235 Z" id="Shape" fill="#F8C923"></path>
                            <path d="M70.2762257,42 L68.0303301,40.7434605 C68.2621887,40.3233486 68.4783813,39.8943789 68.6782809,39.4552861 L71.0087736,40.5384662 C70.7831814,41.0376654 70.53691,41.5248433 70.2762257,42 Z M71.9919795,37.9728731 L69.5461843,37.1952865 C69.7874426,36.4240268 69.9804492,35.6375823 70.1233243,34.8410148 L72.6493302,35.3047829 C72.4857759,36.2076439 72.2664501,37.0984836 71.9919795,37.9728731 Z M72.968919,32.5708919 L70.4021813,32.4215751 C70.4228605,32.0603042 70.4328868,31.6952369 70.4328868,31.3282719 C70.4328868,30.8790557 70.4178473,30.4342685 70.3877684,29.9939103 L72.9482398,29.8186528 C72.9814519,30.317852 72.998998,30.8214801 72.9996246,31.3282719 C73.0021313,31.7445875 72.992105,32.1590051 72.968919,32.5708919 Z M70.0800858,27.5845938 C69.9265577,26.7905569 69.7241515,26.0066434 69.4741201,25.2379145 L71.9123957,24.4267947 C72.197519,25.2992862 72.4268712,26.1894933 72.6004518,27.0910888 L70.0800858,27.5845938 Z M68.5798977,22.9874054 C68.2346164,22.2572711 67.8454698,21.5492814 67.4143381,20.8672322 L69.5756365,19.473397 C70.065673,20.245922 70.506831,21.0494494 70.8972309,21.8782847 L68.5798977,22.9874054 Z M65.9937341,18.9083971 C65.4811384,18.2845563 64.9303174,17.6942483 64.3444045,17.1406371 L66.0990104,15.2488681 C66.7626273,15.8765051 67.3867657,16.5452676 67.9676656,17.2507266 L65.9937341,18.9083971 Z M62.490162,15.5936888 C61.8409578,15.1197975 61.1635545,14.6870317 60.4610855,14.2979219 L61.699336,12.0277992 C62.4964284,12.4713209 63.2646952,12.964826 64.0003763,13.5051506 L62.490162,15.5936888 Z M58.2872542,13.2615616 C57.54092,12.9629279 56.7770398,12.7123792 56,12.5099156 L56.6416844,10 C57.5233739,10.2284042 58.3893974,10.5137513 59.235368,10.8522451 L58.2872542,13.2615616 Z" id="Shape" fill="#6FB13A"></path>
                            <path d="M63.999939,31 L61.4889581,31 C61.4993793,27.7038246 59.5003295,24.7371436 56.4493417,23.5226335 L56,23.3415655 L56.9342384,21 L57.3823542,21.180452 C61.3884232,22.7743425 64.0145899,26.6709984 63.999939,31 Z" id="Shape" fill="#F7BA61"></path>
                            <path d="M0.4344324,33 L51,18.0365816 L51,13 L0,28.0919153 C0.0548494329,29.7347065 0.200075732,31.373194 0.4344324,33 Z" id="Shape" fill="#6FB13A"></path>
                            <path d="M44,15 L8,25.9175424 L8,26.1136318 C8.00627782,27.7496132 8.13560268,29.3836909 8.38546325,31 L44,20.198588 L44,15 Z" id="Shape" fill="#649F34"></path>
                            <path d="M0.996400664,38 L51,23.1112151 L51,18 L0,33.1851504 C0.245171232,34.8067383 0.577723856,36.4139759 0.996400664,38 Z" id="Shape" fill="#FD897D"></path>
                            <path d="M9.11560013,35 L44,24.9779218 L44,20 L8,30.3429208 C8.24685348,31.920397 8.61935484,33.4772128 9.11560013,35 Z" id="Shape" fill="#EA6B65"></path>
                        </g>
                    </g>
                </g>
            </g>
        </g>
    </g>
</svg>