<?xml version="1.0" encoding="UTF-8"?>
<svg width="71px" height="63px" viewBox="0 0 71 63" version="1.1" xmlns="http://www.w3.org/2000/svg" xmlns:xlink="http://www.w3.org/1999/xlink">
    <!-- Generator: Sketch 51.3 (57544) - http://www.bohemiancoding.com/sketch -->
    <title>sale</title>
    <desc>Created with Sketch.</desc>
    <defs>
        <linearGradient x1="55.0596078%" y1="64.6760113%" x2="71.8674027%" y2="119.915243%" id="linearGradient-1">
            <stop stop-color="#62E1FB" offset="0%"></stop>
            <stop stop-color="#00A2F3" offset="100%"></stop>
        </linearGradient>
        <linearGradient x1="62.7731242%" y1="76.4051505%" x2="50.2688269%" y2="37.2935262%" id="linearGradient-2">
            <stop stop-color="#00A2F3" stop-opacity="0" offset="0%"></stop>
            <stop stop-color="#0075CD" offset="100%"></stop>
        </linearGradient>
        <linearGradient x1="42.8360919%" y1="28.6224561%" x2="92.9074918%" y2="111.751312%" id="linearGradient-3">
            <stop stop-color="#FF4C54" offset="0%"></stop>
            <stop stop-color="#BE3F45" offset="100%"></stop>
        </linearGradient>
        <linearGradient x1="53.7260486%" y1="79.6881971%" x2="-0.263278154%" y2="10.1684197%" id="linearGradient-4">
            <stop stop-color="#BE3F45" stop-opacity="0" offset="0%"></stop>
            <stop stop-color="#BE3F45" offset="100%"></stop>
        </linearGradient>
        <linearGradient x1="52.8699688%" y1="77.338783%" x2="-5.68244312%" y2="8.26593858%" id="linearGradient-5">
            <stop stop-color="#BE3F45" stop-opacity="0" offset="0%"></stop>
            <stop stop-color="#BE3F45" offset="100%"></stop>
        </linearGradient>
        <linearGradient x1="64.4022228%" y1="76.4734849%" x2="-6.29139301%" y2="18.9772416%" id="linearGradient-6">
            <stop stop-color="#BE3F45" stop-opacity="0" offset="0%"></stop>
            <stop stop-color="#BE3F45" offset="100%"></stop>
        </linearGradient>
        <linearGradient x1="110.659277%" y1="66.2982883%" x2="3.54804726%" y2="14.0127015%" id="linearGradient-7">
            <stop stop-color="#BE3F45" stop-opacity="0" offset="0%"></stop>
            <stop stop-color="#BE3F45" offset="100%"></stop>
        </linearGradient>
        <linearGradient x1="58.3287699%" y1="41.6749584%" x2="34.1833863%" y2="65.8238565%" id="linearGradient-8">
            <stop stop-color="#FFF465" offset="0%"></stop>
            <stop stop-color="#FFE600" offset="100%"></stop>
        </linearGradient>
    </defs>
    <g id="Page-1" stroke="none" stroke-width="1" fill="none" fill-rule="evenodd">
        <g id="About-Us" transform="translate(-278.000000, -2666.000000)" fill-rule="nonzero">
            <g id="almatar-features" transform="translate(0.000000, 2488.000000)">
                <g id="Group-13" transform="translate(232.000000, 80.000000)">
                    <g id="Group-8" transform="translate(0.000000, 98.000000)">
                        <g id="sale" transform="translate(46.000000, 0.000000)">
                            <path d="M53.9623602,58.9478622 L64.5144937,39.1528604 L66.1173127,36.1471736 C66.2886937,35.8228258 66.4348433,35.4926351 66.5554856,35.1587756 C67.1242278,33.5905735 67.1338792,31.9264394 66.6606856,30.4081056 C66.082292,28.5461288 64.7793552,26.9012899 62.8900279,25.9224035 L25.8718702,6.75653053 C23.789791,5.67777162 21.2871872,5.75834902 19.2791479,6.96198253 L5.21349712,15.3997822 C4.44607425,15.8604187 3.79570887,16.4592461 3.28528855,17.1502007 C2.4926342,18.2193121 2.03695101,19.5130347 2.00386055,20.8681754 C2.00193028,20.9333983 2,20.998757 2,21.0620776 C2,21.1828757 2.00386055,21.3039457 2.01171954,21.4266462 L2.02729963,21.6685143 L2.78479537,34.1293414 L2.98926682,37.5112826 C3.13141792,39.816503 4.48109498,41.8818935 6.55724548,42.9567119 L43.5894667,62.1297865 C47.3444064,64.0745147 51.9893416,62.6503464 53.9623602,58.9478622 Z M13.7167797,24.1351613 C13.6700395,24.0890976 13.6292279,24.043034 13.58428,23.9988727 C13.4810102,23.8875862 13.3855994,23.7723591 13.2980476,23.6571321 C11.9873897,21.9334821 12.1276105,19.4842279 13.7167797,17.9199663 C15.4578894,16.2021593 18.2781615,16.2021593 20.0232696,17.9199663 C21.4333367,19.3096209 21.7002664,21.396073 20.8276435,23.0505595 C20.8042044,23.0985254 20.7770426,23.1485296 20.7458825,23.1963597 C20.7205131,23.2443257 20.6912832,23.2903894 20.6602609,23.3383553 C20.5727091,23.4784486 20.4752301,23.6166395 20.37003,23.7491235 C20.3388698,23.7894801 20.3037112,23.8316032 20.2686905,23.8699216 C20.19079,23.9601466 20.1088911,24.046431 20.0232696,24.1348895 C18.2780237,25.851066 15.4578894,25.851066 13.7167797,24.1351613 Z" id="Shape" fill="url(#linearGradient-1)"></path>
                            <path d="M53.9622219,58.9477256 L64.5144673,39.1527293 L66.1173034,36.1470434 C66.2886862,35.8226956 66.4348373,35.492505 66.5554808,35.1586456 C67.1242291,33.5904439 67.1338806,31.9263103 66.660682,30.4079769 C66.0822823,28.5460007 64.7793317,26.9011622 62.8899843,25.922276 L25.871434,6.75654431 C23.7893327,5.6777857 21.2867024,5.75836308 19.2786418,6.96186037 L5.21284181,15.3996577 C4.44637595,15.8597505 3.79669306,16.4576266 3.28654309,17.1476299 L2.95246379,17.6965888 C2.31712025,18.7409695 2,19.9153883 2,21.0895353 C2.00027576,21.1550299 2.00372272,21.221068 2.00634241,21.2869703 C2.00785907,21.3392844 2.00909997,21.3914627 2.01185754,21.4437769 L2.02261205,21.6124051 C2.10354666,22.6164292 2.41584117,23.6061858 2.96335618,24.4996028 L9.6402542,35.3901867 L11.419161,38.2911084 C11.8065992,38.9221394 12.2924826,39.4739518 12.8496491,39.9340446 L26.27721,53.1670795 L43.5888047,62.1300567 C47.3441979,64.0743767 51.9893203,62.6502088 53.9622219,58.9477256 Z M20.8270159,23.0505687 C20.8035766,23.0985347 20.7764145,23.1485389 20.745254,23.1963689 C20.7198844,23.2443349 20.6906542,23.2903985 20.6596315,23.3383645 C20.5720788,23.4784577 20.4745988,23.6166486 20.3695354,23.7491325 C20.3383749,23.7893533 20.3032159,23.8316122 20.2681948,23.8699307 C20.1902936,23.9601556 20.1083938,24.04644 20.0227713,24.1348985 C18.2777827,25.8508027 15.4574806,25.8508027 13.7162146,24.1348985 C13.6694739,24.0888348 13.6286619,24.0427712 13.5837135,23.9986099 C13.4804426,23.8873234 13.3850308,23.7720964 13.297478,23.6570053 C11.9866683,21.9332199 12.1268906,19.4841023 13.7162146,17.9198411 C15.4573427,16.2020346 18.2776448,16.2020346 20.0227713,17.9198411 C21.4327156,19.3094953 21.6995102,21.3959468 20.8270159,23.0505687 Z" id="Shape" fill="url(#linearGradient-2)"></path>
                            <path d="M17.1697183,41 L63.306843,41 C67.5553193,41 71,37.6022333 71,33.4110096 L71,7.59116989 C71,3.39803916 67.5555955,0 63.306843,0 L17.1850458,0 C14.8301358,0 12.6487993,1.22008485 11.4382038,3.21155974 L2.95423114,17.1627812 C1.67790694,19.2625476 1.68232567,21.8867449 2.96513989,23.9824248 L9.65206794,34.8998482 L11.433647,37.8079191 C12.6486612,39.7887692 14.8214364,41 17.1697183,41 Z M20.8557724,22.5306369 C20.8316075,22.5783125 20.8053712,22.6281674 20.7745782,22.675843 C20.7482038,22.7235185 20.7196201,22.771194 20.6889652,22.8188695 C20.6011428,22.9597167 20.5022736,23.0983843 20.3967763,23.2306499 C20.3659832,23.2717871 20.3309095,23.3129242 20.2956977,23.3518819 C20.2187841,23.4430103 20.1352423,23.5295073 20.0496293,23.6162768 C18.3032621,25.3368185 15.478171,25.3368185 13.7338751,23.6162768 C13.6877545,23.5707807 13.6460527,23.5251484 13.6020034,23.4797886 C13.4987155,23.3693176 13.4020557,23.2544876 13.3142333,23.1373421 C12.0028354,21.4101258 12.1434064,18.9549724 13.7338751,17.3860389 C15.4780329,15.6654972 18.303124,15.6654972 20.0496293,17.3860389 C21.4621058,18.7793902 21.7301298,20.8705751 20.8557724,22.5306369 Z" id="Shape" fill="url(#linearGradient-3)"></path>
                            <path d="M59,42 L36.4652396,42 L22.840595,28.2503464 C22.2811561,27.80562 22,27.3494337 22,26.8813733 C22,26.600537 22.1028853,26.3183201 22.3087928,26.0359651 C22.5145635,25.7551289 22.7494758,25.61333 23.0144877,25.61333 C23.1753828,25.61333 23.3695241,25.7098416 23.5985535,25.8984465 C23.8260778,26.0885701 24.050729,26.29471 24.2710021,26.5141047 C24.4912752,26.73488 24.824558,26.941158 25.2739973,27.1312816 C25.7217947,27.3214053 26.2247289,27.4150174 26.7841678,27.4150174 C27.6218898,27.4150174 28.2943384,27.2145384 28.8016507,26.8124759 C29.0538018,26.6106162 29.2452068,26.3634693 29.371214,26.0679975 C29.3479553,26.0431448 29.3248335,26.018292 29.3017117,25.9905398 L23.8683538,20.5073297 C23.6015634,20.2777177 23.3581684,20.017316 23.1350222,19.7219823 C22.6422124,19.065179 22.3973125,18.2447616 22.3973125,17.2604541 C22.3973125,16.4764875 22.5479465,15.7964882 22.8494881,15.2186615 C23.1495247,14.6424916 23.5581929,14.1977652 24.0726195,13.8876579 C24.587183,13.5760318 25.1262364,13.3508382 25.6929266,13.2105581 C26.2581119,13.07014 26.8566801,13 27.4899995,13 C27.8856702,13 28.3015896,13.0248528 28.7350215,13.0774578 C29.1683165,13.128544 29.5988752,13.2120769 30.0249189,13.3304037 C30.4509627,13.4473498 30.8031261,13.6155201 31.082914,13.8364336 L35.8640719,18.6716769 L58.5943418,41.663107 C58.665349,41.7070135 58.7334832,41.7538196 58.7958711,41.8035251 C58.8752242,41.8670377 58.9433583,41.9328975 59,42 Z" id="Shape" fill="url(#linearGradient-4)"></path>
                            <path d="M68,40.3394055 C66.6991423,41.3783274 65.0517818,42 63.2621784,42 L47.3114073,42 L34.4610912,29.0700918 C34.1536058,28.8790304 34,28.6498119 34,28.3828495 C34,28.2953772 34.0057499,28.2281545 34.0217677,28.1843495 L36.9018079,18.7259172 L38.4013127,13.79827 C38.5883229,13.2671002 39.1118422,13 39.9705013,13 C40.8334045,13 41.3613046,13.2436824 41.5540648,13.7281545 L47.5362029,19.7473447 L68,40.3394055 Z" id="Shape" fill="url(#linearGradient-5)"></path>
                            <path d="M71,34.8697735 C70.8612977,36.6816681 70.0856915,38.3219634 68.8924295,39.5679955 C68.6313594,39.8421392 68.3494488,40.0987078 68.0482466,40.3317506 C66.7102272,41.3754617 65.0158064,42 63.1750794,42 L60.4559515,42 L47.3178183,29.088262 C47.1060333,28.9475229 47,28.7569647 47,28.5194934 L47,13.7593268 C47,13.5056643 47.1178617,13.3166283 47.3520362,13.1905582 C47.5863516,13.0644881 47.8695295,13 48.2022742,13 C48.5350188,13 48.8183376,13.0644881 49.054061,13.1905582 L57.8232837,21.8541072 L71,34.8697735 Z" id="Shape" fill="url(#linearGradient-6)"></path>
                            <path d="M71,16.698402 L71,33.8342362 C71,34.0250542 70.9926487,34.2143824 70.9793332,34.402221 C70.8427101,36.1753792 70.0787303,37.7806067 68.9033556,39 L58.3129154,28.7441766 C58.1043051,28.6064464 58,28.4199621 58,28.1875677 L58,13.7646262 C58,13.5322319 58.1043051,13.3457476 58.3129154,13.2080173 C58.5215257,13.0702871 58.7668925,13 59.0505415,13 L67.0065831,13 C67.2593011,13 67.4533476,13.1018418 67.5869192,13.3055255 L71,16.698402 Z" id="Shape" fill="url(#linearGradient-7)"></path>
                            <g id="Group" transform="translate(22.000000, 13.000000)" fill="#FFFFFF">
                                <path d="M0.0566911315,13.4614215 C0.0566911315,13.1916694 0.162195719,12.9216529 0.37404893,12.6517686 C0.585480122,12.3821488 0.827437309,12.2470083 1.0993578,12.2470083 C1.26549235,12.2470083 1.46552905,12.3383802 1.70017125,12.5203306 C1.93439144,12.7024132 2.16481346,12.8987769 2.39143731,13.1098182 C2.61806116,13.3208595 2.9615841,13.5176198 3.42285015,13.6997025 C3.88369419,13.8817851 4.40094801,13.9726281 4.97545566,13.9726281 C5.83679511,13.9726281 6.52806116,13.7798347 7.04953517,13.3943802 C7.57072783,13.0089256 7.83153517,12.4446942 7.83153517,11.7019504 C7.83153517,11.0168595 7.57832416,10.4456198 7.07232416,9.98836364 C6.56590214,9.53163636 5.95383486,9.16747107 5.236263,8.89586777 C4.51840979,8.62466116 3.79689908,8.33190083 3.07173089,8.01771901 C2.34642202,7.70340496 1.73055657,7.23239669 1.2244159,6.6037686 C0.717993884,5.97553719 0.465204893,5.19021488 0.465204893,4.24740496 C0.465204893,3.49633058 0.619944954,2.84456198 0.929847095,2.29183471 C1.23946789,1.73923967 1.65867278,1.3141157 2.18788379,1.01646281 C2.71667278,0.718809917 3.27190826,0.502876033 3.85387156,0.368264463 C4.43527217,0.233785124 5.05113761,0.166214876 5.70104587,0.166214876 C6.10899694,0.166214876 6.53579817,0.190942149 6.98187156,0.240132231 C7.42738226,0.289190083 7.86951682,0.369983471 8.30785321,0.482512397 C8.74604893,0.595041322 9.10870336,0.756363636 9.39581651,0.967140496 C9.68264832,1.17791736 9.8264159,1.41646281 9.8264159,1.68357025 C9.8264159,1.95067769 9.73568196,2.21950413 9.55435474,2.49084298 C9.37302752,2.76218182 9.13107034,2.89758678 8.82904587,2.89758678 C8.6779633,2.89758678 8.47384709,2.83001653 8.21711927,2.69421488 C7.95996942,2.55841322 7.61630581,2.42287603 7.18570642,2.28707438 C6.75510703,2.15153719 6.25979817,2.08370248 5.70104587,2.08370248 C4.83970642,2.08370248 4.15209786,2.24449587 3.63850153,2.56568595 C3.12462385,2.8871405 2.8680367,3.37639669 2.8680367,4.03305785 C2.8680367,4.4614876 3.00406728,4.82935537 3.27598777,5.13639669 C3.54804893,5.44330579 3.89930887,5.69705785 4.32990826,5.89659504 C4.76064832,6.09666116 5.24006116,6.29315702 5.76927217,6.48581818 C6.29806116,6.67861157 6.82319266,6.9031405 7.34452599,7.16033058 C7.86571865,7.41738843 8.34175535,7.71385124 8.77263609,8.04945455 C9.20323547,8.38505785 9.55463609,8.84575207 9.82655657,9.43100826 C10.0986177,10.0165289 10.2345076,10.6950083 10.2345076,11.4660496 C10.2345076,12.9338182 9.76198777,14.0523636 8.81779205,14.8214215 C7.87331498,15.5904793 6.62273394,15.9750083 5.06661162,15.9750083 C3.67606116,15.9750083 2.49398777,15.701686 1.51940673,15.1547769 C0.544122324,14.6086612 0.0566911315,14.0440331 0.0566911315,13.4614215 Z" id="Shape"></path>
                                <path d="M11.3288012,14.869157 C11.3288012,14.7842645 11.3362569,14.7203967 11.3515902,14.677686 L15.8525566,0.868760331 C16.0448563,0.358082645 16.5820856,0.102347107 17.4639633,0.102347107 C18.361737,0.102347107 18.906844,0.340363636 19.0994251,0.816396694 L23.5874495,14.6226777 C23.6175535,14.7119339 23.6327462,14.778843 23.6327462,14.823405 C23.6327462,15.0911736 23.4563425,15.3217851 23.1043792,15.514843 C22.7518532,15.7082975 22.3786483,15.8048264 21.9842018,15.8048264 C21.5071804,15.8048264 21.2112049,15.6503802 21.0958532,15.3410909 L20.1572844,12.2894545 L14.5856575,12.2894545 L13.6583425,15.3332893 C13.5528379,15.6478678 13.2736024,15.8049587 12.8214801,15.8049587 C12.4593884,15.8049587 12.1202263,15.7130579 11.8035719,15.5287273 C11.4871988,15.3442645 11.3288012,15.1246281 11.3288012,14.869157 Z M15.1311865,10.4998347 L19.6304648,10.4998347 L17.3581774,3.18743802 L15.1311865,10.4998347 Z" id="Shape"></path>
                                <path d="M25.2388073,15.0593058 L25.2388073,0.954710744 C25.2388073,0.71338843 25.3555657,0.532231405 25.5900673,0.411371901 C25.8241468,0.29077686 26.1074618,0.230347107 26.4401529,0.230347107 C26.7722813,0.230347107 27.055737,0.290909091 27.2902385,0.411371901 C27.524318,0.532231405 27.6414985,0.71338843 27.6414985,0.954710744 L27.6414985,13.802314 L33.534844,13.802314 C33.7614679,13.802314 33.9388563,13.9018843 34.0674312,14.1006281 C34.1957248,14.2996364 34.2600122,14.5340826 34.2600122,14.8037025 C34.2600122,15.073719 34.1955841,15.3080331 34.0674312,15.5067769 C33.9388563,15.7057851 33.7616086,15.8049587 33.534844,15.8049587 L26.304263,15.8049587 C26.0170092,15.8049587 25.767737,15.7376529 25.5563058,15.6026446 C25.3443119,15.4677686 25.2388073,15.2867438 25.2388073,15.0593058 Z" id="Shape"></path>
                                <path d="M36.0503547,15.0593058 L36.0503547,0.976 C36.0503547,0.748958678 36.1558593,0.567801653 36.3675719,0.432793388 C36.5791437,0.297917355 36.8284159,0.230347107 37.1155291,0.230347107 L45.1848012,0.230347107 C45.4415291,0.230347107 45.6381896,0.329917355 45.7740795,0.528661157 C45.9101101,0.727801653 45.978055,0.954842975 45.978055,1.21044628 C45.978055,1.4947438 45.9061713,1.73619835 45.762685,1.93480992 C45.6189174,2.13395041 45.4263364,2.23299174 45.1848012,2.23299174 L38.4529052,2.23299174 L38.4529052,7.11219835 L41.9435596,7.11219835 C42.1850948,7.11219835 42.3778165,7.20119008 42.5215841,7.3785124 C42.6649297,7.5562314 42.7369541,7.77269421 42.7369541,8.02842975 C42.7369541,8.25573554 42.6690092,8.45818182 42.5328379,8.63563636 C42.3968073,8.81335537 42.2002875,8.90195041 41.9435596,8.90195041 L38.4529052,8.90195041 L38.4529052,13.8024463 L45.1848012,13.8024463 C45.4263364,13.8024463 45.6190581,13.9020165 45.762685,14.1007603 C45.9061713,14.2997686 45.978055,14.5410909 45.978055,14.8249917 C45.978055,15.0807273 45.9101101,15.3080331 45.7740795,15.5067769 C45.6380489,15.7057851 45.4415291,15.8049587 45.1848012,15.8049587 L37.1156697,15.8049587 C36.8284159,15.8049587 36.5791437,15.7376529 36.3677125,15.6026446 C36.1558593,15.4677686 36.0503547,15.2867438 36.0503547,15.0593058 Z" id="Shape"></path>
                            </g>
                            <path d="M17.7563247,21.75635 C16.0981141,23.41455 13.4098408,23.41455 11.7516302,21.75635 L1.24365795,11.2483061 C-0.414552651,9.59010606 -0.414552651,6.90185 1.24365795,5.24365 C2.90186856,3.58545 5.59014181,3.58545 7.24835242,5.24365 L17.7564636,15.7516939 C19.4145353,17.4098939 19.4145353,20.09815 17.7563247,21.75635 Z" id="Shape" fill="url(#linearGradient-8)"></path>
                        </g>
                    </g>
                </g>
            </g>
        </g>
    </g>
</svg>