<?xml version="1.0" encoding="UTF-8"?>
<svg width="68px" height="88px" viewBox="0 0 68 88" version="1.1" xmlns="http://www.w3.org/2000/svg" xmlns:xlink="http://www.w3.org/1999/xlink">
    <!-- Generator: Sketch 51.3 (57544) - http://www.bohemiancoding.com/sketch -->
    <title>support</title>
    <desc>Created with Sketch.</desc>
    <defs></defs>
    <g id="Page-1" stroke="none" stroke-width="1" fill="none" fill-rule="evenodd">
        <g id="About-Us" transform="translate(-880.000000, -2649.000000)" fill-rule="nonzero">
            <g id="almatar-features" transform="translate(0.000000, 2488.000000)">
                <g id="Group-13" transform="translate(232.000000, 80.000000)">
                    <g id="Group-6" transform="translate(590.750000, 81.000000)">
                        <g id="support" transform="translate(58.000000, 0.000000)">
                            <path d="M59,37 L9,37 L9,17.6953782 C9,7.93842103 16.9353195,0 26.6884648,0 L41.3108356,0 C51.0646805,0 58.9993003,7.93842103 58.9993003,17.6953782 L58.9993003,37 L59,37 Z M11.6203837,34.378592 L56.3796163,34.378592 L56.3796163,17.6953782 C56.3796163,9.3838702 49.619796,2.62140785 41.3115352,2.62140785 L26.6891644,2.62140785 C18.380204,2.62140785 11.6203837,9.3838702 11.6203837,17.6953782 L11.6203837,34.378592 Z" id="Shape" fill="#C6D7E0"></path>
                            <path d="M66,38.0010298 C66,41.8671472 62.8655488,45 59,45 C55.1344512,45 52,41.8671472 52,38.0010298 C52,37.4133195 52.0734528,36.8407141 52.2093753,36.294885 C52.9713642,33.2519739 55.7220751,31 59,31 C62.2779249,31 65.0286358,33.2519739 65.7906247,36.294885 C65.9265472,36.8407141 66,37.4133195 66,38.0010298 Z" id="Shape" fill="#E03146"></path>
                            <path d="M67,36.5 C66.2145167,39.6615015 63.3789932,42 60,42 C56.6210068,42 53.7854833,39.6615015 53,36.5 C53.7854833,33.3392116 56.6210068,31 60,31 C63.3789932,31 66.2145167,33.3392116 67,36.5 Z" id="Shape" fill="#FF5787"></path>
                            <path d="M0,38.0010298 C0,41.8671472 3.13445124,45 7,45 C10.8648622,45 14,41.8671472 14,38.0010298 C14,37.4133195 13.926547,36.8407141 13.7906247,36.294885 C13.0286358,33.2519739 10.2772383,31 7,31 C3.72207506,31 0.971364001,33.2519739 0.209375264,36.294885 C0.073452845,36.8407141 0,37.4133195 0,38.0010298 Z" id="Shape" fill="#E03146"></path>
                            <path d="M0,36.5 C0.785483128,39.6615015 3.62100683,42 7,42 C10.3782854,42 13.2145167,39.6615015 14,36.5 C13.2145167,33.3392116 10.3782854,31 7,31 C3.62100683,31 0.785483128,33.3392116 0,36.5 Z" id="Shape" fill="#FF5787"></path>
                            <path d="M56,76.9063547 L56,82.1039842 C51.4423676,84.6816255 46.3941276,86.4977066 41.0315922,87.3835321 C39.8810338,87.5730543 38.7179317,87.7216176 37.5415886,87.8236679 C36.8091617,87.8889247 36.0711597,87.9354373 35.326886,87.9632062 C34.7212922,87.9888925 34.1115173,88 33.5003484,88 C32.1358463,88 30.7880693,87.9409911 29.454927,87.8236679 C26.0736376,87.5286242 22.7982749,86.8656434 19.6685612,85.8756849 C16.6301396,84.9155778 13.7276107,83.6451542 11,82.1039842 L11,76.9063547 C11,69.084571 16.3318725,62.5033596 23.5739086,60.5741205 C23.8387252,60.5033101 24.1049356,60.4387474 24.3753272,60.3811272 C25.0952101,60.2249277 25.8332121,60.1173234 26.5844548,60.056232 C27.0430057,60.018744 27.5050409,60 27.9733481,60 L39.0252582,60 C40.2615335,60 41.465752,60.1305137 42.6253698,60.3811272 C42.6922708,60.3943173 42.7591718,60.4088961 42.824679,60.4234747 C43.020504,60.468599 43.2163288,60.5165001 43.4079723,60.5685667 C43.4135474,60.5706494 43.4170319,60.5706494 43.4233039,60.5720378 C45.3334675,61.0809016 47.1119198,61.9146605 48.6931534,63.0087522 C53.1086211,66.0612402 56,71.1477946 56,76.9063547 Z" id="Shape" fill="#273647"></path>
                            <path d="M44,60 L43.9594406,60.193545 L38.0573427,87.8212346 C36.7216783,87.9401768 35.3678322,88 34.0020979,88 C32.6328673,88 31.2804196,87.9401768 29.9426574,87.8212346 L24.0412588,60.1956565 L24,60 L44,60 Z" id="Shape" fill="#CAF1FF"></path>
                            <polyline id="Shape" fill="#36507D" points="38 66 33.5 73 29 66"></polyline>
                            <path d="M37,87.8130149 C35.6832339,87.9367748 34.3485751,88 33.0013253,88 C31.6520874,88 30.3174288,87.9367748 29,87.8143602 L33.0013253,72 L37,87.8130149 Z" id="Shape" fill="#36507D"></path>
                            <polyline id="Shape" fill="#82E2FF" points="34 66.631587 26.3328671 71 24 59.8771444 28.7643357 57"></polyline>
                            <polyline id="Shape" fill="#82E2FF" points="33 66.631587 40.6671328 71 43 59.8771444 38.2356643 57"></polyline>
                            <path d="M48,61.5805353 L43.1951512,74.1866372 L45.551825,74.1866372 L40.5483837,86.4307143 C39.4293534,86.61684 38.298123,86.7627409 37.1540145,86.8629624 C36.4416579,86.9270497 35.7238789,86.9727288 35,87 L42.9138685,59 L48,61.5805353 Z" id="Shape" fill="#151A1C"></path>
                            <path d="M18,62.4116869 L22.8048489,75.1015246 L20.4481753,75.1015246 L25.4516163,87.4269328 C26.5706465,87.6142949 27.7018769,87.7611649 28.8459853,87.8620521 C29.558342,87.9265652 30.2761208,87.9725477 31,88 L23.1403545,60 L18,62.4116869 Z" id="Shape" fill="#151A1C"></path>
                            <path d="M40,54 L40,61.7147582 C40,64.5390657 38.2226826,66.9264159 35.7742102,67.7193055 C35.2142241,67.9008888 34.6169514,68 33.9989643,68 C30.6860003,68 28,65.1858207 28,61.7147582 L28,54 L40,54 Z" id="Shape" fill="#E7A42D"></path>
                            <path d="M39,60 L39,60.4518717 C39,63.0614973 37.3076924,65.2673797 34.9763314,66 C32.8731098,65.342246 31.2919132,63.4832888 31,61.2078877 C31.3813281,61.2319519 31.765286,61.2439841 32.1505589,61.2439841 C33.2314268,61.2439841 34.2912558,61.1564172 35.3234714,60.9839572 C36.5950034,60.7767381 37.8238002,60.4438503 39,60 Z" id="Shape" fill="#F8C923"></path>
                            <path d="M55,37.9998324 C55,48.4506693 47.3662398,57.1202326 37.3701979,58.7289672 C36.2044238,58.9161754 35.1126891,59 33.9993016,59 C22.4023283,59 13,49.5976698 13,37.9998324 L13,30.0022632 C13,27.5601721 13.4169965,25.2130822 14.1867286,23.0322446 C17.0582071,14.8593423 24.846333,9 33.9993016,9 C35.1126891,9 36.2058206,9.0859203 37.2710127,9.25356958 C47.3152504,10.8231858 55,19.5158011 55,30.0022632 L55,37.9998324 Z" id="Shape" fill="#E7A42D"></path>
                            <path d="M54,30.5420735 L54,38.4600011 C54,48.8067662 46.4652826,57.389996 36.5989324,58.9827105 C36.56584,58.9882431 36.5306794,58.9937758 36.497587,59 C26.5829772,57.4460142 19,48.8399621 19,38.4600011 L19,30.5420735 C19,20.1600379 26.5850455,11.5539856 36.5010341,10 C46.4149547,11.5539856 54,20.1600379 54,30.5420735 Z" id="Shape" fill="#F8C923"></path>
                            <path d="M29,37.5003665 C29,38.8813956 27.8813958,40 26.5003664,40 C25.1193374,40 24,38.8813956 24,37.5003665 C24,36.1193374 25.1193374,35 26.5003664,35 C27.8813958,35 29,36.1193374 29,37.5003665 Z" id="Shape" fill="#273647"></path>
                            <path d="M43,37.5003665 C43,38.8813956 41.8808267,40 40.5,40 C39.1191733,40 38,38.8813956 38,37.5003665 C38,36.1193374 39.1191733,35 40.5,35 C41.8808267,35 43,36.1193374 43,37.5003665 Z" id="Shape" fill="#273647"></path>
                            <path d="M28,36.9999999 C28,37.5523613 27.5525146,38 27.0003422,38 C26.4481697,38 26,37.5523613 26,36.9999999 C26,36.4476387 26.4481697,36 27.0003422,36 C27.5525146,36 28,36.4476387 28,36.9999999 Z" id="Shape" fill="#FFFFFF"></path>
                            <path d="M42,36.9999999 C42,37.5523613 41.5518303,38 40.9996578,38 C40.4474855,38 40,37.5523613 40,36.9999999 C40,36.4476387 40.4474855,36 40.9996578,36 C41.5518303,36 42,36.4476387 42,36.9999999 Z" id="Shape" fill="#FFFFFF"></path>
                            <path d="M35.9453036,42 L31.0546962,42 C30.4717811,42 30,41.5521576 30,40.9996602 C30,40.4478422 30.4717811,40 31.0546962,40 L35.9453036,40 C36.5282189,40 37,40.4478422 37,40.9996602 C37,41.5521576 36.5282189,42 35.9453036,42 Z" id="Shape" fill="#E7A42D"></path>
                            <path d="M33.4997274,49 C31.7742981,49 30.0481835,48.5700488 28.4756232,47.7101459 C28.0314126,47.4682557 27.869632,46.9136117 28.1136738,46.4727582 C28.3577153,46.0319048 28.9150352,45.8710988 29.3585604,46.112989 C31.9518453,47.5302614 35.0482948,47.5302614 37.64158,46.112989 C38.0844196,45.8704174 38.6424248,46.0312233 38.8864665,46.4727582 C39.1305081,46.9136117 38.9680422,47.4682557 38.5245171,47.7101459 C36.9519568,48.5700488 35.225842,49 33.4997274,49 Z" id="Shape" fill="#E7A42D"></path>
                            <path d="M55,22.8410653 L55,31 L51.0912689,31 L51.0912689,24.611026 L22.878696,19.3888068 L16.9087309,18.2832771 L16.9087309,31 L13,31 L13,22.8410653 C13,13.5390308 20.5694994,6 29.9054714,6 L38.0952271,6 C38.3173457,6 38.5394644,6.00347865 38.7622816,6.01530618 C47.7881258,6.36108856 55,13.7609717 55,22.8410653 Z" id="Shape" fill="#242424"></path>
                            <path d="M52.5027802,54 L45,54 L45,51.3811189 L52.5027802,51.3811189 C54.0703773,51.3811189 55.3459987,50.1223776 55.3459987,48.5755245 L55.3459987,43 L58,43 L58,48.5755245 C57.9992914,51.5664335 55.5337985,54 52.5027802,54 Z" id="Shape" fill="#FFFFFF"></path>
                            <path d="M54,22.8360669 L54,31 L50.10603,31 L50.10603,24.607112 L22,19.3816935 C23.5482638,11.9403803 30.0015657,6.30143963 37.8236023,6 C46.8153609,6.34599422 54,13.7504107 54,22.8360669 Z" id="Shape" fill="#464646"></path>
                            <path d="M59,31.0787578 L59,45.9212422 C59,47.6206885 57.6983007,49 56.0900463,49 L55.9092915,49 C54.3016993,49 53,47.6206885 53,45.9212422 L53,31.0787578 C53,29.3793115 54.3016993,28 55.9092915,28 L56.0900463,28 C57.6983007,28 59,29.3793115 59,31.0787578 Z" id="Shape" fill="#151A1C"></path>
                            <path d="M59,31.1036766 L59,40.8963234 C59,42.610937 57.6983007,44 56.0900463,44 L55.9092915,44 C54.3016993,44 53,42.610937 53,40.8963234 L53,31.1036766 C53,29.3904753 54.3016993,28 55.9092915,28 L56.0900463,28 C57.6983007,28 59,29.3904753 59,31.1036766 Z" id="Shape" fill="#273647"></path>
                            <path d="M7,31.0787578 L7,45.9212422 C7,47.6206885 8.30169934,49 9.90995374,49 L10.0900464,49 C11.6983007,49 13,47.6206885 13,45.9212422 L13,31.0787578 C13,29.3793115 11.6983007,28 10.0900464,28 L9.90995374,28 C8.30169934,28 7,29.3793115 7,31.0787578 Z" id="Shape" fill="#151A1C"></path>
                            <path d="M7,31.1036766 L7,40.8963234 C7,42.610937 8.30169934,44 9.90995374,44 L10.0900464,44 C11.6983007,44 13,42.610937 13,40.8963234 L13,31.1036766 C13,29.3904753 11.6983007,28 10.0900464,28 L9.90995374,28 C8.30169934,28 7,29.3904753 7,31.1036766 Z" id="Shape" fill="#273647"></path>
                            <path d="M48,53.001457 C48,53.611219 47.8273876,54.1801845 47.5309895,54.6537154 C47.0255309,55.4645458 46.1569672,56 45.1694318,56 L42.8312559,56 C42.0493424,56 41.3410126,55.6648859 40.8293647,55.1214181 C40.3163414,54.5794074 40,53.8290432 40,53.001457 C40,51.578679 40.9345827,50.3882952 42.1875698,50.0779503 C42.3931918,50.0276832 42.6105046,50 42.8312559,50 L45.1694318,50 C45.9506576,50 46.6589874,50.3351141 47.1706353,50.8793104 C47.6836586,51.422778 48,52.1731423 48,53.001457 Z" id="Shape" fill="#151A1C"></path>
                            <path d="M47,53.1716705 C47,53.8160122 46.8351395,54.4172439 46.5520526,54.9176289 C46.3556651,54.9715164 46.1481117,55 45.9372743,55 L43.7041051,55 C42.9573069,55 42.2807881,54.6458813 41.7927749,54.0715934 C41.3027914,53.4965357 41,52.7036181 41,51.8290993 C41,51.1839876 41.1655171,50.5827559 41.4486042,50.0823709 C41.6449917,50.0292532 41.8525451,50 42.0633825,50 L44.2965517,50 C45.0426929,50 45.7192119,50.3541185 46.2078818,50.9291763 C46.6978653,51.5034641 47,52.2963819 47,53.1716705 Z" id="Shape" fill="#273647"></path>
                        </g>
                    </g>
                </g>
            </g>
        </g>
    </g>
</svg>